<svg width="41" height="41" viewBox="0 0 41 41" fill="none" xmlns="http://www.w3.org/2000/svg">
<path d="M33 22.3897C32.974 22.3625 32.9778 22.328 32.9778 22.2951C32.9876 21.8529 32.8083 21.4747 32.5697 21.1199C32.3945 20.8594 32.1676 20.6472 31.918 20.4579C31.8001 20.3689 31.7845 20.3182 31.8584 20.1941C31.9393 20.0529 32.0071 19.9047 32.061 19.7512C32.1278 19.5703 32.1825 19.3862 32.1859 19.1917C32.1899 18.9622 32.1917 18.7322 32.1859 18.5021C32.1804 18.3431 32.1516 18.1857 32.1004 18.035C31.9748 17.648 31.7673 17.2925 31.492 16.9928C31.2167 16.6931 30.88 16.4562 30.5048 16.2981C30.1188 16.1362 29.7015 16.0892 29.2879 16.0872C27.5819 16.0781 25.8759 16.0835 24.1696 16.0832C24.1215 16.0848 24.0732 16.0837 24.0252 16.0801C23.9435 16.071 23.8989 16.021 23.9161 15.944C23.9421 15.8285 23.9495 15.71 23.9858 15.5963C24.0215 15.48 24.0478 15.3609 24.0643 15.2404C24.0923 15.028 24.1311 14.8171 24.1806 14.6086C24.2422 14.3677 24.2669 14.1217 24.3032 13.8777C24.3304 13.6948 24.3791 13.5164 24.3978 13.332C24.4139 13.1745 24.4511 13.019 24.4617 12.8611C24.4782 12.6175 24.5003 12.3741 24.5403 12.1346C24.5866 11.8565 24.5982 11.5755 24.6125 11.2975C24.6378 10.8023 24.6198 10.3047 24.6194 9.80708C24.6217 9.76253 24.62 9.71785 24.6142 9.67361C24.5621 9.39066 24.5359 9.10347 24.4691 8.82274C24.3685 8.40009 24.2184 8.00213 23.9268 7.67068C23.6082 7.31009 23.2057 7.10144 22.7319 7.02358C22.6676 7.01313 22.5983 7.04227 22.5382 6.99867H21.8703C21.8363 7.03114 21.7935 7.01713 21.7539 7.02091C21.6401 7.03181 21.5259 7.04004 21.42 7.08542C20.7712 7.36126 20.3133 7.83329 20.031 8.46927C19.8903 8.78649 19.7761 9.11638 19.6561 9.44293C19.5341 9.7766 19.3987 10.1036 19.2727 10.4353C19.0665 10.978 18.8631 11.5222 18.6493 12.062C18.4654 12.5254 18.321 13.0048 18.0496 13.4317C17.9006 13.6654 17.7613 13.9064 17.597 14.129C17.298 14.5339 16.9611 14.9076 16.6174 15.276C16.4048 15.5035 16.1764 15.7151 15.9571 15.936C15.9216 15.9739 15.8826 16.0084 15.8404 16.0388C15.6496 16.1689 15.5018 16.3471 15.325 16.4939C15.0205 16.7466 14.7288 17.016 14.4163 17.2582C13.9868 17.5919 13.5458 17.9098 13.1052 18.2283C12.9729 18.3288 12.8105 18.3819 12.6443 18.3789C11.0414 18.3729 9.43982 18.3753 7.83733 18.3753C7.77811 18.3753 7.71867 18.3753 7.65923 18.3765C7.38361 18.3818 7.08529 18.6392 7.02028 18.8552C6.99245 19.1312 7.00136 19.4093 7.00136 19.6869C7.00136 23.245 7.00136 26.8031 7.00136 30.3611C7.00076 30.5277 7.00886 30.6943 7.02562 30.86C7.0579 30.9593 7.1267 31.0307 7.20195 31.0981C7.38005 31.2569 7.58888 31.3205 7.82375 31.3205C9.48115 31.3205 11.1385 31.3198 12.7957 31.3185C12.9476 31.3178 13.0982 31.3471 13.2388 31.4046C13.5787 31.5421 13.9251 31.6646 14.2738 31.7772C14.7667 31.9365 15.26 32.096 15.7634 32.2221C16.0864 32.3033 16.4106 32.3791 16.7336 32.4608C16.9204 32.5082 17.1121 32.5302 17.2984 32.5762C17.6007 32.651 17.9086 32.6946 18.2156 32.738C18.5227 32.7813 18.8263 32.8447 19.1369 32.8734C19.3373 32.8919 19.5419 32.9179 19.7418 32.9333C20.1247 32.9608 20.5094 32.9951 20.8948 32.9778C21.0706 32.9778 21.2463 32.9778 21.422 32.9778C21.4614 32.9778 21.5034 32.9693 21.5375 33H28.7262C28.7529 32.9722 28.7877 32.9778 28.8204 32.9778C28.992 32.9778 29.157 32.9424 29.3197 32.8917C29.4375 32.8547 29.539 32.7847 29.6494 32.7326C29.904 32.6115 30.1328 32.4424 30.3233 32.2348C30.5876 31.9492 30.8187 31.6362 30.9389 31.256C31.0079 31.0378 31.0997 30.8251 31.0754 30.5887C31.0739 30.5403 31.0819 30.4922 31.099 30.447C31.1281 30.3506 31.1281 30.2479 31.099 30.1515C31.0842 30.1019 31.0756 30.0507 31.0734 29.9989C31.0597 29.6988 30.9776 29.4057 30.8334 29.1421C30.7394 28.9683 30.741 28.9343 30.9075 28.8284C31.0558 28.7382 31.1955 28.6347 31.325 28.5192C31.5626 28.3003 31.7594 28.0409 31.906 27.7531C32.0714 27.4288 32.2026 27.0927 32.1883 26.7174C32.1823 26.5617 32.1883 26.406 32.187 26.2502C32.187 26.1688 32.1979 26.0859 32.1785 26.0056C32.1077 25.7144 32.0227 25.4272 31.8704 25.166C31.7749 25.0014 31.7842 24.9756 31.9332 24.8651C32.1113 24.7316 32.2856 24.597 32.4212 24.4159C32.4813 24.3359 32.5365 24.2529 32.5937 24.1712C32.8273 23.8376 32.9742 23.4743 32.9782 23.0612C32.9782 23.0216 32.9671 22.9789 33.0005 22.9449L33 22.3897ZM12.3654 29.5794C12.3712 29.6626 12.3304 29.6891 12.2518 29.6889C11.021 29.6869 9.78994 29.6858 8.55865 29.6855C8.55865 29.641 8.55665 29.5965 8.55665 29.552C8.55665 26.4176 8.55665 23.2831 8.55665 20.1485C8.55665 20.0964 8.55865 20.0446 8.55976 19.9928C8.58715 19.9634 8.62277 19.9772 8.65438 19.977C9.85955 19.977 11.0647 19.977 12.2699 19.977C12.3013 19.977 12.3367 19.963 12.3643 19.9928C12.3642 19.9983 12.365 20.0038 12.3667 20.009C12.3667 20.1091 12.3649 20.2092 12.3649 20.3091V29.4571C12.3654 29.498 12.3627 29.5389 12.3654 29.5794ZM31.4209 22.9462C31.3492 23.172 31.2428 23.378 31.0571 23.531C30.8548 23.6988 30.6237 23.8064 30.3547 23.8093C30.0729 23.812 29.791 23.8082 29.5087 23.8113C29.157 23.8151 28.8883 23.967 28.7663 24.3007C28.6133 24.7196 28.7832 25.0957 29.1634 25.2795C29.3309 25.3605 29.5197 25.334 29.6944 25.3736C30.0729 25.4594 30.3512 25.6665 30.5126 26.026C30.5899 26.1902 30.6242 26.3713 30.6123 26.5523C30.5805 26.9779 30.3795 27.2955 30.0045 27.5035C29.849 27.588 29.6737 27.6294 29.4967 27.6234C29.1445 27.6194 28.7921 27.621 28.4397 27.6234C28.2322 27.625 28.0414 27.681 27.8775 27.8141C27.4561 28.1566 27.5258 28.8469 28.0258 29.0905C28.1521 29.1534 28.2915 29.1854 28.4326 29.1837C28.8798 29.1754 29.3367 29.5743 29.45 29.9658C29.6192 30.5502 29.3596 31.1072 28.834 31.3583C28.6621 31.4404 28.4704 31.468 28.2756 31.4676C27.1665 31.4651 26.0573 31.4676 24.9482 31.4662C23.8838 31.4662 22.8192 31.4687 21.7546 31.458C21.3694 31.4542 20.9834 31.4357 20.5991 31.4099C20.0945 31.3764 19.5911 31.3253 19.089 31.2564C18.7248 31.2066 18.361 31.1492 17.9981 31.0785C17.7023 31.0218 17.4048 30.9699 17.1112 30.9039C16.8046 30.8349 16.4998 30.7553 16.1951 30.6776C15.9252 30.6087 15.6608 30.5219 15.3903 30.4552C15.2135 30.4107 15.0425 30.344 14.8669 30.2912C14.6404 30.2245 14.4216 30.1342 14.197 30.0586C14.1344 30.0363 14.0803 29.9981 14.0115 29.9883C13.9892 29.9848 13.9691 29.9726 13.9556 29.9545C13.942 29.9364 13.9361 29.9137 13.9392 29.8913C13.9414 29.8617 13.9392 29.8319 13.9392 29.8023C13.9392 26.4518 13.9382 23.1013 13.9363 19.7507C13.9363 19.6333 13.9754 19.5619 14.0676 19.4998C14.6387 19.1159 15.1825 18.6948 15.7151 18.2603C16.3692 17.7265 16.9996 17.1643 17.5892 16.5582C18.0921 16.041 18.5676 15.5009 18.9886 14.9138C19.3379 14.4269 19.6387 13.9128 19.8687 13.3596C20.0022 13.0395 20.1167 12.712 20.2411 12.3884C20.3562 12.089 20.4638 11.7878 20.5878 11.4903C20.6851 11.2552 20.7607 11.011 20.8518 10.7729C20.9471 10.5245 21.0522 10.2796 21.147 10.0309C21.2381 9.79284 21.3182 9.55082 21.4099 9.31302C21.5092 9.0552 21.6368 8.81474 21.8663 8.64412C21.9137 8.60897 21.9607 8.57605 22.0222 8.5716C22.1577 8.52311 22.2929 8.54246 22.428 8.57316C22.7043 8.62098 22.8198 8.82274 22.8846 9.06076C23.0701 9.74457 23.0552 10.4437 23.0204 11.1413C23.0102 11.344 23.0002 11.5482 22.9788 11.7504C22.9331 12.183 22.8811 12.615 22.823 13.0464C22.7813 13.3558 22.7339 13.6652 22.6731 13.9715C22.6104 14.2885 22.5683 14.6091 22.4904 14.9234C22.4409 15.1225 22.4171 15.3278 22.3746 15.5287C22.3341 15.7191 22.2737 15.9068 22.241 16.0973C22.2107 16.2752 22.1555 16.4463 22.121 16.6227C22.0987 16.7303 22.07 16.8347 22.0676 16.9481C22.0611 17.2613 22.3325 17.6012 22.6478 17.6753C22.7557 17.7004 22.8662 17.7127 22.977 17.712C25.1392 17.712 27.3015 17.7116 29.464 17.7109C29.9268 17.7109 30.2677 17.916 30.4828 18.3148C30.5536 18.4465 30.5975 18.591 30.612 18.7398C30.6264 18.8886 30.6111 19.0388 30.5669 19.1816C30.5227 19.3245 30.4506 19.4571 30.3546 19.5718C30.2586 19.6865 30.1407 19.781 30.0079 19.8497C29.8355 19.9413 29.6437 19.9905 29.4484 19.9932C29.088 19.9977 28.8028 20.2568 28.7387 20.5447C28.6574 20.9039 28.7502 21.2229 29.1082 21.4258C29.2188 21.4914 29.3454 21.5251 29.474 21.5232C29.7412 21.5194 30.0083 21.5199 30.2755 21.5232C30.7793 21.5288 31.1348 21.7706 31.3595 22.2128C31.3871 22.2673 31.4002 22.3294 31.4202 22.3879C31.4573 22.5721 31.4576 22.7619 31.4211 22.9462H31.4209Z" fill="white"/>
</svg>
