<svg width="273" height="247" viewBox="0 0 273 247" fill="none" xmlns="http://www.w3.org/2000/svg">
<path d="M76.7666 218.858C74.9619 223.26 69.4092 235.303 75.7671 237.157C83.1244 239.289 83.1244 219.966 83.1244 219.966L76.7666 218.858Z" fill="black"/>
<path d="M85.9008 153.607C86.1791 158.54 85.175 163.46 82.9856 167.892C80.0704 173.872 79.5152 179.852 79.5152 189.873C79.4116 198.261 78.8183 206.636 77.7383 214.955C77.3496 217.28 73.4627 228.077 77.7383 228.658C82.0139 229.24 82.9579 221.904 83.5409 216.505C84.1239 211.107 88.5383 198.76 91.287 189.873C93.3672 183.426 94.6628 176.752 95.1461 169.996C94.9518 166.259 101.337 152.832 101.337 152.832L85.9008 153.607Z" fill="#F7B799"/>
<path d="M99.727 35.3688C98.9496 37.3344 92.564 38.6355 93.8133 45.169C95.0627 51.7024 105.53 45.9164 105.53 45.9164L107.529 35.9779L104.114 33.4309L99.727 35.3688Z" fill="#713C1F"/>
<path d="M112.748 219.523C112.748 219.523 108.445 240.23 117.995 238.514C124.603 237.324 119.106 219.523 119.106 219.523H112.748Z" fill="black"/>
<path d="M116.08 34.1507C114.634 36.5957 114.215 39.5108 114.914 42.2621C115.608 44.1723 119.273 46.3871 117.329 49.3769C115.386 52.3668 104.114 49.3769 104.114 49.3769L116.08 34.1507Z" fill="#713C1F"/>
<path d="M111.832 154.742C112.486 157 112.814 159.34 112.804 161.691C112.609 163.435 110.027 169.802 110.472 175.533C110.916 181.263 112.276 198.123 112.831 204.878C113.41 209.474 113.41 214.124 112.831 218.72C112.221 222.568 113.359 231.067 116.469 231.067C119.578 231.067 120.133 224.312 118.995 218.72C118.247 213.773 118.435 208.731 119.55 203.854C120.133 200.172 123.798 176.862 124.02 173.761C124.409 168.529 122.354 164.293 122.688 161.58C123.021 158.867 125.464 150.507 125.464 150.507L111.832 154.742Z" fill="#F7B799"/>
<path d="M114.442 37.1406C113.359 41.487 111.915 47.273 115.691 47.5498C119.467 47.8266 124.548 48.9894 124.909 55.6612C125.27 62.333 125.964 73.3236 126.491 81.7118C127.019 90.1001 126.491 106.627 126.491 106.627L91.62 105.437C91.62 105.437 94.8128 90.9583 93.6467 84.3141C92.6556 79.3043 91.3008 74.3728 89.5933 69.5586C89.9405 73.3804 89.9405 77.2256 89.5933 81.0474C87.039 98.6821 78.4878 91.0967 78.4878 91.0967L80.1814 78.722C80.1814 78.722 80.1814 75.649 80.1814 69.0603C80.1814 58.9833 81.5418 49.1831 87.7331 46.4978C93.9244 43.8124 102.753 44.7537 102.975 43.591C103.197 42.4282 104.586 31.9637 104.586 31.9637L114.442 37.1406Z" fill="#F7B799"/>
<path d="M93.2858 95.5815C89.466 105.843 87.2378 116.625 86.6781 127.557C85.9007 140.097 84.929 157.455 84.929 157.455C84.929 157.455 114.719 159.006 126.325 153.607C126.325 153.607 127.491 136.415 127.491 126.394C127.491 120.58 129.906 102.253 124.714 94.4465L93.2858 95.5815Z" fill="#C95832"/>
<path d="M122.91 27.1467C123.833 26.0977 124.497 24.8478 124.849 23.4969C125.201 22.1461 125.231 20.7319 124.936 19.3675C123.909 16.1561 121.827 9.73344 116.191 9.06903C109.361 8.29387 122.91 27.1467 122.91 27.1467Z" fill="#713C1F"/>
<path d="M122.688 28.3648C122.799 28.5621 122.869 28.7796 122.894 29.0046C122.92 29.2295 122.899 29.4572 122.835 29.6741C122.77 29.891 122.662 30.0928 122.518 30.2673C122.373 30.4419 122.195 30.5857 121.994 30.6902L120.272 31.6038C120.076 31.7142 119.86 31.7839 119.637 31.8087C119.413 31.8336 119.187 31.813 118.972 31.7484C118.756 31.6837 118.557 31.5762 118.384 31.4324C118.211 31.2886 118.07 31.1115 117.968 30.9117V30.9117C117.857 30.7144 117.786 30.4968 117.761 30.2719C117.736 30.047 117.756 29.8193 117.821 29.6024C117.886 29.3854 117.993 29.1837 118.138 29.0091C118.282 28.8346 118.461 28.6908 118.662 28.5862L120.383 27.6727C120.58 27.5661 120.796 27.4995 121.018 27.4767C121.241 27.4538 121.466 27.4752 121.68 27.5396C121.894 27.6039 122.094 27.71 122.267 27.8516C122.44 27.9933 122.583 28.1677 122.688 28.3648V28.3648Z" fill="#C90E00"/>
<path d="M123.52 19.7827C122.604 14.2459 119.856 8.48766 112.082 8.48766C108.913 8.44196 105.842 9.57757 103.469 11.672C101.097 13.7664 99.5937 16.6688 99.255 19.8104C99.0543 22.6077 99.3455 25.4184 100.116 28.1156C100.421 29.0292 104.197 31.4654 104.947 34.2891C105.696 37.1129 123.52 19.7827 123.52 19.7827Z" fill="#713C1F"/>
<path d="M104.364 29.9428C104.461 32.0224 104.377 34.1065 104.114 36.1717C104.697 36.5316 105.696 37.3067 106.446 37.722C109.27 39.4081 112.421 40.4746 115.691 40.8503C115.691 40.8503 115.164 40.0197 114.331 38.8293L104.419 29.9151L104.364 29.9428Z" fill="#F0A581"/>
<path d="M104.086 30.1642C104.527 32.44 105.743 34.4939 107.529 35.9779C109.92 38.0902 112.689 39.7338 115.691 40.8226C117.024 40.8226 118.051 41.2101 120.078 37.805C122.105 34.3999 123.632 32.8773 123.743 29.4998C123.854 26.1224 125.242 19.0076 120.966 16.3776C119.158 15.4924 117.12 15.1875 115.131 15.5048C113.143 15.8221 111.301 16.746 109.861 18.1494C107.084 20.9178 107.084 21.9975 106.085 26.4546C106.085 26.4546 103.781 23.3817 102.864 23.2709C101.948 23.1602 101.171 23.7139 101.698 25.6241C102.226 27.5343 102.67 27.202 102.726 28.1433C102.781 29.0846 102.892 30.0812 103.392 30.4411C103.892 30.801 104.086 30.1642 104.086 30.1642Z" fill="#F7B799"/>
<path d="M119.384 15.6025C119.384 15.6025 113.831 25.541 106.029 27.1467L103.059 18.094L110.25 12.751L119.384 15.6025Z" fill="#713C1F"/>
<path d="M117.912 15.9623C119.547 18.7983 121.772 21.2526 124.437 23.1602C124.437 23.1602 125.131 15.4087 120.689 11.8097L117.912 15.9623Z" fill="#713C1F"/>
<path d="M89.7876 70.223C92.7844 68.0088 94.8281 64.7443 95.5069 61.0873C95.6353 55.587 95.0284 50.0942 93.7023 44.7537L98.2833 44.2831C99.305 48.8733 101.292 53.195 104.114 56.9623C108.001 61.6686 114.692 63.8833 115.691 67.6484C115.691 67.6484 118.467 63.1913 120.466 60.3121C122.91 56.7409 117.69 47.7159 117.69 47.7159C117.69 47.7159 119.245 48.0758 119.634 48.2142C120.174 48.4134 120.695 48.6637 121.188 48.9617C121.188 48.9617 125.742 58.9833 126.436 61.3641C127.352 64.5478 128.99 69.6693 123.992 74.6801C123.331 81.2793 123.649 87.9398 124.936 94.4465C124.936 94.4465 108.75 100.343 93.3969 95.5815C94.259 86.9622 93.0208 78.2628 89.7876 70.223V70.223Z" fill="#F19649"/>
<path d="M108.556 8.9306C105.733 9.83048 103.228 11.519 101.338 13.7958C99.4483 16.0727 98.2532 18.8423 97.8947 21.776C97.5699 26.3841 98.1934 31.0098 99.7271 35.3688L104.114 36.1717C104.333 34.566 104.445 32.9475 104.447 31.327C103.01 30.6042 101.828 29.4618 101.059 28.0521C100.291 26.6424 99.9711 25.0325 100.144 23.437C100.362 21.6226 100.971 19.8766 101.93 18.3189C102.888 16.7612 104.173 15.4285 105.696 14.412L108.556 8.9306Z" fill="#713C1F"/>
<path d="M79.0709 85.643L80.0427 86.7503C80.0736 86.7813 80.1104 86.8059 80.1509 86.8226C80.1914 86.8394 80.2348 86.848 80.2787 86.848C80.3225 86.848 80.3659 86.8394 80.4064 86.8226C80.4469 86.8059 80.4837 86.7813 80.5146 86.7503L81.6252 85.7537C81.6562 85.7228 81.6809 85.6862 81.6977 85.6458C81.7145 85.6054 81.7232 85.5621 81.7232 85.5184C81.7232 85.4747 81.7145 85.4314 81.6977 85.391C81.6809 85.3506 81.6562 85.3139 81.6252 85.2831L80.6257 84.1757C80.5972 84.1456 80.5627 84.1215 80.5245 84.1051C80.4863 84.0887 80.4452 84.0802 80.4036 84.0802C80.362 84.0802 80.3208 84.0887 80.2826 84.1051C80.2445 84.1215 80.21 84.1456 80.1815 84.1757L79.0709 85.1447C79.0355 85.1758 79.0071 85.2142 78.9876 85.2571C78.9682 85.3001 78.9581 85.3467 78.9581 85.3938C78.9581 85.4409 78.9682 85.4875 78.9876 85.5305C79.0071 85.5735 79.0355 85.6118 79.0709 85.643V85.643ZM79.293 85.643C79.2687 85.6197 79.2493 85.5918 79.2361 85.5609C79.2228 85.5299 79.216 85.4966 79.216 85.463C79.216 85.4294 79.2228 85.3961 79.2361 85.3652C79.2493 85.3343 79.2687 85.3063 79.293 85.2831L80.2092 84.4526C80.2301 84.429 80.2557 84.4101 80.2844 84.3972C80.3132 84.3843 80.3443 84.3776 80.3758 84.3776C80.4073 84.3776 80.4385 84.3843 80.4672 84.3972C80.4959 84.4101 80.5216 84.429 80.5424 84.4526L81.3753 85.3938C81.4163 85.4395 81.4389 85.4986 81.4389 85.5599C81.4389 85.6212 81.4163 85.6803 81.3753 85.726L80.4313 86.5565C80.4105 86.5801 80.3849 86.599 80.3562 86.6119C80.3274 86.6248 80.2963 86.6315 80.2648 86.6315C80.2333 86.6315 80.2021 86.6248 80.1734 86.6119C80.1447 86.599 80.119 86.5801 80.0982 86.5565L79.293 85.643Z" fill="white"/>
<path d="M77.183 82.6254L76.239 84.2034C76.2094 84.2482 76.1895 84.2986 76.1805 84.3515C76.1714 84.4044 76.1735 84.4586 76.1865 84.5106C76.1996 84.5627 76.2233 84.6115 76.2563 84.6539C76.2892 84.6963 76.3306 84.7315 76.3779 84.7571L77.9604 85.726C78.0392 85.7889 78.1371 85.8232 78.238 85.8232C78.3389 85.8232 78.4369 85.7889 78.5157 85.726L79.4596 84.148C79.5134 84.0513 79.529 83.9381 79.5033 83.8305C79.4777 83.7229 79.4125 83.6288 79.3208 83.5667L77.7383 82.487C77.6455 82.4349 77.5363 82.4203 77.433 82.446C77.3297 82.4718 77.2403 82.536 77.183 82.6254V82.6254ZM77.183 82.9023C77.2377 82.8573 77.3064 82.8326 77.3773 82.8326C77.4483 82.8326 77.517 82.8573 77.5717 82.9023L78.9043 83.7051C78.957 83.7615 78.9863 83.8357 78.9863 83.9127C78.9863 83.9898 78.957 84.064 78.9043 84.1204L78.0992 85.4492C78.0427 85.5017 77.9683 85.5309 77.891 85.5309C77.8137 85.5309 77.7393 85.5017 77.6827 85.4492L76.3501 84.6464C76.3211 84.623 76.2977 84.5935 76.2817 84.5599C76.2656 84.5264 76.2573 84.4897 76.2573 84.4526C76.2573 84.4154 76.2656 84.3787 76.2817 84.3452C76.2977 84.3117 76.3211 84.2821 76.3501 84.2588L77.183 82.9023Z" fill="white"/>
<path d="M79.7094 87.0825H78.238C78.1538 87.0744 78.0697 87.0985 78.0027 87.1499C77.9357 87.2013 77.8907 87.2762 77.877 87.3594V88.8266C77.8689 88.9105 77.893 88.9944 77.9446 89.0612C77.9961 89.1281 78.0712 89.1729 78.1547 89.1865H79.6262C79.6699 89.1903 79.714 89.1854 79.7559 89.1721C79.7978 89.1589 79.8366 89.1375 79.8702 89.1091C79.9037 89.0808 79.9313 89.0462 79.9514 89.0072C79.9715 88.9682 79.9836 88.9257 79.9871 88.882V87.4424C79.995 87.4003 79.9939 87.357 79.9839 87.3153C79.9739 87.2736 79.9552 87.2345 79.929 87.2005C79.9028 87.1666 79.8697 87.1385 79.8319 87.1182C79.794 87.0978 79.7523 87.0857 79.7094 87.0825V87.0825ZM79.4873 87.0825C79.519 87.0823 79.5503 87.0888 79.5793 87.1016C79.6082 87.1144 79.6341 87.1333 79.6551 87.1568C79.6761 87.1804 79.6919 87.2083 79.7012 87.2384C79.7106 87.2686 79.7134 87.3004 79.7094 87.3317V88.5498C79.7026 88.6109 79.6733 88.6674 79.6271 88.7083C79.581 88.7492 79.5213 88.7716 79.4596 88.7712H78.2102C78.1793 88.7725 78.1485 88.7664 78.1204 88.7535C78.0922 88.7405 78.0677 88.721 78.0487 88.6966C78.0296 88.6722 78.0167 88.6437 78.011 88.6133C78.0053 88.583 78.007 88.5517 78.0159 88.5221V87.2763C78.0159 87.2763 78.1547 87.0548 78.2657 87.0825H79.4873Z" fill="white"/>
<path d="M73.4348 79.0265C72.2965 79.4418 73.296 88.356 76.0168 88.5775C78.7377 88.7989 79.1263 84.8955 77.9603 82.2102C76.7942 79.5248 75.7392 78.1406 73.4348 79.0265Z" fill="#F7B799"/>
<path d="M108.722 238.625C109.134 238.628 109.543 238.551 109.925 238.397C110.307 238.243 110.655 238.016 110.949 237.728C111.243 237.44 111.477 237.097 111.638 236.719C111.799 236.341 111.884 235.935 111.887 235.524L111.193 108.178C111.193 106.461 110.472 109.811 108.722 109.811C106.973 109.811 106.501 109.036 106.501 110.725L105.502 235.524C105.505 235.94 105.592 236.35 105.756 236.732C105.921 237.114 106.16 237.459 106.46 237.748C106.76 238.037 107.114 238.263 107.503 238.413C107.891 238.564 108.306 238.636 108.722 238.625V238.625Z" fill="#595550"/>
<path d="M77.7383 242.279C78.477 242.276 79.1911 242.014 79.7549 241.538C80.3186 241.062 80.6958 240.403 80.8201 239.677L101.698 109.7C101.976 107.984 100.782 110.005 98.922 109.7C97.0618 109.396 97.395 108.261 97.1173 109.95L74.6565 238.68C74.5287 239.499 74.7317 240.334 75.2209 241.004C75.7102 241.673 76.4457 242.122 77.2663 242.251L77.7383 242.279Z" fill="#595550"/>
<path d="M139.707 242.279H140.206C141.027 242.15 141.763 241.701 142.252 241.031C142.741 240.362 142.944 239.526 142.816 238.708L121.41 112.275C121.133 110.586 120.078 109.507 118.384 109.728C116.691 109.95 116.135 111.223 116.413 112.939L136.597 239.677C136.727 240.405 137.11 241.065 137.678 241.54C138.247 242.016 138.965 242.278 139.707 242.279V242.279Z" fill="#595550"/>
<path d="M108.722 120.054C90.6761 120.054 76.0447 113.687 76.0447 105.825H141.428C141.428 113.687 126.797 120.054 108.722 120.054Z" fill="#48423B"/>
<path d="M151.951 99.2358H65.5223C64.2189 99.2358 63.1624 100.289 63.1624 101.589V103.748C63.1624 105.048 64.2189 106.101 65.5223 106.101H151.951C153.254 106.101 154.31 105.048 154.31 103.748V101.589C154.31 100.289 153.254 99.2358 151.951 99.2358Z" fill="#595550"/>
<path d="M76.0447 105.825C76.046 106.433 76.13 107.038 76.2946 107.624L139.901 110.143C140.862 108.915 141.398 107.41 141.428 105.852L76.0447 105.825Z" fill="#31261A"/>
<path d="M24.7652 148.818H19.74V239.261H24.7652V148.818Z" fill="#595550"/>
<path d="M11.1055 148.015C11.1055 149.455 11.8273 150.617 12.7435 150.617H32.8999C33.8161 150.617 34.538 149.455 34.538 148.015C34.538 146.575 33.8161 145.413 32.8999 145.413H12.8268C11.9106 145.413 11.1888 146.575 11.1888 148.015H11.1055Z" fill="#48423B"/>
<path d="M38.8691 37.9434C38.9301 39.5812 39.2198 41.2025 39.7298 42.7605C40.1583 43.2877 40.4507 43.9116 40.5814 44.5776C40.7121 45.2436 40.6771 45.9314 40.4794 46.5808C40.2018 48.0758 41.4512 49.017 42.0342 49.9306C42.7575 51.4563 43.0273 53.1568 42.8116 54.8307C42.8116 56.1595 43.0614 56.1595 43.6445 57.5991C44.2426 58.3511 44.6018 59.264 44.676 60.2209C44.7502 61.1779 44.536 62.135 44.0609 62.9698C42.5617 65.3783 46.5041 68.8388 44.9216 70.749C43.3391 72.6592 44.3941 74.9846 44.9216 76.2858C45.4491 77.5869 43.4224 78.3898 43.7555 80.6875C44.0332 82.4316 44.8938 82.487 42.4229 87.2209L40.3406 70.2783L40.0907 54.6092L39.2578 48.2696L37.6753 42.9542L38.8691 37.9434Z" fill="#17050A"/>
<path d="M34.6212 148.015C34.6212 146.575 33.8994 145.413 32.9832 145.413H12.8268C11.9106 145.413 11.1887 146.575 11.1887 148.015L34.5657 148.679C34.5969 148.459 34.6154 148.237 34.6212 148.015Z" fill="#31261A"/>
<path d="M35.7874 42.7605C35.7874 42.7605 39.2023 44.8644 41.2013 51.9792C42.4304 55.8265 43.0303 59.8459 42.9782 63.8833C42.9782 68.1744 41.4512 72.9914 42.645 76.3965C43.4088 78.508 43.6461 80.7731 43.3366 82.9964C43.027 85.2197 42.1799 87.3346 40.8681 89.1588C41.5944 88.0248 42.0144 86.7228 42.0874 85.3792C42.1604 84.0356 41.8838 82.696 41.2846 81.4904C39.6645 78.77 38.8287 75.6567 38.8691 72.4931C39.0357 67.8145 40.0352 62.9144 38.8691 60.2014C37.7031 57.4883 36.4815 57.5991 36.7313 54.8584C36.745 51.4363 35.9759 48.0563 34.4825 44.9752C33.7051 44.4492 35.0655 44.1723 35.0655 44.1723L35.7874 42.7605Z" fill="#17050A"/>
<path d="M17.1857 47.0515C17.1857 47.0515 14.6036 47.9097 15.3255 55.6612C15.9245 60.7158 17.1653 65.6741 19.0181 70.4168C20.6839 74.6247 23.96 78.722 24.0433 82.57C24.0767 84.9232 24.686 87.2327 25.8183 89.2976C26.9505 91.3626 28.5713 93.1206 30.54 94.4188C29.5732 93.4105 28.8369 92.2055 28.3816 90.8866C27.9263 89.5676 27.7628 88.166 27.9024 86.778C28.6164 83.5954 28.375 80.2737 27.2083 77.227C25.2926 72.7145 21.6556 68.3128 21.9055 65.1568C22.4192 62.3197 22.1308 59.3961 21.0726 56.7132C19.8117 54.4627 19.2421 51.8923 19.4345 49.3216C19.9898 48.491 18.7127 48.0758 18.7127 48.0758L17.1857 47.0515Z" fill="#17050A"/>
<path d="M35.2321 57.9313C36.0283 58.2807 36.6804 58.8918 37.0795 59.6626C37.4786 60.4334 37.6007 61.3173 37.4254 62.1669C36.9256 63.9941 36.5092 64.1325 37.4254 66.3472C38.3416 68.5619 38.2583 68.5343 37.4254 70.9704C36.5925 73.4066 36.3704 73.7388 37.4254 75.1507C38.2857 76.0497 38.9085 77.1477 39.238 78.346C39.5676 79.5444 39.5934 80.8056 39.3133 82.0164C39.0912 83.3729 42.0897 84.0373 41.4789 86.6673C42.6176 83.7282 42.6766 80.4821 41.6455 77.5039C40.7067 72.9373 40.7067 68.2284 41.6455 63.6619L39.5354 57.7929L35.2321 57.9313Z" fill="#17050A"/>
<path d="M13.2155 37.3344C13.8819 41.5147 15.1035 44.2831 13.8819 47.8543C12.6603 51.4255 9.52296 53.3911 13.16 58.5403C16.797 63.6895 17.4356 62.6376 15.9364 65.9873C14.4371 69.3371 13.6042 72.8253 16.6027 75.4829C19.6012 78.1406 21.6834 79.3033 20.9061 82.2378C20.5495 83.5752 20.667 84.9944 21.2386 86.2554C21.8103 87.5165 22.801 88.542 24.0434 89.1588C26.8197 90.9583 25.3482 93.5606 30.4012 94.4188C30.4012 94.4188 26.792 92.5916 26.5421 85.7814C25.92 80.7229 24.1026 75.884 21.2392 71.6625L18.9348 56.3256L17.1857 47.0515L13.2155 37.3344Z" fill="#17050A"/>
<path d="M22.2109 49.8199C22.3953 51.8089 22.3953 53.8106 22.2109 55.7996C21.8777 58.568 23.5991 60.146 24.6819 62.1669C25.7646 64.1879 25.2094 64.9353 24.6819 67.2054C24.1544 69.4755 26.5143 70.7767 26.9307 72.3546C27.3472 73.9326 26.9307 74.3479 27.1806 75.3445C27.4305 76.3411 29.5683 80.4384 28.2356 82.8469C26.903 85.2554 21.8777 71.1089 21.8777 71.1089L19.1291 59.7861C19.1291 59.7861 15.2145 52.5883 15.7975 52.1176C16.7911 50.8182 17.7178 49.4692 18.5739 48.0758L22.2109 49.8199Z" fill="#17050A"/>
<path d="M40.7016 56.8239C40.7016 60.4782 37.7308 60.9765 34.0383 60.9765C30.3457 60.9765 27.375 60.4782 27.375 56.8239C27.375 55.0618 28.077 53.3718 29.3266 52.1258C30.5762 50.8798 32.2711 50.1798 34.0383 50.1798C35.8055 50.1798 37.5003 50.8798 38.7499 52.1258C39.9995 53.3718 40.7016 55.0618 40.7016 56.8239Z" fill="#17050A"/>
<path d="M46.9206 66.4303C46.3098 62.3884 43.3391 63.2743 41.3679 62.6652C38.5806 61.3946 35.8896 59.9235 33.3164 58.2635C31.1786 57.0454 31.5118 53.3911 31.5118 53.3911H22.211C22.211 53.3911 22.5719 57.0454 20.4063 58.2635C17.9143 59.764 15.2943 61.0425 12.577 62.0839C10.5225 62.6929 7.30188 62.4991 6.69108 66.541C6.36257 69.0473 6.18642 71.5712 6.16357 74.0987H47.4204C47.4023 71.5351 47.2354 68.9747 46.9206 66.4303V66.4303Z" fill="#F7B799"/>
<path d="M6.55217 66.4303C7.16297 62.3884 10.7445 62.1669 12.799 61.5579C15.3871 60.6972 17.8878 59.5942 20.2674 58.2635C21.4335 57.5991 21.1281 57.5437 21.0726 54.9137C21.017 52.2838 20.3785 48.5741 20.3785 48.5741L31.4839 53.3911C31.4839 53.3911 31.1508 57.0454 33.2886 58.2635C35.4264 59.4816 38.0639 63.3574 40.1184 63.9664C41.0902 64.2432 43.1724 61.198 44.3107 62.0285V77.0056C41.5344 76.0366 39.1745 76.2304 37.5642 75.649C36.44 75.2441 35.3608 74.7246 34.3436 74.0987H6.02466C6.04299 71.5342 6.21916 68.9733 6.55217 66.4303V66.4303Z" fill="#F0A581"/>
<path d="M20.9894 55.5781L21.6835 56.3256C24.1822 55.855 29.0131 56.7962 31.373 55.0521C31.345 54.8872 31.345 54.7188 31.373 54.5538V54.5538V54.1939H21.0727C21.0691 54.6565 21.0413 55.1185 20.9894 55.5781V55.5781Z" fill="#F0A581"/>
<path d="M37.6476 42.539C37.7968 42.7046 37.9111 42.8985 37.9836 43.109C38.0562 43.3195 38.0856 43.5425 38.0701 43.7646C38.0545 43.9867 37.9944 44.2034 37.8932 44.4018C37.792 44.6003 37.6518 44.7764 37.481 44.9198L36.0373 46.1656C35.6984 46.459 35.2566 46.6063 34.809 46.5751C34.3613 46.544 33.9443 46.337 33.6496 45.9995V45.9995C33.3553 45.6616 33.2076 45.2211 33.2389 44.7747C33.2701 44.3283 33.4777 43.9125 33.8162 43.6187L35.2877 42.3729C35.4531 42.2284 35.6457 42.118 35.8541 42.0481C36.0626 41.9782 36.2829 41.9502 36.5023 41.9657C36.7217 41.9811 36.9359 42.0397 37.1324 42.1381C37.329 42.2365 37.5041 42.3728 37.6476 42.539V42.539Z" fill="#C90E00"/>
<path d="M20.3785 47.9097C21.2043 49.8023 21.8187 51.7798 22.2109 53.8064C22.8495 54.0555 23.2104 54.6923 24.0156 54.9414C25.4178 55.4714 26.9131 55.7128 28.4114 55.6509C29.9097 55.5891 31.3799 55.2253 32.7334 54.5815C32.7334 54.5815 32.8999 55.329 31.8449 54.3324L20.4341 47.8543L20.3785 47.9097Z" fill="#F0A581"/>
<path d="M0 85.8091C0 85.8091 0.83291 117.452 1.66582 119.667C2.91518 123.044 5.05299 121.023 12.216 116.538C12.216 116.538 12.0217 117.313 11.7996 111.804C11.7996 111.472 9.66175 111.334 9.68951 111.001C10.217 103.001 11.1055 93.6713 11.1055 88.5775C11.1055 88.5775 8.96766 86.2797 0 85.8091Z" fill="#F0A581"/>
<path d="M11.1055 239.261C11.1055 240.701 11.8273 241.864 12.7435 241.864H32.8999C33.8161 241.864 34.538 240.701 34.538 239.261C34.538 237.822 33.8161 236.659 32.8999 236.659H12.8268C11.9106 236.659 11.1888 237.822 11.1888 239.261H11.1055Z" fill="#48423B"/>
<path d="M1.77686 143.696C1.77686 145.856 3.10951 147.627 4.7198 147.627H41.0902C42.7282 147.627 44.0331 145.856 44.0331 143.696C44.0331 141.509 42.7282 139.765 41.0902 139.765H4.7198C3.10951 139.765 1.77686 141.509 1.77686 143.696V143.696Z" fill="#595550"/>
<path d="M74.712 88.2453C75.953 87.14 77.1215 85.9563 78.2103 84.7017C79.1564 83.1696 80.6576 82.0593 82.4026 81.6011C85.5399 80.8536 87.1224 82.4593 87.0669 83.6774C87.0669 85.4492 85.762 84.8678 84.7902 85.6153C82.8746 87.1102 83.2077 85.4492 83.9851 86.1413C84.7625 86.8334 85.873 84.9785 87.1779 85.117C88.4828 85.2554 87.1779 86.3627 85.2345 87.8854C84.4571 88.5221 82.9301 89.5464 82.4581 89.8509C79.2097 91.9826 78.2103 91.6504 77.0997 92.6193C75.9892 93.5883 74.712 88.2453 74.712 88.2453Z" fill="#F0A581"/>
<path d="M43.6999 66.1257C43.4635 64.7748 42.8267 63.5254 41.8717 62.5385C40.9167 61.5517 39.6871 60.8727 38.3415 60.5889C36.0621 60.2156 33.8286 59.6032 31.6783 58.7618C29.7903 57.6821 30.0957 54.803 30.0957 54.803H21.9332C21.9332 54.803 22.2386 57.5714 20.3507 58.7618C18.2004 59.6032 15.9669 60.2156 13.6874 60.5889C12.3418 60.8727 11.1123 61.5517 10.1573 62.5385C9.20224 63.5254 8.56548 64.7748 8.32904 66.1257C8.03753 68.3289 7.87991 70.5477 7.85706 72.7699L26.0145 88.882L44.1719 72.7699C44.1491 70.5477 43.9914 68.3289 43.6999 66.1257V66.1257Z" fill="#F7B799"/>
<path d="M27.3194 72.5484C32.3446 61.8347 36.9256 59.5646 30.0958 58.9002V55.3567C30.0958 55.3567 39.1745 53.9171 40.2573 60.8935C42.4692 61.1086 44.551 62.0351 46.1886 63.5332C47.8262 65.0313 48.9309 67.0198 49.336 69.1987C50.6131 73.462 51.8902 76.7287 53.7504 84.0096C49.6663 84.9665 45.8632 86.8626 42.6449 89.5464C41.6732 87.5255 42.0064 89.0481 42.0064 89.0481C42.0064 89.0481 41.0347 103.97 42.0064 106.157C42.9781 108.344 44.5329 119.224 39.8408 119.722C35.1488 120.22 25.8202 121.798 25.4592 117.147C25.0983 112.496 22.2109 83.2621 27.3194 72.5484Z" fill="#E3D8C1"/>
<path d="M56.2491 95.6369L61.2466 93.4222C65.189 91.6781 71.4358 89.6848 74.6564 87.8854C75.5945 87.2517 76.4686 86.5285 77.2662 85.726C81.0698 89.408 80.4868 91.2628 77.2662 92.7024C74.6286 93.8928 61.3299 106.129 53.8614 107.32C50.8907 107.79 48.8362 103.112 47.8367 100.952C46.1709 97.3533 44.4218 92.9239 42.7004 89.3249C45.9187 86.6412 49.7218 84.7451 53.8059 83.7881C54.3612 86.2797 55.7771 93.0346 56.2491 95.6369Z" fill="#F0A581"/>
<g style="mix-blend-mode:multiply" opacity="0.3">
<path d="M25.4038 116.981C25.0984 112.718 22.6274 88.1622 26.1812 75.7874C30.9843 86.861 29.7627 115.126 29.4295 119.75C29.442 119.851 29.442 119.953 29.4295 120.054C27.1807 119.722 25.5426 118.864 25.4038 116.981Z" fill="#E3D8C1"/>
</g>
<path d="M11.1055 88.5775C11.1055 88.5775 9.21753 86.5289 0 85.8091C0 80.7429 0.138818 73.8496 2.60978 69.1987C6.94091 60.8935 12.5492 60.8935 12.5492 60.8935C13.632 53.9171 22.905 54.6092 22.905 54.6092L22.7107 58.9279C15.8808 59.5923 20.4618 61.8624 25.487 72.5761C30.5123 83.2898 27.7359 112.33 27.4027 116.871C27.0696 121.411 17.6854 119.971 12.9934 119.445C8.30133 118.919 10.8834 108.372 10.8556 105.88C10.8556 97.5748 10.8556 88.7713 10.8556 88.7713C10.8556 88.7713 10.8556 86.4735 11.1055 88.5775Z" fill="#E3D8C1"/>
<path d="M27.7637 63.0251H27.5971C27.3032 63.0347 27.0127 63.0908 26.7365 63.1912V58.1251C27.1547 57.9988 27.5295 57.7592 27.8192 57.433C28.1524 57.433 28.4856 55.329 28.7354 55.1629C28.9853 54.9968 30.5956 55.8827 31.5118 56.1595C31.5364 57.0866 31.6199 58.0113 31.7617 58.9279C31.9283 58.9279 33.0943 59.7307 33.2887 59.8138C32.1781 60.5889 31.2619 61.6686 31.6229 62.7483H31.0953C30.5994 62.3875 29.9896 62.2169 29.3778 62.2677C28.766 62.3186 28.193 62.5874 27.7637 63.0251V63.0251Z" fill="#F7B799"/>
<path d="M20.4896 62.776C20.906 61.6686 20.4896 60.8658 19.4346 60.0076C19.4346 59.4539 20.212 58.4019 20.2675 58.2081C20.7272 57.2463 20.9825 56.2001 21.0171 55.1352C21.4058 55.412 22.794 56.9623 23.377 56.9623C23.6384 57.1544 23.9438 57.2781 24.2654 57.3222C24.5153 57.6544 24.904 55.3843 25.3205 55.5228V62.7206L20.4896 62.776Z" fill="#F7B799"/>
<g style="mix-blend-mode:multiply" opacity="0.3">
<path d="M30.0958 78.6666C31.0539 76.9805 32.2404 75.4341 33.6218 74.071C34.8989 72.6315 36.1205 71.1642 37.2588 69.6416C38.3972 68.2208 39.229 66.5809 39.702 64.8246C40.0646 63.5453 40.2513 62.2228 40.2573 60.8935V60.8935C41.1267 60.9297 41.9866 61.0881 42.8116 61.3641C42.6084 62.7845 42.2452 64.1775 41.7288 65.5167C40.9575 67.4127 39.8262 69.1423 38.3972 70.6105C37.0367 72.0224 35.6208 73.3789 34.1493 74.597C32.61 75.7534 31.2449 77.1238 30.0958 78.6666V78.6666Z" fill="#E3D8C1"/>
</g>
<g style="mix-blend-mode:multiply" opacity="0.3">
<path d="M22.9328 78.6666C21.9833 76.9822 20.8062 75.4359 19.4346 74.071C18.1574 72.6315 16.9358 71.1642 15.7975 69.6416C14.6641 68.2136 13.8244 66.5767 13.3266 64.8246C12.9771 63.5426 12.7906 62.2219 12.7713 60.8935V60.8935C11.9019 60.9297 11.042 61.0881 10.217 61.3641C10.4202 62.7845 10.7834 64.1775 11.2998 65.5167C12.0609 67.418 13.1934 69.1495 14.6315 70.6105C15.9919 72.0224 17.4078 73.3789 18.8793 74.597C20.4186 75.7534 21.7837 77.1238 22.9328 78.6666Z" fill="#E3D8C1"/>
</g>
<path d="M20.4896 57.6544C20.7014 56.9739 20.8684 56.2804 20.9894 55.5781C21.0304 54.9883 21.0304 54.3963 20.9894 53.8064L25.9313 54.9137H30.0126V55.3567H31.2619C31.2619 55.3567 31.2619 56.0764 31.2619 56.2426C29.3229 56.7907 27.3464 57.1978 25.3483 57.4607C24.0711 57.8482 20.4896 57.6544 20.4896 57.6544Z" fill="#F0A581"/>
<path d="M43.4779 133.426C43.4779 133.426 38.8136 152.002 35.1488 163.712C31.484 175.422 28.3189 181.789 28.0135 187.797C27.8192 191.174 26.1256 204.933 19.9065 203.494C14.7425 202.303 18.3518 195.798 20.2952 186.274C24.7096 164.487 33.6495 136.886 35.121 129.162C37.2033 118.089 41.8953 113.576 41.9786 115.791C42.0619 118.006 43.4779 133.426 43.4779 133.426Z" fill="#F0A581"/>
<path d="M8.66232 121.632C4.47 125.286 5.55279 137.246 18.9626 134.561C32.3725 131.875 42.7006 119.473 42.7006 119.473C38.7411 129.351 37.9173 140.202 40.3406 150.562C42.7919 159.694 43.3119 169.235 41.8676 178.578C41.8676 182.925 40.2851 188.877 45.7546 188.904C50.8075 188.904 50.7243 183.367 50.6687 166.453C50.6687 148.541 57.9428 104.994 50.2245 100.537C47.4481 98.9036 44.0054 101.423 38.9802 103.471C27.9899 107.919 17.7614 114.046 8.66232 121.632V121.632Z" fill="#F0A581"/>
<path d="M42.0619 115.791C42.0619 113.742 34.0937 116.483 31.2896 125.674C24.543 125.425 -0.888487 125.148 6.74652 137.052C12.8823 146.631 23.1826 142.229 28.9574 138.686C27.1806 148.679 24.7929 163.075 22.2109 176.502C23.0648 175.851 24.1066 175.491 25.1816 175.478C26.2316 175.528 27.2457 175.875 28.1058 176.478C28.9659 177.081 29.6367 177.915 30.0402 178.883C31.3729 174.869 33.2053 170.107 35.1765 163.712C38.758 152.002 43.5056 133.426 43.5056 133.426C43.5056 133.426 42.1174 118.033 42.0619 115.791Z" fill="#343D63"/>
<path d="M42.0619 115.791C42.0619 113.742 34.0937 116.483 31.2896 125.674C24.543 125.425 -0.888487 125.148 6.74652 137.052C12.8823 146.631 23.1826 142.229 28.9574 138.686C27.1806 148.679 24.7929 163.075 22.2109 176.502C23.0648 175.851 24.1066 175.491 25.1816 175.478C26.2316 175.528 27.2457 175.875 28.1058 176.478C28.9659 177.081 29.6367 177.915 30.0402 178.883C31.3729 174.869 33.2053 170.107 35.1765 163.712C38.758 152.002 43.5056 133.426 43.5056 133.426C43.5056 133.426 42.1174 118.033 42.0619 115.791Z" fill="#9E193E"/>
<path d="M5.55271 120.552C18.907 112.663 42.4506 96.0798 50.1689 100.537C56.971 104.44 52.0846 138.63 50.863 158.978C50.4853 158.134 49.8808 157.41 49.1164 156.888C48.352 156.365 47.4575 156.063 46.5319 156.016C45.5175 156.075 44.5434 156.432 43.733 157.043C42.9225 157.654 42.3119 158.491 41.9786 159.449C41.6177 156.846 41.0624 153.912 40.285 150.562C37.8617 140.202 38.6855 129.351 42.6449 119.473C42.6449 119.473 30.7899 138.409 17.2967 141.177C3.8036 143.945 0.832885 123.376 5.55271 120.552Z" fill="#C71D4E"/>
<path d="M27.1806 194.22C27.1806 194.22 25.0428 200.587 21.2115 199.756C17.3801 198.926 19.157 191.23 19.157 191.23C19.157 191.23 13.2988 206.456 18.7405 207.84C25.6259 209.695 27.1806 194.22 27.1806 194.22Z" fill="#343D63"/>
<path d="M50.391 179.049C50.391 179.049 49.5304 185.721 45.6157 185.748C41.701 185.776 41.9786 177.775 41.9786 177.775C41.9786 177.775 39.2023 193.832 44.755 194.137C51.8347 194.552 50.391 179.049 50.391 179.049Z" fill="#343D63"/>
<path d="M78.2102 84.7017C78.5825 84.2271 79.0113 83.7994 79.4873 83.4282C79.5746 83.8497 79.7593 84.2451 80.0266 84.583C80.294 84.9208 80.6367 85.1919 81.0274 85.3746C81.4182 85.5574 81.8463 85.6468 82.2778 85.6357C82.7093 85.6246 83.1322 85.5133 83.513 85.3108C83.5564 85.6381 83.7256 85.9359 83.985 86.1413C84.4848 86.5842 85.0678 86.1413 85.7619 85.6153V87.4701L85.2344 87.8854C84.457 88.5221 82.93 89.5464 82.458 89.8509C81.5696 90.4046 80.9033 90.7922 80.2925 91.0967C80.5146 89.5187 77.4883 85.8091 78.2102 84.7017Z" fill="#F0A581"/>
<path d="M9.68956 111.002C9.68956 111.002 25.7925 105.908 30.4012 105.714C30.4012 105.714 11.2166 117.203 8.80112 118.698C6.38568 120.193 6.46897 115.237 6.46897 115.237L9.68956 111.002Z" fill="#F0A581"/>
<path d="M38.5082 40.5734C39.0416 38.0543 39.0416 35.4518 38.5082 32.9326C37.8382 30.5713 36.3614 28.5178 34.3334 27.1275C32.3054 25.7373 29.8537 25.0977 27.4027 25.3195C20.5728 25.6517 38.5082 40.5734 38.5082 40.5734Z" fill="#17050A"/>
<path d="M36.648 34.1507C34.5935 29.0015 30.7344 24.0461 23.2659 25.6794C20.2188 26.3082 17.5156 28.0459 15.6833 30.5537C13.8509 33.0614 13.0207 36.1597 13.3543 39.2446C13.7506 41.9774 14.6245 44.6197 15.9363 47.0515C16.4083 47.8543 20.7117 50.8442 20.4618 49.0447C20.4199 48.8439 20.4199 48.6365 20.4618 48.4357C21.4891 44.8921 36.648 34.1507 36.648 34.1507Z" fill="#17050A"/>
<path d="M19.9621 47.6882C20.7295 49.8548 22.232 51.686 24.2099 52.8651C26.8637 54.5256 29.7993 55.6889 32.8722 56.2979C34.1493 56.1041 35.2321 56.2979 36.6758 52.7267C38.1195 49.1555 39.4522 47.3837 38.9524 44.0062C38.4527 40.6288 38.7858 33.5694 34.2048 31.6869C32.31 31.1067 30.2816 31.1251 28.3978 31.7397C26.5139 32.3543 24.8668 33.5349 23.6824 35.1197C21.4335 38.248 21.5446 39.2723 21.267 43.7294C21.267 43.7294 18.4906 40.961 17.6854 41.1271C16.8803 41.2932 16.1029 41.8192 16.9081 43.5633C17.7132 45.3074 18.1019 44.9475 18.2962 45.8887C18.4906 46.83 18.7405 47.7436 19.268 47.9927C19.7955 48.2419 19.9621 47.6882 19.9621 47.6882Z" fill="#F7B799"/>
<path d="M31.8449 30.9671C29.1284 32.2757 26.7671 34.2163 24.96 36.6252C23.1529 39.0342 21.953 41.841 21.4613 44.8091L16.6582 36.8084L22.4053 30.1642L31.8449 30.9671Z" fill="#17050A"/>
<path d="M30.54 31.6315C33.8522 32.6046 36.7688 34.6016 38.8691 37.3344C38.8691 37.3344 37.4254 29.6106 32.3724 27.0636L30.54 31.6315Z" fill="#17050A"/>
<path d="M130.128 154.77H87.289C86.0623 154.77 85.0679 155.761 85.0679 156.985V158.867C85.0679 160.09 86.0623 161.082 87.289 161.082H130.128C131.355 161.082 132.349 160.09 132.349 158.867V156.985C132.349 155.761 131.355 154.77 130.128 154.77Z" fill="#48423B"/>
<path d="M130.128 159.365H87.289C86.9973 159.365 86.7085 159.308 86.439 159.197C86.1695 159.086 85.9247 158.922 85.7184 158.717C85.5122 158.511 85.3486 158.267 85.2369 157.998C85.1253 157.73 85.0679 157.442 85.0679 157.151V158.867C85.0679 159.158 85.1253 159.446 85.2369 159.715C85.3486 159.983 85.5122 160.228 85.7184 160.433C85.9247 160.639 86.1695 160.802 86.439 160.913C86.7085 161.025 86.9973 161.082 87.289 161.082H130.128C130.717 161.082 131.282 160.849 131.699 160.433C132.115 160.018 132.349 159.455 132.349 158.867V157.151C132.349 157.738 132.115 158.301 131.699 158.717C131.282 159.132 130.717 159.365 130.128 159.365V159.365Z" fill="#31261A"/>
<path d="M32.9832 240.258H12.8268C12.1049 240.258 11.4941 239.511 11.272 238.459C11.2433 238.725 11.2433 238.995 11.272 239.261C11.272 240.701 11.9939 241.864 12.9101 241.864H33.0665C33.9827 241.864 34.7045 240.701 34.7045 239.261C34.7332 238.995 34.7332 238.725 34.7045 238.459C34.3436 239.511 33.705 240.258 32.9832 240.258Z" fill="#31261A"/>
<path d="M247.874 99.2358C254.898 110.531 253.427 123.515 251.816 131.848C250.622 138.436 249.04 157.787 246.513 167.255C243.987 176.723 252.372 189.403 250.9 197.708C249.429 206.013 243.654 222.042 244.875 225.89C246.097 229.738 249.651 235.441 245.93 237.545C243.825 238.685 241.803 239.971 239.878 241.393C237.685 243.623 234.835 245.098 231.743 245.601C223.803 246.958 220.11 245.13 219.749 242.999C219.277 240.23 222.331 240.618 225.302 238.735C227.686 237.386 229.928 235.8 231.993 234.002C234.769 231.233 236.796 231.233 235.325 219.357C233.853 207.48 230.438 196.102 230.799 188.572C230.916 184.098 230.628 179.623 229.939 175.201C229.939 171.131 225.996 147.517 225.746 140.457C223.743 146.937 220.736 153.065 216.834 158.618C211.281 165.899 210.393 168.197 212.559 170.024C217.481 175.205 220.748 181.729 221.943 188.766C223.664 198.4 224.164 202.829 226.774 205.376C229.383 207.923 233.215 211.245 230.438 214.706C227.662 218.166 224.663 218.222 223.47 220.243C222.276 222.263 220.027 231.842 214.252 231.953C208.477 232.064 206.423 230.818 206.728 229.184C207.034 227.551 210.421 227.856 212.281 226.029C214.795 221.272 216.253 216.032 216.556 210.664C213.728 203.484 209.886 196.744 205.146 190.648C198.982 182.592 198.76 179.381 196.817 177C194.873 174.619 192.208 171.879 193.79 166.646C195.373 161.414 197.4 156.403 199.343 149.122C201.286 141.841 202.286 135.28 206.506 129.19C210.726 123.099 214.197 117.812 214.419 114.407C214.641 111.002 214.696 109.673 214.696 109.673L247.874 99.2358Z" fill="#F7B799"/>
<path opacity="0.5" d="M205.035 166.729C204.396 165.013 215.89 146.077 216.612 137.883C216.288 137.606 215.991 137.3 215.724 136.969C215.446 136.665 215.196 136.305 214.946 135.972L214.613 135.419C214.501 135.24 214.399 135.055 214.308 134.865C214.204 134.667 214.111 134.464 214.03 134.256L213.78 133.647C213.78 133.232 213.502 132.789 213.391 132.346C213.28 131.903 213.391 131.875 213.391 131.654C213.405 131.543 213.405 131.432 213.391 131.322V131.322C213.391 131.322 213.391 131.155 213.391 131.072C213.404 130.981 213.404 130.887 213.391 130.796V130.796C213.405 130.695 213.405 130.592 213.391 130.491V129.716C213.376 129.615 213.376 129.512 213.391 129.411V128.968C213.376 128.895 213.376 128.82 213.391 128.747C213.378 128.637 213.378 128.525 213.391 128.415C213.391 128.415 213.391 128.221 213.391 128.138C213.391 128.138 213.391 127.972 213.391 127.889C213.391 127.889 213.391 127.723 213.391 127.612C213.391 127.612 213.391 127.39 213.391 127.307V126.864V126.615V126.311C213.391 126.311 213.391 126.145 213.391 126.062C213.391 125.979 213.391 126.062 213.391 126.062V125.84C213.391 125.84 213.391 125.619 213.391 125.508V125.231V124.982C213.391 124.982 213.391 124.788 213.391 124.677V124.373V124.151V123.902L213.558 123.625V123.404V123.21L213.725 122.933C213.712 122.869 213.712 122.803 213.725 122.74V122.74L213.863 122.546L214.058 122.269L214.224 122.02V121.854L214.419 121.632L214.641 121.383L214.807 121.217L214.974 121.023L215.224 120.774L215.418 120.58L215.585 120.414L215.835 120.193L216.057 120.026H216.251L216.501 119.86L216.779 119.667L216.973 119.528L220.443 116.261C222.076 115.253 223.9 114.593 225.802 114.324C229.735 113.994 233.661 115.044 236.9 117.293C240.139 119.543 242.489 122.85 243.543 126.643V126.643C243.556 126.735 243.556 126.828 243.543 126.92V126.92V127.335C243.849 128.889 243.785 130.492 243.356 132.017C242.927 133.541 242.144 134.943 241.072 136.111C241.084 136.175 241.084 136.241 241.072 136.305C241.738 140.208 237.018 144.084 230.522 144.97C228.964 145.163 227.388 145.163 225.83 144.97C225.635 143.032 225.496 141.399 225.441 140.236C225.441 140.236 225.441 140.706 225.024 141.537C223.18 147.612 220.418 153.372 216.834 158.618C211.281 165.899 210.393 168.197 212.558 170.024C217.481 175.205 220.748 181.729 221.943 188.766C223.664 198.4 224.164 202.829 226.773 205.376C229.383 207.923 233.215 211.245 230.438 214.706C227.662 218.166 224.663 218.222 223.47 220.243C222.276 222.263 220.027 231.842 214.252 231.953C208.477 232.064 206.423 230.818 206.728 229.184C214.308 230.181 219.138 228.908 219.833 223.952C220.527 218.997 225.913 214.346 227.218 212.38C228.523 210.415 223.359 204.463 221.026 195.964C218.694 187.465 205.673 168.418 205.035 166.729Z" fill="#F0A581"/>
<path opacity="0.5" d="M219.749 242.916C219.638 242.525 219.656 242.11 219.802 241.73C219.947 241.351 220.211 241.029 220.554 240.812C223.109 244.771 232.132 244.826 234.436 240.812C237.213 235.995 245.875 237.6 242.432 232.894C238.989 228.188 246.125 198.594 244.209 190.233C242.293 181.873 241.544 157.787 240.905 152.251C240.267 146.714 240.655 123.708 241.821 121.494C242.987 119.279 250.595 110.254 250.428 104.219C250.428 104.219 253.204 114.047 252.899 116.815C253.377 121.842 253.011 126.913 251.816 131.82C250.622 138.409 249.04 157.76 246.513 167.228C243.987 176.696 252.372 189.375 250.9 197.68C249.429 205.985 243.654 222.014 244.875 225.862C246.097 229.71 249.651 235.413 245.93 237.517C243.825 238.657 241.802 239.943 239.878 241.365C237.685 243.596 234.835 245.07 231.743 245.573C223.803 246.875 220.11 245.047 219.749 242.916Z" fill="#F0A581"/>
<path d="M256.953 95.9137C257.425 88.5775 258.202 80.2723 261.256 77.5039L256.203 72.7145C254.93 76.4468 252.642 79.7533 249.595 82.2655C244.514 86.4458 246.014 96.2736 249.012 101.644C249.984 103.388 249.484 103.776 250.206 106.461C247.43 108.372 245.597 110.946 242.46 111.638C238.851 112.413 235.269 113.272 231.604 113.825C227.94 114.379 223.803 114.85 219.888 115.154C217.062 115.386 214.219 114.999 211.559 114.019C211.452 109.316 212.175 104.63 213.697 100.177C217.278 93.3114 214.891 91.2351 216.085 86.4735C217.537 80.6243 218.466 74.658 218.861 68.645C218.555 66.4856 213.78 62.9144 211.975 58.7618C210.171 54.6092 210.171 47.6882 212.281 45.9441C214.391 44.2 221.943 43.0096 224.053 39.4384C226.163 35.8671 225.135 31.4654 224.525 27.6173C223.914 23.7692 239.462 24.1845 239.462 24.1845C240.655 30.7456 246.625 36.1163 254.398 38.4971C262.172 40.8779 262.727 47.1345 267.253 58.4573C271.778 69.78 270.029 73.9603 272.334 78.722C274.638 83.4836 270.557 90.9306 266.087 100.454C264.751 103.141 263.601 105.916 262.644 108.759C261.561 112.22 259.868 115.68 258.452 120.885C257.064 126.698 253.371 113.964 253.371 113.964C253.371 113.964 253.677 112.137 254.565 108.925C255.889 104.701 256.691 100.332 256.953 95.9137Z" fill="#F7B799"/>
<path opacity="0.5" d="M228.884 49.8199L228.578 51.3702C228.384 52.3668 228.078 53.751 227.884 55.4951C227.884 56.3533 227.69 57.2945 227.69 58.2635C227.627 59.354 227.739 60.4475 228.023 61.5025C228.18 62.1438 228.479 62.7423 228.896 63.2545C229.314 63.7668 229.841 64.1802 230.438 64.4647C231.492 64.9671 232.577 65.4018 233.687 65.7659C235.879 66.5159 238.172 66.9358 240.489 67.0116C241.571 67.0379 242.652 66.9357 243.709 66.7071C244.189 66.5847 244.662 66.4369 245.125 66.2642C245.563 66.0974 245.989 65.9032 246.402 65.6828C247.653 64.9972 248.786 64.1189 249.762 63.0805C250.113 62.6971 250.438 62.2901 250.734 61.8624C250.369 62.2306 249.98 62.5728 249.568 62.8867C248.507 63.742 247.329 64.4412 246.069 64.963C245.248 65.3303 244.379 65.5818 243.487 65.7105C242.508 65.7955 241.523 65.7955 240.544 65.7105C238.357 65.5328 236.202 65.0769 234.131 64.354C233.06 64.0273 232.012 63.6296 230.994 63.1636C230.589 62.9492 230.232 62.6544 229.945 62.2973C229.659 61.9402 229.449 61.5284 229.328 61.0873C228.847 59.2831 228.66 57.4138 228.773 55.5505C228.773 53.834 228.773 52.3945 228.939 51.3979C229.106 50.4012 228.884 49.8199 228.884 49.8199Z" fill="#F0A581"/>
<path d="M241.155 64.2986C241.155 64.5201 241.821 64.7969 242.682 64.9077C243.543 65.0184 244.292 64.9077 244.32 64.6585C244.348 64.4093 243.682 64.1602 242.793 64.0495C241.905 63.9387 241.183 64.0495 241.155 64.2986Z" fill="#F0A581"/>
<path d="M219.333 65.1291C219.333 65.3506 220.082 65.489 220.971 65.4336C221.859 65.3783 222.526 65.1291 222.526 64.88C222.526 64.6308 221.776 64.5201 220.888 64.5754C219.999 64.6308 219.333 64.88 219.333 65.1291Z" fill="#F0A581"/>
<path opacity="0.5" d="M228.19 61.6409C228.202 61.7976 228.202 61.9549 228.19 62.1116C228.142 62.2803 228.087 62.4467 228.023 62.6099C227.923 62.8066 227.802 62.9922 227.662 63.1635C227.312 63.6007 226.889 63.9752 226.413 64.2709C226.159 64.4596 225.89 64.6263 225.607 64.7692C225.32 64.9334 225.023 65.0813 224.719 65.2122C224.108 65.5167 223.47 65.7382 222.859 65.9873L221.165 66.5964L219.944 67.0393L219.333 67.2608C219.942 67.3166 220.556 67.3166 221.165 67.2608C221.791 67.2251 222.413 67.1418 223.025 67.0116C223.743 66.8564 224.441 66.6243 225.108 66.3195C225.787 65.9957 226.421 65.5863 226.996 65.1014C227.257 64.8611 227.49 64.5917 227.69 64.2986C227.888 64.0472 228.048 63.7672 228.162 63.4681C228.262 63.2104 228.328 62.9403 228.356 62.6652C228.387 62.4634 228.387 62.258 228.356 62.0562C228.319 61.9112 228.263 61.7716 228.19 61.6409V61.6409Z" fill="#F0A581"/>
<path opacity="0.5" d="M228.606 65.9596C227.973 67.3489 227.507 68.8078 227.218 70.306C227.042 71.0596 226.949 71.8301 226.94 72.6038C226.923 73.4155 227.016 74.2258 227.218 75.0123V74.7355C226.774 76.092 226.329 77.5039 225.996 78.8604C225.648 80.2374 225.379 81.6331 225.191 83.0407C225.01 84.5116 225.01 85.9992 225.191 87.4701C225.313 88.1366 225.369 88.8136 225.358 89.491C225.341 90.1621 225.257 90.8298 225.108 91.4843C224.748 92.8828 224.507 94.3089 224.386 95.7476C224.36 97.1998 224.434 98.652 224.608 100.094C224.608 101.506 224.608 102.862 224.83 104.33C224.854 105.771 225.059 107.203 225.441 108.593C225.288 107.176 225.288 105.747 225.441 104.33C225.441 102.918 225.441 101.561 225.441 100.039C225.371 98.6461 225.371 97.2509 225.441 95.8584C225.6 94.4689 225.888 93.0973 226.302 91.7611C226.479 91.0266 226.572 90.2743 226.579 89.5187C226.65 88.7729 226.65 88.0221 226.579 87.2763C226.427 85.9241 226.427 84.559 226.579 83.2068C226.935 80.4065 227.473 77.6323 228.19 74.9016V74.7355V74.597C227.716 73.2476 227.536 71.8132 227.662 70.3891C227.852 68.889 228.168 67.4073 228.606 65.9596V65.9596Z" fill="#F0A581"/>
<path opacity="0.5" d="M235.158 88.0515C234.894 87.7331 234.562 87.4778 234.186 87.304C233.785 87.0864 233.338 86.9633 232.882 86.9441C232.405 86.9186 231.928 86.9653 231.466 87.0825H230.855H230.244L229.133 87.2763H228.328C228.219 87.3057 228.104 87.3057 227.995 87.2763C228.041 87.3877 228.118 87.4837 228.217 87.5531C228.469 87.7373 228.751 87.8777 229.05 87.9684C229.439 88.1279 229.852 88.2214 230.272 88.2452H230.994H231.715L232.937 87.9684H233.992L235.158 88.0515Z" fill="#F0A581"/>
<path opacity="0.5" d="M229.883 73.7665C229.883 73.7665 229.883 73.9049 229.883 74.0987C229.942 74.3806 230.045 74.6514 230.188 74.9016C230.389 75.2455 230.621 75.5699 230.883 75.8705C231.177 76.1866 231.492 76.4826 231.827 76.7564C232.474 77.2603 233.195 77.6618 233.964 77.9468C234.333 78.0772 234.715 78.1699 235.103 78.2237C234.907 77.8923 234.684 77.5774 234.436 77.2824C233.898 76.7002 233.313 76.1632 232.687 75.6767C232.081 75.2019 231.451 74.7583 230.799 74.3479L229.883 73.7665Z" fill="#F0A581"/>
<path opacity="0.5" d="M237.49 82.2101C237.527 82.4858 237.527 82.765 237.49 83.0407C237.508 83.7587 237.385 84.4733 237.129 85.1446C236.879 86.0305 236.491 87.0272 236.241 88.2176C235.991 89.408 235.852 90.543 235.547 91.7334C235.547 92.3148 235.269 92.8962 235.13 93.4775C234.992 94.0589 234.797 94.6126 234.603 95.1386C234.408 95.6646 234.242 96.1629 234.048 96.6612C233.853 97.1595 233.631 97.5748 233.437 97.9623C233.103 98.6286 232.733 99.2755 232.326 99.9002L231.854 100.592L232.548 100.066C233.126 99.5709 233.647 99.0139 234.103 98.4053C235.477 96.5066 236.424 94.3348 236.879 92.038C237.018 91.4289 237.129 90.8199 237.213 90.1831C237.296 89.5464 237.213 88.965 237.435 88.4114C237.435 87.3317 237.796 86.252 237.907 85.3107C238.035 84.5333 237.978 83.7366 237.74 82.9853C237.698 82.7154 237.614 82.4539 237.49 82.2101V82.2101Z" fill="#F0A581"/>
<path opacity="0.5" d="M223.831 74.5417C223.574 74.7845 223.333 75.0434 223.109 75.3168C222.673 75.8907 222.274 76.4918 221.915 77.1163C221.579 77.7489 221.291 78.4059 221.054 79.0819C220.966 79.4121 220.854 79.7358 220.721 80.0508C221.088 79.9621 221.429 79.7917 221.721 79.5525C222.305 79.0534 222.794 78.4532 223.164 77.7807C223.521 77.107 223.756 76.3761 223.858 75.6214C223.909 75.2624 223.9 74.8976 223.831 74.5417V74.5417Z" fill="#F0A581"/>
<path opacity="0.5" d="M219.86 82.2101C219.61 82.7256 219.441 83.2766 219.361 83.8435C219.277 84.4219 219.277 85.0092 219.361 85.5876C219.441 86.2219 219.669 86.8287 220.027 87.3594C220.252 87.625 220.514 87.858 220.804 88.0515C221.097 88.2342 221.415 88.3741 221.748 88.4667V87.1379L220.943 87.2763L220.221 87.5808C219.714 87.8339 219.283 88.2159 218.972 88.6882C218.666 89.1331 218.475 89.6468 218.417 90.1831C218.403 90.4321 218.403 90.6816 218.417 90.9306V91.595C218.417 92.4532 218.417 93.3114 218.417 94.1973L218.222 96.9657C218.628 96.1595 218.953 95.3158 219.194 94.4465C219.449 93.5418 219.616 92.6147 219.694 91.6781V91.0137C219.678 90.8294 219.678 90.6442 219.694 90.46C219.76 90.1238 219.892 89.8039 220.082 89.5187C220.277 89.2418 220.534 89.0142 220.832 88.8543L221.332 88.6328H221.804L225.358 88.1068L222.109 87.1379C221.907 87.1157 221.71 87.0596 221.526 86.9718C221.526 86.9718 221.36 86.9718 221.276 86.8057C221.18 86.7473 221.096 86.6723 221.026 86.5842C220.708 86.249 220.479 85.8398 220.36 85.3938C219.994 84.3734 219.825 83.2933 219.86 82.2101V82.2101Z" fill="#F0A581"/>
<path d="M224.886 100.371C225.552 101.367 226.191 100.675 226.191 100.039C225.979 99.0975 225.7 98.1724 225.358 97.2703C225.219 96.5782 224.358 96.5782 224.664 97.6301C224.969 98.6821 224.164 99.3742 224.886 100.371Z" fill="#F0A581"/>
<path opacity="0.5" d="M249.012 101.672C249.002 101.829 249.002 101.986 249.012 102.143C249.049 102.325 249.049 102.514 249.012 102.696L248.818 103.333C248.633 103.856 248.41 104.365 248.152 104.856C247.846 105.409 247.568 105.991 247.208 106.572C246.847 107.153 246.486 107.707 246.18 108.261C245.875 108.814 245.514 109.313 245.264 109.756C244.947 110.255 244.66 110.773 244.403 111.306C244.926 111.013 245.419 110.67 245.875 110.282C246.866 109.41 247.718 108.392 248.401 107.264C248.589 106.962 248.756 106.648 248.901 106.323C249.055 106 249.185 105.667 249.29 105.326C249.399 105.011 249.483 104.686 249.54 104.357C249.54 104.053 249.54 103.721 249.54 103.444C249.556 103.186 249.556 102.927 249.54 102.669C249.575 102.486 249.575 102.298 249.54 102.115L249.012 101.672Z" fill="#F0A581"/>
<path opacity="0.5" d="M250.622 52.9482L250.234 53.7787C250.234 54.0555 250.039 54.4154 249.928 54.803C249.831 55.2592 249.766 55.7218 249.734 56.1872C249.734 56.7132 249.734 57.2669 249.734 57.8482C249.77 58.4613 249.844 59.0715 249.956 59.6754C250.188 60.973 250.522 62.2504 250.956 63.4958C251.397 64.7318 251.907 65.9425 252.483 67.1224C252.987 68.1429 253.552 69.1321 254.176 70.0846C254.763 71.0686 255.442 71.9955 256.203 72.853L255.814 72.0224C255.564 71.4964 255.259 70.7213 254.87 69.8077C254.482 68.8941 254.065 67.8698 253.593 66.7071C253.121 65.5444 252.677 64.3816 252.261 63.1359C252.038 62.5268 251.844 61.9178 251.677 61.3087C251.511 60.6997 251.289 60.1183 251.15 59.5093C251.011 58.9002 250.872 58.3742 250.761 57.8205C250.65 57.2669 250.761 56.7685 250.511 56.2979C250.262 55.8273 250.511 55.3567 250.511 54.9968C250.511 54.6369 250.511 54.2493 250.511 53.9725C250.511 53.6956 250.622 52.9482 250.622 52.9482Z" fill="#F0A581"/>
<path d="M215.64 135.114C216.362 139.765 222.526 142.672 229.522 141.62C236.519 140.568 241.433 136.083 240.628 131.294C239.822 126.505 233.714 123.708 226.746 124.788C219.777 125.868 214.918 130.463 215.64 135.114Z" fill="#31261A"/>
<path d="M210.782 125.508C212.142 134.45 220.194 138.519 229.161 137.135C238.129 135.751 244.598 129.494 243.21 120.525C241.821 111.555 233.215 103.416 224.191 104.8C215.168 106.184 209.393 116.594 210.782 125.508Z" fill="#48423B"/>
<path opacity="0.5" d="M218.472 107.098C216.469 109.196 214.962 111.715 214.064 114.469C213.165 117.224 212.898 120.145 213.28 123.016C214.585 131.46 221.97 135.336 230.161 134.09C238.351 132.844 243.709 127.418 243.015 119.5C243.015 119.86 243.015 120.22 243.21 120.552C244.598 129.494 238.129 135.779 229.161 137.163C220.194 138.547 212.142 134.394 210.782 125.536C210.292 122.057 210.747 118.512 212.1 115.269C213.453 112.026 215.653 109.204 218.472 107.098V107.098Z" fill="#31261A"/>
<path d="M216.14 86.4735C217.528 89.6848 217.223 96.938 216.89 101.672C216.637 105.412 217.08 109.166 218.195 112.746C218.667 113.576 222.387 113.438 224.552 116.455C226.718 119.473 230.438 119.584 229.883 120.442C229.328 121.3 224.969 120.11 223.025 119.362C221.082 118.615 225.996 124.899 227.745 126.145C229.494 127.39 225.941 128.166 222.193 128.387C218.444 128.609 216.862 128.885 215.307 127.114C213.752 125.342 213.364 120.968 211.975 119.445C210.587 117.923 211.032 113.078 211.254 111.306C211.476 109.534 206.756 103.222 205.618 96.8827C204.479 90.543 208.394 82.2101 208.394 78.2513C208.394 74.2925 209.865 68.0359 208.394 62.8867C206.922 57.7375 206.506 47.1622 215.085 44.5599C215.085 44.5599 218.972 65.4613 218.778 69.2817C218.583 73.1021 216.14 86.4735 216.14 86.4735Z" fill="#F7B799"/>
<path d="M257.202 101.672C256.12 106.074 254.426 113.77 253.343 114.074C251.949 114.335 250.707 115.117 249.873 116.261C247.957 118.393 245.153 118.559 245.209 119.03C245.375 120.193 247.985 120.026 249.179 119.584C250.059 119.205 250.904 118.751 251.705 118.227C251.776 119.156 251.896 120.08 252.066 120.995C251.842 122.212 251.317 123.354 250.539 124.318C249.439 124.833 248.228 125.071 247.013 125.01C245.708 125.01 245.209 125.979 246.486 126.505C247.004 126.775 247.57 126.944 248.152 127.003C247.72 127.351 247.244 127.64 246.736 127.861C245.625 128.359 244.209 128.802 244.237 129.301C244.265 129.799 246.597 130.408 246.597 130.408C246.597 130.408 245.347 131.681 246.402 131.848C248.26 131.55 250.06 130.962 251.733 130.103C253.33 129.088 254.851 127.959 256.286 126.726C257.036 126.172 257.341 124.539 258.424 121.189C259.184 118.124 260.111 115.102 261.2 112.137C262.672 108.87 264.421 103.97 264.421 103.97L257.202 101.672Z" fill="#F7B799"/>
<path opacity="0.5" d="M245.708 34.0123C242.495 31.5992 240.267 28.1084 239.434 24.1845C239.434 24.1845 223.914 23.7415 224.497 27.6727C225.08 31.6038 226.107 35.9779 224.025 39.4937C228.078 43.065 231.271 42.2621 237.629 39.7706C240.695 38.4334 243.447 36.4721 245.708 34.0123V34.0123Z" fill="#F0A581"/>
<path d="M217.362 19.2014C217.048 17.4942 216.908 15.7597 216.945 14.0245C217.225 12.2886 217.935 10.6499 219.011 9.25746C220.088 7.865 221.496 6.76294 223.109 6.05148C227.662 3.78139 233.881 2.34182 238.545 4.47349C243.21 6.60516 243.515 11.699 242.71 16.959C242.633 19.0434 242.122 21.0891 241.211 22.9664L239.933 25.7348C240.205 26.34 240.346 26.9957 240.346 27.6588C240.346 28.322 240.205 28.9777 239.933 29.5829C238.962 31.2162 234.381 37.8881 230.272 39.383C229.702 39.6781 229.072 39.8397 228.43 39.8554C227.788 39.871 227.151 39.7404 226.567 39.4734C225.983 39.2064 225.469 38.8102 225.062 38.3147C224.655 37.8193 224.367 37.2378 224.219 36.6146C222.996 34.6044 221.661 32.6635 220.221 30.801C218.444 27.8388 219.027 25.9009 218.389 22.7726C218.111 21.1393 217.445 19.6997 217.362 19.2014Z" fill="#F7B799"/>
<path d="M238.545 4.47349C233.881 2.34182 227.662 3.78139 223.109 6.05148C221.432 6.7558 219.929 7.81691 218.706 9.1606C217.483 10.5043 216.57 12.0981 216.029 13.8307C218.528 17.042 225.941 14.0245 228.412 12.1973C230.882 10.3702 232.743 11.2284 232.743 13.0278C232.743 16.0177 233.576 15.7962 235.352 17.485C235.95 17.993 236.422 18.6325 236.73 19.353C237.039 20.0735 237.175 20.8555 237.129 21.6376C237.318 21.7286 237.53 21.7615 237.738 21.7319C237.945 21.7023 238.14 21.6116 238.295 21.4715C239.498 20.3103 240.899 19.3727 242.432 18.7031C242.432 18.1494 242.627 17.568 242.71 16.9036C243.515 11.699 243.043 6.5221 238.545 4.47349Z" fill="#251F12"/>
<path d="M216.029 13.8307C215.504 13.2896 215.191 12.5794 215.145 11.8281C215.099 11.0768 215.324 10.3339 215.779 9.73344C215.779 9.73344 214.863 6.46673 219.027 4.80569C219.027 4.80569 218.778 2.95086 222.664 2.5356C222.664 2.5356 222.664 2.23108 224.247 1.17909C225.171 0.573105 226.223 0.187909 227.321 0.0534657C228.419 -0.080978 229.533 0.0389555 230.577 0.403936C231.026 0.30261 231.491 0.292053 231.944 0.372888C232.397 0.453724 232.829 0.624311 233.215 0.874564C234.464 1.64972 238.906 -0.0113239 239.239 2.75708C239.573 5.52548 241.849 4.69496 242.016 6.21758C242.21 7.29725 246.347 7.60178 245.347 10.7024C244.348 13.803 243.126 13.7199 243.543 14.938C243.959 16.1561 244.57 16.9313 242.155 18.4816C239.739 20.0319 234.02 9.34587 234.02 9.34587L216.029 13.8307Z" fill="#251F12"/>
<path d="M239.656 18.8969C238.767 17.8172 236.88 18.3155 235.353 17.5957C235.986 18.2454 236.478 19.0184 236.798 19.8662C237.118 20.7141 237.259 21.6187 237.213 22.5235C237.879 22.828 238.295 21.5822 238.295 21.5822C238.685 21.0544 239.188 20.6194 239.767 20.3087C239.858 20.0806 239.895 19.8347 239.876 19.5899C239.857 19.3452 239.781 19.1081 239.656 18.8969V18.8969Z" fill="#1A1A1A"/>
<path d="M238.323 22.5235C238.323 21.7206 238.323 18.4539 240.156 17.4019C241.988 16.3499 243.709 17.7064 243.487 19.9488C243.321 21.2777 242.321 22.2466 242.127 23.3817C241.933 24.5167 241.405 26.1501 239.351 25.7348C238.766 24.7571 238.414 23.6583 238.323 22.5235Z" fill="#F7B799"/>
<path d="M228.578 8.29388C227.412 9.73345 230.633 11.0623 229.328 11.7821C231.271 10.7854 232.604 11.5329 232.715 12.9725V12.7787C234.52 7.68483 229.717 6.82663 228.578 8.29388Z" fill="#251F12"/>
<path d="M232.881 14.855C233.063 15.6906 233.514 16.4439 234.166 16.999C234.818 17.5542 235.635 17.8805 236.491 17.9279L234.769 16.5991L232.993 14.4674L232.881 14.855Z" fill="#251F12"/>
<path d="M238.351 22.1359C238.555 21.0098 238.694 19.8728 238.767 18.7307C238.089 18.76 237.412 18.8247 236.741 18.9245C237.291 22.4896 237.347 26.1133 236.907 29.6936C236.213 32.2959 233.02 34.2892 231.577 35.2304C230.133 36.1717 226.44 36.5039 225.857 35.2304C225.829 35.1773 225.783 35.135 225.728 35.11C225.673 35.085 225.611 35.0787 225.552 35.092H225.135C225.098 35.1014 225.063 35.1184 225.033 35.142C225.002 35.1657 224.977 35.1954 224.959 35.2292C224.94 35.2631 224.929 35.3004 224.926 35.3387C224.923 35.377 224.928 35.4156 224.941 35.4519C225.029 35.6085 225.075 35.7848 225.075 35.964C225.075 36.1433 225.029 36.3196 224.941 36.4762C224.941 36.4762 224.664 36.8084 224.691 36.9745C224.901 37.5197 225.225 38.014 225.642 38.4242C226.058 38.8343 226.558 39.151 227.108 39.3528C227.657 39.5547 228.244 39.6371 228.828 39.5945C229.412 39.552 229.98 39.3855 230.494 39.1062C234.631 37.6389 239.184 30.9394 240.156 29.306C240.617 28.3971 240.707 27.345 240.406 26.3715C239.684 24.5998 238.323 23.5201 238.351 22.1359Z" fill="#1A1A1A"/>
<path d="M224.886 36.6423C224.303 37.1683 224.886 38.2203 225.163 38.5525C225.607 39.0142 226.16 39.3576 226.771 39.551C227.382 39.7445 228.032 39.7819 228.661 39.6598C230.772 39.3553 228.661 37.9711 228.467 37.8881C228.273 37.805 224.886 36.6423 224.886 36.6423Z" fill="#1A1A1A"/>
<path opacity="0.4" d="M214.03 76.6733C214.581 69.9389 214.581 63.1708 214.03 56.4363C214.308 59.8138 215.64 65.9873 218.778 67.0947C218.822 67.8138 218.822 68.5349 218.778 69.254C218.555 73.0744 216.001 86.4735 216.001 86.4735C217.389 89.6848 217.084 96.938 216.751 101.672C216.499 105.412 216.941 109.166 218.056 112.746C214.391 111.278 214.335 95.36 212.503 90.4046C210.671 85.4492 212.975 83.7051 214.03 76.6733Z" fill="#F0A581"/>
</svg>
