<svg width="32" height="32" viewBox="0 0 32 32" fill="none" xmlns="http://www.w3.org/2000/svg">
<path d="M10 26C10 26.5523 9.55228 27 9 27H8.6C8.04771 27 7.6 26.5523 7.6 26V25.5556C7.6 25.0033 7.15228 24.5556 6.6 24.5556H5C4.44772 24.5556 4 24.1078 4 23.5556V23.1111C4 22.5588 4.44772 22.1111 5 22.1111H6.6C7.15228 22.1111 7.6 21.6634 7.6 21.1111V20.6667C7.6 20.1144 8.04772 19.6667 8.6 19.6667H9C9.55229 19.6667 10 20.1144 10 20.6667V26ZM28 23.5556C28 24.1078 27.5523 24.5556 27 24.5556H13.4C12.8477 24.5556 12.4 24.1078 12.4 23.5556V23.1111C12.4 22.5588 12.8477 22.1111 13.4 22.1111H27C27.5523 22.1111 28 22.5588 28 23.1111V23.5556ZM22 18.6667C22 19.219 21.5523 19.6667 21 19.6667H20.6C20.0477 19.6667 19.6 19.219 19.6 18.6667V18.2222C19.6 17.6699 19.1523 17.2222 18.6 17.2222H5C4.44771 17.2222 4 16.7745 4 16.2222V15.7778C4 15.2255 4.44772 14.7778 5 14.7778H18.6C19.1523 14.7778 19.6 14.3301 19.6 13.7778V13.348C19.6 12.7957 20.0477 12.348 20.6 12.348H21C21.5523 12.348 22 12.7957 22 13.348V18.6667ZM28 16.2222C28 16.7745 27.5523 17.2222 27 17.2222H25.4C24.8477 17.2222 24.4 16.7745 24.4 16.2222V15.7778C24.4 15.2255 24.8477 14.7778 25.4 14.7778H27C27.5523 14.7778 28 15.2255 28 15.7778V16.2222ZM14.8 11.3333C14.8 11.8856 14.3523 12.3333 13.8 12.3333H13.4C12.8477 12.3333 12.4 11.8856 12.4 11.3333V10.8889C12.4 10.3366 11.9523 9.88889 11.4 9.88889H5C4.44772 9.88889 4 9.44117 4 8.88889V8.44445C4 7.89216 4.44772 7.44444 5 7.44444H11.4C11.9523 7.44444 12.4 6.99673 12.4 6.44444V6C12.4 5.44772 12.8477 5 13.4 5H13.8C14.3523 5 14.8 5.44772 14.8 6V11.3333ZM28 8.88889C28 9.44117 27.5523 9.88889 27 9.88889H18.2C17.6477 9.88889 17.2 9.44117 17.2 8.88889V8.44445C17.2 7.89216 17.6477 7.44444 18.2 7.44444H27C27.5523 7.44444 28 7.89216 28 8.44444V8.88889Z" fill="white"/>
</svg>
