<svg width="68" height="68" viewBox="0 0 68 68" fill="none" xmlns="http://www.w3.org/2000/svg">
<path d="M25.4335 10.8397C24.8235 10.2424 24.0473 9.91658 23.1324 9.91658C21.3027 9.91658 19.8333 11.3285 19.8333 13.1204C19.8333 14.0164 20.2215 14.831 20.8591 15.4555L40.2655 34.0271L20.8591 52.5444C20.2214 53.1688 19.8333 54.0105 19.8333 54.8794C19.8333 56.6714 21.3027 58.0832 23.1324 58.0832C24.0473 58.0832 24.8235 57.7574 25.4335 57.1601L47.0023 36.525C47.7785 35.8191 48.1389 34.9502 48.1667 33.9999C48.1667 33.0496 47.7785 32.2351 47.0023 31.502L25.4335 10.8397Z" fill="#F59732"/>
</svg>
