<svg width="41" height="41" viewBox="0 0 41 41" fill="none" xmlns="http://www.w3.org/2000/svg">
<path d="M33 18.609C32.974 18.6362 32.9778 18.6706 32.9778 18.7036C32.9876 19.1458 32.8083 19.5239 32.5697 19.8787C32.3945 20.1392 32.1676 20.3515 31.918 20.5408C31.8001 20.6297 31.7845 20.6805 31.8584 20.8046C31.9393 20.9457 32.0071 21.094 32.061 21.2475C32.1278 21.4283 32.1825 21.6125 32.1859 21.8069C32.1899 22.0365 32.1917 22.2665 32.1859 22.4965C32.1804 22.6556 32.1516 22.813 32.1004 22.9637C31.9748 23.3507 31.7673 23.7061 31.492 24.0058C31.2167 24.3055 30.88 24.5425 30.5048 24.7005C30.1188 24.8625 29.7015 24.9094 29.2879 24.9114C27.5819 24.9205 25.8759 24.9152 24.1696 24.9154C24.1215 24.9139 24.0732 24.9149 24.0252 24.9185C23.9435 24.9277 23.8989 24.9777 23.9161 25.0547C23.9421 25.1701 23.9495 25.2887 23.9858 25.4024C24.0215 25.5187 24.0478 25.6377 24.0643 25.7583C24.0923 25.9707 24.1311 26.1816 24.1806 26.39C24.2422 26.6309 24.2669 26.877 24.3032 27.121C24.3304 27.3039 24.3791 27.4823 24.3978 27.6667C24.4139 27.8242 24.4511 27.9797 24.4617 28.1376C24.4782 28.3812 24.5003 28.6245 24.5403 28.8641C24.5866 29.1422 24.5982 29.4231 24.6125 29.7012C24.6378 30.1964 24.6198 30.694 24.6194 31.1916C24.6217 31.2361 24.62 31.2808 24.6142 31.3251C24.5621 31.608 24.5359 31.8952 24.4691 32.1759C24.3685 32.5986 24.2184 32.9965 23.9268 33.328C23.6082 33.6886 23.2057 33.8972 22.7319 33.9751C22.6676 33.9855 22.5983 33.9564 22.5382 34H21.8703C21.8363 33.9675 21.7935 33.9815 21.7539 33.9778C21.6401 33.9669 21.5259 33.9586 21.42 33.9132C20.7712 33.6374 20.3133 33.1654 20.031 32.5294C19.8903 32.2122 19.7761 31.8823 19.6561 31.5557C19.5341 31.2221 19.3987 30.8951 19.2727 30.5634C19.0665 30.0206 18.8631 29.4765 18.6493 28.9366C18.4654 28.4733 18.321 27.9939 18.0496 27.567C17.9006 27.3332 17.7613 27.0923 17.597 26.8696C17.298 26.4648 16.9611 26.0911 16.6174 25.7227C16.4048 25.4951 16.1764 25.2836 15.9571 25.0627C15.9216 25.0247 15.8826 24.9903 15.8404 24.9599C15.6496 24.8298 15.5018 24.6516 15.325 24.5048C15.0205 24.2521 14.7288 23.9827 14.4163 23.7405C13.9868 23.4068 13.5458 23.0889 13.1052 22.7704C12.9729 22.6698 12.8105 22.6168 12.6443 22.6198C11.0414 22.6258 9.43982 22.6233 7.83733 22.6233C7.77811 22.6233 7.71867 22.6233 7.65923 22.6222C7.38361 22.6169 7.08529 22.3595 7.02028 22.1435C6.99245 21.8674 7.00136 21.5894 7.00136 21.3118C7.00136 17.7536 7.00136 14.1956 7.00136 10.6376C7.00076 10.4709 7.00886 10.3044 7.02562 10.1386C7.0579 10.0394 7.1267 9.968 7.20195 9.9006C7.38005 9.74177 7.58888 9.67815 7.82375 9.67815C9.48115 9.67815 11.1385 9.67882 12.7957 9.68015C12.9476 9.68084 13.0982 9.65158 13.2388 9.59407C13.5787 9.45659 13.9251 9.33402 14.2738 9.22146C14.7667 9.06219 15.26 8.9027 15.7634 8.77657C16.0864 8.69537 16.4106 8.61952 16.7336 8.53788C16.9204 8.4905 17.1121 8.46848 17.2984 8.42243C17.6007 8.34769 17.9086 8.30409 18.2156 8.26071C18.5227 8.21733 18.8263 8.15393 19.1369 8.12524C19.3373 8.10678 19.5419 8.08075 19.7418 8.0654C20.1247 8.03782 20.5094 8.00356 20.8948 8.02091C21.0706 8.02091 21.2463 8.02091 21.422 8.02091C21.4614 8.02091 21.5034 8.02936 21.5375 7.99867H28.7262C28.7529 8.02647 28.7877 8.02091 28.8204 8.02091C28.992 8.02091 29.157 8.05628 29.3197 8.107C29.4375 8.14393 29.539 8.214 29.6494 8.26605C29.904 8.3872 30.1328 8.55623 30.3233 8.76389C30.5876 9.04951 30.8187 9.3625 30.9389 9.74266C31.0079 9.96088 31.0997 10.1735 31.0754 10.41C31.0739 10.4583 31.0819 10.5065 31.099 10.5517C31.1281 10.648 31.1281 10.7508 31.099 10.8471C31.0842 10.8967 31.0756 10.948 31.0734 10.9997C31.0597 11.2999 30.9776 11.5929 30.8334 11.8566C30.7394 12.0303 30.741 12.0644 30.9075 12.1702C31.0558 12.2604 31.1955 12.3639 31.325 12.4794C31.5626 12.6984 31.7594 12.9578 31.906 13.2456C32.0714 13.5699 32.2026 13.906 32.1883 14.2813C32.1823 14.437 32.1883 14.5927 32.187 14.7484C32.187 14.8298 32.1979 14.9128 32.1785 14.9931C32.1077 15.2843 32.0227 15.5715 31.8704 15.8326C31.7749 15.9972 31.7842 16.0231 31.9332 16.1336C32.1113 16.2671 32.2856 16.4017 32.4212 16.5827C32.4813 16.6628 32.5365 16.7458 32.5937 16.8274C32.8273 17.1611 32.9742 17.5244 32.9782 17.9374C32.9782 17.977 32.9671 18.0197 33.0005 18.0538L33 18.609ZM12.3654 11.4193C12.3712 11.3361 12.3304 11.3096 12.2518 11.3098C11.021 11.3117 9.78994 11.3129 8.55865 11.3131C8.55865 11.3576 8.55665 11.4021 8.55665 11.4466C8.55665 14.5811 8.55665 17.7156 8.55665 20.8502C8.55665 20.9022 8.55865 20.9541 8.55976 21.0059C8.58715 21.0353 8.62277 21.0215 8.65438 21.0217C9.85955 21.0217 11.0647 21.0217 12.2699 21.0217C12.3013 21.0217 12.3367 21.0357 12.3643 21.0059C12.3642 21.0004 12.365 20.9949 12.3667 20.9897C12.3667 20.8896 12.3649 20.7895 12.3649 20.6896V11.5416C12.3654 11.5007 12.3627 11.4597 12.3654 11.4193ZM31.4209 18.0524C31.3492 17.8267 31.2428 17.6207 31.0571 17.4676C30.8548 17.2999 30.6237 17.1922 30.3547 17.1893C30.0729 17.1867 29.791 17.1905 29.5087 17.1873C29.157 17.1836 28.8883 17.0316 28.7663 16.698C28.6133 16.2791 28.7832 15.9029 29.1634 15.7192C29.3309 15.6382 29.5197 15.6647 29.6944 15.6251C30.0729 15.5392 30.3512 15.3321 30.5126 14.9726C30.5899 14.8085 30.6242 14.6274 30.6123 14.4463C30.5805 14.0208 30.3795 13.7031 30.0045 13.4951C29.849 13.4107 29.6737 13.3693 29.4967 13.3752C29.1445 13.3793 28.7921 13.3777 28.4397 13.3752C28.2322 13.3737 28.0414 13.3176 27.8775 13.1846C27.4561 12.842 27.5258 12.1518 28.0258 11.9082C28.1521 11.8453 28.2915 11.8133 28.4326 11.815C28.8798 11.8232 29.3367 11.4244 29.45 11.0329C29.6192 10.4485 29.3596 9.89148 28.834 9.64034C28.6621 9.55825 28.4704 9.53067 28.2756 9.53111C27.1665 9.53356 26.0573 9.53111 24.9482 9.53245C23.8838 9.53245 22.8192 9.53 21.7546 9.54068C21.3694 9.54446 20.9834 9.56292 20.5991 9.58873C20.0945 9.62224 19.5911 9.67341 19.089 9.74222C18.7248 9.79205 18.361 9.84944 17.9981 9.92018C17.7023 9.9769 17.4048 10.0287 17.1112 10.0948C16.8046 10.1638 16.4998 10.2434 16.1951 10.321C15.9252 10.39 15.6608 10.4767 15.3903 10.5435C15.2135 10.588 15.0425 10.6547 14.8669 10.7074C14.6404 10.7742 14.4216 10.8645 14.197 10.9401C14.1344 10.9623 14.0803 11.0006 14.0115 11.0104C13.9892 11.0139 13.9691 11.026 13.9556 11.0442C13.942 11.0623 13.9361 11.085 13.9392 11.1074C13.9414 11.137 13.9392 11.1668 13.9392 11.1964C13.9392 14.5469 13.9382 17.8974 13.9363 21.2479C13.9363 21.3654 13.9754 21.4368 14.0676 21.4988C14.6387 21.8828 15.1825 22.3039 15.7151 22.7383C16.3692 23.2722 16.9996 23.8343 17.5892 24.4405C18.0921 24.9577 18.5676 25.4978 18.9886 26.0848C19.3379 26.5718 19.6387 27.0859 19.8687 27.6391C20.0022 27.9592 20.1167 28.2866 20.2411 28.6103C20.3562 28.9097 20.4638 29.2109 20.5878 29.5083C20.6851 29.7434 20.7607 29.9877 20.8518 30.2257C20.9471 30.4742 21.0522 30.7191 21.147 30.9678C21.2381 31.2058 21.3182 31.4478 21.4099 31.6856C21.5092 31.9435 21.6368 32.1839 21.8663 32.3545C21.9137 32.3897 21.9607 32.4226 22.0222 32.4271C22.1577 32.4756 22.2929 32.4562 22.428 32.4255C22.7043 32.3777 22.8198 32.1759 22.8846 31.9379C23.0701 31.2541 23.0552 30.5549 23.0204 29.8573C23.0102 29.6547 23.0002 29.4505 22.9788 29.2483C22.9331 28.8157 22.8811 28.3837 22.823 27.9523C22.7813 27.6429 22.7339 27.3334 22.6731 27.0271C22.6104 26.7101 22.5683 26.3896 22.4904 26.0753C22.4409 25.8762 22.4171 25.6709 22.3746 25.47C22.3341 25.2796 22.2737 25.0918 22.241 24.9014C22.2107 24.7235 22.1555 24.5524 22.121 24.376C22.0987 24.2683 22.07 24.164 22.0676 24.0505C22.0611 23.7373 22.3325 23.3974 22.6478 23.3234C22.7557 23.2982 22.8662 23.2859 22.977 23.2867C25.1392 23.2867 27.3015 23.287 29.464 23.2878C29.9268 23.2878 30.2677 23.0827 30.4828 22.6838C30.5536 22.5521 30.5975 22.4077 30.612 22.2589C30.6264 22.1101 30.6111 21.9599 30.5669 21.817C30.5227 21.6742 30.4506 21.5416 30.3546 21.4269C30.2586 21.3122 30.1407 21.2177 30.0079 21.1489C29.8355 21.0574 29.6437 21.0082 29.4484 21.0055C29.088 21.001 28.8028 20.7418 28.7387 20.454C28.6574 20.0947 28.7502 19.7758 29.1082 19.5729C29.2188 19.5072 29.3454 19.4735 29.474 19.4754C29.7412 19.4792 30.0083 19.4788 30.2755 19.4754C30.7793 19.4699 31.1348 19.2281 31.3595 18.7859C31.3871 18.7314 31.4002 18.6693 31.4202 18.6108C31.4573 18.4265 31.4576 18.2368 31.4211 18.0524H31.4209Z" fill="white"/>
</svg>
