<svg width="207" height="274" viewBox="0 0 207 274" fill="none" xmlns="http://www.w3.org/2000/svg">
<path d="M101.43 65.4048C103.431 74.0662 104.709 83.3661 101.013 92.5272C97.317 101.688 94.7882 115.569 101.652 134.169C105.876 145.55 111.462 156.932 113.796 162.596C116.13 168.259 120.799 183.611 121.799 187.275C122.799 190.94 125.995 209.484 126.662 213.065C127.329 216.646 126.857 225.696 124.856 227.528C122.855 229.361 118.659 230.832 119.493 232.581C120.326 234.33 127.218 233.691 130.997 231.609C134.776 229.527 133.776 226.251 134.332 222.892C135.054 218.145 135.193 218.895 136.194 220.116C137.902 222.704 139.47 225.383 140.89 228.139L142.446 227.306C141.051 224.51 139.817 221.637 138.75 218.7C138.825 217.354 138.54 216.012 137.925 214.812C137.309 213.612 136.386 212.597 135.249 211.871C131.386 209.401 132.859 184.11 132.859 184.11L126.134 120.427L113.462 93.7487L101.43 65.4048Z" fill="#F7B799"/>
<path d="M116.714 23.0139L105.598 21.7924C106.254 20.74 106.988 19.7378 107.793 18.7943V18.4889C106.519 18.6769 105.319 19.2043 104.32 20.0157C103.176 20.778 102.225 21.7947 101.541 22.9862C101.194 23.6978 100.996 24.4722 100.957 25.2626C100.946 25.7034 101.002 26.1434 101.124 26.5673C101.186 26.7751 101.26 26.979 101.346 27.1781L101.569 27.5945C101.784 27.9022 101.934 28.2504 102.01 28.6178C102.087 28.9852 102.088 29.3642 102.013 29.7321C101.835 30.1208 101.557 30.4559 101.207 30.7037C100.682 31.0772 100.198 31.5053 99.7624 31.9807C98.8673 33.0169 98.3227 34.3091 98.2063 35.6729C98.1826 36.332 98.2767 36.99 98.4841 37.6161C98.6231 38.0873 98.6231 38.5885 98.4841 39.0597C98.3147 39.5586 98.0263 40.0088 97.6438 40.3715C97.2614 40.7343 96.7963 40.9986 96.2888 41.1418V41.4472C97.2038 41.3438 98.0564 40.9327 98.7065 40.2812L98.4008 42.1134L112.295 43.6403L113.073 36.7278L115.13 36.9776L116.714 23.0139Z" fill="#37120B"/>
<path d="M119.493 23.2915L130.608 24.513C130.19 23.3495 129.688 22.2177 129.107 21.1261V20.8485C130.324 21.2995 131.391 22.0777 132.192 23.0972C133.106 24.0838 133.773 25.2731 134.137 26.5673C134.303 27.3358 134.303 28.1307 134.137 28.8992C134.051 29.3391 133.891 29.7614 133.665 30.1484C133.564 30.3395 133.453 30.5248 133.331 30.7037L133.026 31.0368C132.741 31.2932 132.513 31.6056 132.355 31.9543C132.197 32.3031 132.113 32.6806 132.109 33.0633C132.22 33.4633 132.419 33.8332 132.692 34.146C133.122 34.636 133.503 35.1659 133.832 35.7284C134.482 36.9335 134.735 38.3132 134.554 39.6704C134.442 40.32 134.207 40.9421 133.859 41.5026C133.619 41.9257 133.495 42.4044 133.498 42.8907C133.548 43.4194 133.729 43.9273 134.025 44.3684C134.321 44.8095 134.723 45.1699 135.193 45.4169V45.6945C134.328 45.4092 133.59 44.8296 133.109 44.0566V45.8889L119.215 44.3898L119.965 37.4773L117.881 37.2552L119.493 23.2915Z" fill="#37120B"/>
<path d="M131.164 58.9643C130.164 62.9341 130.886 66.9316 128.385 70.6516C127.295 72.1651 126.574 73.9121 126.28 75.7533C125.985 77.5945 126.126 79.4789 126.69 81.2563C128.511 86.5162 130.75 91.622 133.387 96.5248C137.361 103.243 141.251 111.654 140.696 118.262L98.1229 118.456C98.1637 111.679 98.9088 104.925 100.346 98.3015C102.625 89.1959 103.903 80.8676 101.263 75.7041C98.6231 70.5406 97.5949 65.96 98.2896 57.132L131.164 58.9643Z" fill="#F7B799"/>
<path d="M98.623 55.855L131.47 58.6311C130.356 59.8288 129.672 61.3617 129.524 62.9896L116.352 61.546C116.339 61.6008 116.339 61.6578 116.352 61.7126L113.935 61.4905V61.3239C113.948 61.388 113.948 61.4542 113.935 61.5183L111.6 61.2407V61.0741L98.4285 59.6305C98.6786 58.0204 99.3455 56.8544 98.623 55.855Z" fill="#F7B799"/>
<path d="M98.6786 57.2708L112.99 58.0759L113.407 58.3535L114.463 59.2141L114.713 59.464C115.491 59.0195 116.298 58.6299 117.131 58.298L130.525 59.0475C130.525 59.5472 130.747 60.1025 130.83 60.6854C130.914 61.2684 130.636 62.1012 130.553 62.823C130.469 63.5448 130.414 64.1833 130.358 64.8496C130.195 66.9401 129.548 68.9643 128.468 70.7626C127.627 72.0512 126.998 73.4666 126.607 74.9545C122.488 76.5475 118.026 77.0449 113.657 76.3981C109.411 76.065 105.265 74.9447 101.43 73.0946C99.5132 69.6322 98.4197 65.7758 98.234 61.8236C98.4007 60.3245 98.6231 58.8255 98.6786 57.2708Z" fill="#F7B799"/>
<path d="M122.494 30.0097L122.271 30.5371C121.827 32.4249 120.687 38.4212 123.3 39.7815C126.384 41.3639 129.719 40.7254 134.11 43.3626C138.5 45.9999 140.696 48.9148 143.863 56.2437C147.031 63.5726 149.421 67.82 150.033 69.1803C150.644 70.5406 155.59 78.619 151.561 79.7849C147.532 80.9509 131.136 80.4234 125.912 80.3957C120.687 80.3679 117.158 78.7023 116.63 77.2032C115.156 73.8831 114.128 70.3825 113.573 66.7928C113.573 65.1827 113.907 59.1864 114.824 59.7416C115.741 60.2968 116.074 60.5744 116.658 63.5448C117.251 65.794 118.041 67.9864 119.02 70.0964C119.409 71.4011 120.187 74.1495 122.327 74.4271C127.885 75.0933 140.195 71.651 142.613 72.6781C142.613 72.6781 132.275 60.0469 131.497 57.0765C130.719 54.1061 129.747 60.1857 129.552 62.9618L114.491 59.4917L117.547 28.9547L122.494 30.0097Z" fill="#F7B799"/>
<path d="M97.2613 52.5515C97.3253 48.3523 97.1397 44.153 96.7056 39.9758L98.0394 39.4761C102.903 37.8382 105.987 39.1985 109.377 38.3101C112.156 37.5606 112.379 31.4532 112.351 29.5099V28.8992H117.408L114.352 59.4362H98.3451C98.762 57.5207 98.8175 53.5509 97.2613 52.5515Z" fill="#F7B799"/>
<path d="M100.04 73.1501C98.583 71.9582 97.421 70.4462 96.6449 68.7319C95.8689 67.0177 95.4997 65.1475 95.5662 63.2672C96.1792 60.1072 97.1681 57.0316 98.5119 54.1061C99.2066 52.3849 99.151 52.7181 99.4011 52.3294L100.957 52.496C101.055 52.3934 101.18 52.3206 101.318 52.2862C101.456 52.2518 101.601 52.2572 101.735 52.3016C109.377 56.2437 113.601 66.0433 113.629 66.1821C118.492 60.1302 129.385 54.9112 129.385 54.9112C129.385 54.9112 129.163 55.3276 129.385 55.7718C131.053 55.7718 131.414 54.9112 131.414 54.9112C131.414 54.9112 131.164 54.9112 132.025 57.9649C132.887 61.0186 135.36 66.543 133.859 70.5961C132.748 73.5665 130.914 74.4548 130.497 75.5098C124.078 78.2858 112.24 76.2871 108.016 75.5098C105.254 75.1274 102.565 74.3319 100.04 73.1501V73.1501Z" fill="#BD251E"/>
<g style="mix-blend-mode:multiply" opacity="0.3">
<path d="M108.071 72.9835C116.063 74.3557 124.219 74.4775 132.248 73.3444C131.602 73.9588 131.033 74.6485 130.553 75.3987C124.133 78.1748 112.295 76.176 108.071 75.3987C105.296 75.0571 102.589 74.299 100.04 73.1501C98.7282 72.0238 97.6435 70.6575 96.8445 69.1248C100.388 70.9275 104.167 72.2264 108.071 72.9835Z" fill="#BD251E"/>
</g>
<path d="M112.462 29.5099V28.8992H117.52L122.494 29.8986L122.271 30.5371C122.044 31.5547 121.867 32.5832 121.743 33.6186C118.965 35.6729 118.048 35.5618 116.741 35.423C115.435 35.2842 114.546 35.2009 112.24 32.6469C112.386 31.6077 112.46 30.5595 112.462 29.5099V29.5099Z" fill="#F0A581"/>
<path d="M129.58 21.0151C129.58 21.0151 131.942 14.2137 130.497 10.1328C129.845 7.95093 128.523 6.02898 126.718 4.639C124.913 3.24902 122.715 2.46138 120.437 2.38756C118.205 1.96964 115.897 2.26503 113.841 3.2318C111.786 4.19856 110.088 5.78756 108.988 7.77317C106.654 11.4654 107.515 18.5999 107.515 18.5999C105.014 17.7949 105.209 20.6542 105.848 22.0145C106.261 22.7666 106.543 23.5833 106.682 24.4297C107.071 26.1786 108.516 25.1515 108.516 25.1515C109.072 27.3724 109.544 27.9276 112.295 31.0923C115.046 34.2571 115.63 33.8684 116.992 34.0627C118.353 34.2571 119.242 34.3403 122.188 32.175C125.578 29.7043 126.162 29.2323 127.162 27.2058C127.283 27.3685 127.446 27.495 127.634 27.5717C127.822 27.6484 128.027 27.6723 128.227 27.6409C128.428 27.6094 128.616 27.5238 128.771 27.3933C128.926 27.2628 129.042 27.0923 129.107 26.9004C129.444 26.1003 129.893 25.3524 130.441 24.6796C131.386 23.5136 132.164 20.7653 129.58 21.0151Z" fill="#F7B799"/>
<path d="M119.993 10.7436C119.993 10.7436 118.103 16.4623 106.404 20.0157H105.431C104.478 16.4602 104.478 12.7168 105.431 9.16122C107.515 2.77621 112.684 -2.13747 120.604 0.943994L119.993 10.7436Z" fill="#37120B"/>
<path d="M119.493 10.7436C119.493 10.7436 119.493 16.6289 130.247 22.6253H131.22C132.932 19.3705 133.757 15.7225 133.609 12.0484C132.942 5.55231 128.969 -0.360763 120.576 0.943999L119.493 10.7436Z" fill="#37120B"/>
<path d="M129.246 41.3361L132.526 59.6027C132.192 59.4362 131.775 58.4646 131.386 58.992C131.025 60.5189 129.913 60.2413 129.774 61.7681L126.329 40.5588C127.282 40.8836 128.257 41.1433 129.246 41.3361Z" fill="#BD251E"/>
<path d="M108.071 38.56L100.179 57.5484C99.9847 55.744 99.2622 54.1894 98.4563 54.3559L104.737 38.6433C105.849 38.686 106.963 38.6582 108.071 38.56V38.56Z" fill="#BD251E"/>
<path d="M116.88 93.9707C116.88 94.7758 116.88 95.4421 116.547 95.4698C116.213 95.4976 116.047 94.8313 115.991 94.0263C115.936 93.2212 115.991 92.5549 116.325 92.5272C116.658 92.4994 116.714 93.1657 116.88 93.9707Z" fill="#F0A581"/>
<path opacity="0.5" d="M123.911 120.344C124.217 121.398 128.302 151.13 128.302 151.13L121.799 187.22C121.077 184.443 118.464 175.921 116.241 169.147C115.519 156.877 113.462 123.508 111.462 121.954C107.075 119.034 102.423 116.534 97.5671 114.486C97.3487 110.229 97.6379 105.961 98.4285 101.772C104.264 102.632 112.851 104.353 112.851 104.353C112.851 104.353 123.578 119.372 123.911 120.344Z" fill="#F0A581"/>
<path d="M131.108 74.2883C126.968 84.8652 130.247 89.7788 136.333 97.9683C143.669 107.796 143.058 119.316 139.362 132.17C135.666 145.023 133.137 157.155 133.137 162.29C133.137 167.426 137.722 175.144 132.664 189.385C127.607 203.626 123.466 210.15 124.8 214.675C126.134 219.2 127.579 218.506 126.634 223.836C126.005 227.359 125.615 230.921 125.467 234.496L123.883 234.802V225.474C123.883 225.474 122.16 227.778 121.104 229.833C120.048 231.887 118.881 234.163 117.103 234.496C113.778 234.856 110.424 234.856 107.099 234.496C106.237 234.496 106.154 232.414 109.155 230.915C112.156 229.416 113.268 229.333 114.435 225.668C116.6 216.511 118.27 207.244 119.437 197.908C120.437 189.579 119.937 176.726 120.604 169.73C121.271 162.734 115.296 110.294 115.296 110.294L113.601 93.6376L131.108 74.2883Z" fill="#F7B799"/>
<path d="M108.071 110.377C108.071 110.377 115.213 122.148 116.408 122.148C117.603 122.148 129.358 110.377 129.358 110.377H108.071Z" fill="#37120B"/>
<path d="M137.555 99.7172C130.608 103.326 108.155 100.717 100.457 93.9985C99.4046 95.5551 98.6334 97.2839 98.1784 99.1065C97.4505 102.339 97.1423 105.651 97.2614 108.962C98.2872 110.471 99.781 111.603 101.513 112.182C104.848 113.126 108.266 111.182 112.907 114.958C121.243 121.787 117.047 124.952 127.385 126.229C137.722 127.506 134.943 139.11 145.92 141.581C144.085 138.243 143.174 134.477 143.28 130.671C143.53 124.924 145.447 110.738 137.555 99.7172Z" fill="#BD251E"/>
<path d="M131.331 20.9596C131.331 21.1463 131.386 21.3288 131.49 21.484C131.594 21.6392 131.741 21.7602 131.914 21.8316C132.087 21.903 132.277 21.9217 132.46 21.8853C132.643 21.8489 132.811 21.759 132.944 21.627C133.076 21.495 133.166 21.3268 133.202 21.1437C133.239 20.9606 133.22 20.7709 133.148 20.5984C133.077 20.4259 132.956 20.2785 132.8 20.1748C132.645 20.0711 132.462 20.0157 132.276 20.0157C132.025 20.0157 131.785 20.1152 131.607 20.2922C131.43 20.4692 131.331 20.7093 131.331 20.9596V20.9596Z" fill="#EBAF38"/>
<path d="M129.663 20.1545C129.663 20.4049 129.763 20.6449 129.94 20.8219C130.117 20.999 130.358 21.0984 130.608 21.0984C130.859 21.0984 131.099 20.999 131.276 20.8219C131.453 20.6449 131.553 20.4049 131.553 20.1545C131.553 19.9042 131.453 19.6641 131.276 19.4871C131.099 19.3101 130.859 19.2107 130.608 19.2107C130.358 19.2107 130.117 19.3101 129.94 19.4871C129.763 19.6641 129.663 19.9042 129.663 20.1545V20.1545Z" fill="#EBAF38"/>
<path d="M128.052 19.2662C128.052 19.4529 128.107 19.6354 128.211 19.7906C128.315 19.9458 128.462 20.0668 128.635 20.1382C128.807 20.2097 128.997 20.2284 129.181 20.1919C129.364 20.1555 129.532 20.0656 129.664 19.9336C129.797 19.8016 129.887 19.6334 129.923 19.4503C129.959 19.2672 129.941 19.0775 129.869 18.905C129.798 18.7325 129.677 18.5851 129.521 18.4814C129.366 18.3777 129.183 18.3223 128.996 18.3223C128.872 18.3223 128.749 18.3467 128.635 18.3942C128.52 18.4416 128.416 18.5111 128.328 18.5988C128.241 18.6864 128.171 18.7905 128.123 18.905C128.076 19.0195 128.052 19.1422 128.052 19.2662Z" fill="#EBAF38"/>
<path d="M126.579 18.1558C126.579 18.3424 126.634 18.5249 126.738 18.6801C126.842 18.8354 126.989 18.9563 127.162 19.0278C127.335 19.0992 127.525 19.1179 127.708 19.0815C127.891 19.0451 128.06 18.9552 128.192 18.8232C128.324 18.6912 128.414 18.523 128.45 18.3399C128.487 18.1568 128.468 17.967 128.396 17.7946C128.325 17.6221 128.204 17.4747 128.048 17.371C127.893 17.2672 127.71 17.2119 127.524 17.2119C127.399 17.2119 127.277 17.2363 127.162 17.2837C127.047 17.3312 126.943 17.4007 126.855 17.4883C126.768 17.576 126.698 17.68 126.651 17.7946C126.603 17.9091 126.579 18.0318 126.579 18.1558Z" fill="#EBAF38"/>
<path d="M125.245 16.8232C125.245 17.0736 125.344 17.3136 125.522 17.4907C125.699 17.6677 125.939 17.7671 126.19 17.7671C126.44 17.7671 126.681 17.6677 126.858 17.4907C127.035 17.3136 127.135 17.0736 127.135 16.8232C127.128 16.5751 127.026 16.3391 126.85 16.1636C126.674 15.988 126.438 15.8864 126.19 15.8794C125.939 15.8794 125.699 15.9788 125.522 16.1558C125.344 16.3328 125.245 16.5729 125.245 16.8232V16.8232Z" fill="#EBAF38"/>
<path d="M124.078 15.3797C124.078 15.63 124.177 15.8701 124.354 16.0471C124.532 16.2241 124.772 16.3235 125.023 16.3235C125.273 16.3235 125.513 16.2241 125.691 16.0471C125.868 15.8701 125.967 15.63 125.967 15.3797C125.968 15.1341 125.872 14.8981 125.701 14.7219C125.529 14.5456 125.296 14.443 125.05 14.4358C124.797 14.4357 124.554 14.5342 124.372 14.7105C124.191 14.8867 124.085 15.1268 124.078 15.3797V15.3797Z" fill="#EBAF38"/>
<path d="M122.911 13.8806C122.887 14.0161 122.894 14.1552 122.929 14.2881C122.965 14.4209 123.03 14.5443 123.119 14.6496C123.207 14.7549 123.318 14.8395 123.443 14.8976C123.568 14.9556 123.704 14.9857 123.842 14.9857C123.979 14.9857 124.115 14.9556 124.24 14.8976C124.365 14.8395 124.476 14.7549 124.564 14.6496C124.653 14.5443 124.718 14.4209 124.754 14.2881C124.79 14.1552 124.796 14.0161 124.772 13.8806C124.796 13.745 124.79 13.6059 124.754 13.4731C124.718 13.3402 124.653 13.2168 124.564 13.1116C124.476 13.0063 124.365 12.9216 124.24 12.8636C124.115 12.8055 123.979 12.7754 123.842 12.7754C123.704 12.7754 123.568 12.8055 123.443 12.8636C123.318 12.9216 123.207 13.0063 123.119 13.1116C123.03 13.2168 122.965 13.3402 122.929 13.4731C122.894 13.6059 122.887 13.745 122.911 13.8806V13.8806Z" fill="#EBAF38"/>
<path d="M121.743 12.5203C121.743 12.7706 121.843 13.0107 122.02 13.1877C122.197 13.3647 122.438 13.4642 122.688 13.4642C122.812 13.4642 122.935 13.4397 123.05 13.3923C123.164 13.3449 123.269 13.2753 123.356 13.1877C123.444 13.1001 123.514 12.996 123.561 12.8815C123.609 12.767 123.633 12.6442 123.633 12.5203C123.633 12.3963 123.609 12.2736 123.561 12.1591C123.514 12.0446 123.444 11.9405 123.356 11.8529C123.269 11.7652 123.164 11.6957 123.05 11.6483C122.935 11.6008 122.812 11.5764 122.688 11.5764C122.438 11.5764 122.197 11.6759 122.02 11.8529C121.843 12.0299 121.743 12.27 121.743 12.5203V12.5203Z" fill="#EBAF38"/>
<path d="M120.632 11.1045C120.626 11.2923 120.677 11.4774 120.777 11.6362C120.878 11.7951 121.023 11.9203 121.195 11.9961C121.368 12.0718 121.558 12.0945 121.743 12.0612C121.928 12.028 122.099 11.9404 122.234 11.8096C122.369 11.6787 122.462 11.5107 122.501 11.3268C122.54 11.143 122.523 10.9519 122.452 10.7778C122.381 10.6037 122.26 10.4546 122.104 10.3496C121.948 10.2446 121.765 10.1885 121.577 10.1884C121.331 10.1883 121.095 10.2839 120.918 10.455C120.742 10.626 120.639 10.859 120.632 11.1045Z" fill="#EBAF38"/>
<path d="M106.209 17.6005C106.18 17.7202 106.128 17.8328 106.054 17.9315C105.98 18.0303 105.888 18.1133 105.781 18.1755C105.675 18.2377 105.557 18.2778 105.435 18.2935C105.313 18.3092 105.189 18.3001 105.07 18.2668C104.949 18.2347 104.836 18.1789 104.737 18.1027C104.638 18.0265 104.555 17.9315 104.493 17.823C104.431 17.7145 104.391 17.5949 104.375 17.4709C104.36 17.3469 104.369 17.2212 104.403 17.1008C104.431 16.9749 104.486 16.8563 104.563 16.7528C104.64 16.6493 104.738 16.5633 104.851 16.5004C104.964 16.4375 105.089 16.3991 105.218 16.3878C105.346 16.3764 105.476 16.3924 105.598 16.4346C105.832 16.5111 106.027 16.6758 106.141 16.8935C106.255 17.1113 106.28 17.3649 106.209 17.6005V17.6005Z" fill="#EBAF38"/>
<path d="M108.043 17.2396C108.014 17.3593 107.962 17.4719 107.888 17.5706C107.815 17.6694 107.722 17.7524 107.615 17.8146C107.509 17.8768 107.391 17.9169 107.269 17.9326C107.147 17.9483 107.023 17.9392 106.904 17.9059C106.774 17.875 106.651 17.8167 106.545 17.735C106.439 17.6532 106.351 17.5498 106.288 17.4317C106.225 17.3135 106.188 17.1833 106.179 17.0497C106.17 16.916 106.19 16.7821 106.237 16.6567C106.266 16.537 106.319 16.4244 106.393 16.3257C106.466 16.2269 106.559 16.1439 106.665 16.0817C106.772 16.0195 106.889 15.9794 107.012 15.9637C107.134 15.948 107.258 15.9571 107.377 15.9904C107.507 16.0213 107.629 16.0796 107.735 16.1613C107.842 16.2431 107.929 16.3465 107.992 16.4646C108.055 16.5828 108.093 16.713 108.101 16.8466C108.11 16.9803 108.09 17.1142 108.043 17.2396V17.2396Z" fill="#EBAF38"/>
<path d="M109.85 16.7955C109.818 16.9162 109.762 17.0293 109.685 17.1283C109.609 17.2273 109.514 17.3102 109.405 17.3722C109.297 17.4341 109.177 17.474 109.053 17.4893C108.929 17.5047 108.803 17.4953 108.683 17.4617C108.563 17.4328 108.45 17.38 108.351 17.3065C108.252 17.233 108.169 17.1404 108.107 17.0342C108.045 16.9279 108.005 16.8103 107.989 16.6882C107.973 16.5661 107.982 16.4421 108.016 16.3235C108.047 16.2032 108.101 16.0902 108.176 15.9909C108.251 15.8916 108.344 15.808 108.451 15.7449C108.558 15.6817 108.677 15.6402 108.8 15.6228C108.923 15.6054 109.048 15.6124 109.169 15.6434C109.289 15.6744 109.402 15.7288 109.502 15.8034C109.601 15.8781 109.685 15.9716 109.748 16.0786C109.811 16.1856 109.853 16.3039 109.87 16.4269C109.888 16.5499 109.881 16.6752 109.85 16.7955V16.7955Z" fill="#EBAF38"/>
<path d="M111.545 16.1014C111.516 16.2211 111.463 16.3336 111.39 16.4324C111.316 16.5312 111.223 16.6142 111.117 16.6764C111.011 16.7385 110.893 16.7787 110.771 16.7944C110.648 16.8101 110.524 16.801 110.406 16.7677C110.285 16.7356 110.172 16.6798 110.072 16.6036C109.973 16.5274 109.89 16.4323 109.828 16.3239C109.766 16.2154 109.726 16.0957 109.711 15.9718C109.696 15.8478 109.705 15.722 109.739 15.6017C109.768 15.4821 109.821 15.3695 109.894 15.2707C109.968 15.172 110.06 15.089 110.167 15.0268C110.273 14.9646 110.391 14.9245 110.513 14.9088C110.635 14.8931 110.759 14.9022 110.878 14.9355C110.999 14.9676 111.112 15.0234 111.211 15.0996C111.31 15.1757 111.393 15.2708 111.455 15.3793C111.517 15.4877 111.557 15.6074 111.573 15.7314C111.588 15.8553 111.579 15.9811 111.545 16.1014V16.1014Z" fill="#EBAF38"/>
<path d="M113.184 15.1576C113.152 15.2783 113.096 15.3914 113.02 15.4904C112.944 15.5894 112.849 15.6723 112.74 15.7343C112.632 15.7962 112.512 15.8361 112.388 15.8514C112.264 15.8668 112.138 15.8574 112.017 15.8238C111.898 15.7949 111.785 15.7421 111.686 15.6686C111.587 15.5951 111.504 15.5025 111.442 15.3963C111.38 15.29 111.339 15.1724 111.324 15.0503C111.308 14.9282 111.317 14.8042 111.35 14.6856C111.367 14.5555 111.41 14.4301 111.477 14.3176C111.545 14.2051 111.635 14.1078 111.742 14.0321C111.849 13.9563 111.971 13.9037 112.1 13.8776C112.229 13.8516 112.361 13.8526 112.49 13.8806C112.624 13.9116 112.749 13.9707 112.859 14.0539C112.968 14.137 113.059 14.2424 113.124 14.3631C113.19 14.4838 113.229 14.617 113.24 14.7539C113.25 14.8908 113.231 15.0284 113.184 15.1576V15.1576Z" fill="#EBAF38"/>
<path d="M114.657 14.0471C114.595 14.2901 114.438 14.4982 114.222 14.6258C114.005 14.7534 113.747 14.7898 113.504 14.7273C113.261 14.6647 113.052 14.5081 112.925 14.2921C112.797 14.076 112.761 13.8182 112.823 13.5752C112.888 13.3435 113.04 13.1454 113.247 13.0216C113.453 12.8977 113.699 12.8574 113.935 12.9089C114.059 12.9315 114.178 12.9797 114.283 13.0504C114.389 13.1211 114.478 13.2128 114.546 13.3198C114.614 13.4267 114.659 13.5466 114.678 13.6718C114.697 13.797 114.69 13.9248 114.657 14.0471V14.0471Z" fill="#EBAF38"/>
<path d="M116.186 12.9645C116.153 13.0852 116.098 13.1983 116.021 13.2973C115.945 13.3963 115.85 13.4792 115.741 13.5411C115.633 13.6031 115.513 13.6429 115.389 13.6583C115.265 13.6737 115.139 13.6643 115.019 13.6307C114.898 13.5986 114.784 13.5428 114.685 13.4666C114.586 13.3904 114.503 13.2954 114.441 13.1869C114.379 13.0785 114.339 12.9588 114.324 12.8348C114.309 12.7109 114.318 12.5851 114.352 12.4648C114.381 12.3451 114.433 12.2326 114.507 12.1338C114.581 12.035 114.673 11.952 114.78 11.8898C114.886 11.8276 115.004 11.7875 115.126 11.7718C115.248 11.7561 115.372 11.7652 115.491 11.7985C115.736 11.8639 115.946 12.0224 116.076 12.2403C116.206 12.4581 116.245 12.718 116.186 12.9645V12.9645Z" fill="#EBAF38"/>
<path d="M117.658 11.8818C117.629 12.0014 117.577 12.114 117.503 12.2128C117.43 12.3116 117.337 12.3945 117.23 12.4567C117.124 12.5189 117.006 12.559 116.884 12.5747C116.762 12.5904 116.638 12.5813 116.519 12.548C116.337 12.5027 116.172 12.4042 116.046 12.265C115.92 12.1257 115.839 11.9522 115.812 11.7665C115.785 11.5807 115.815 11.3913 115.896 11.2222C115.978 11.0532 116.108 10.9123 116.27 10.8175C116.432 10.7227 116.619 10.6784 116.806 10.6901C116.994 10.7018 117.173 10.769 117.322 10.8833C117.471 10.9975 117.583 11.1535 117.643 11.3313C117.703 11.5092 117.708 11.7008 117.658 11.8818V11.8818Z" fill="#EBAF38"/>
<path d="M119.076 10.7714C118.986 10.9777 118.825 11.1452 118.622 11.2436C118.42 11.3419 118.188 11.3647 117.97 11.3077C117.752 11.2507 117.562 11.1178 117.433 10.933C117.305 10.7481 117.247 10.5234 117.269 10.2994C117.298 10.1798 117.351 10.0672 117.425 9.96843C117.498 9.86964 117.591 9.78668 117.697 9.72449C117.804 9.6623 117.922 9.62216 118.044 9.60647C118.166 9.59078 118.29 9.59986 118.409 9.63316C118.529 9.66214 118.641 9.71494 118.74 9.7884C118.839 9.86186 118.922 9.95448 118.984 10.0607C119.047 10.167 119.087 10.2846 119.102 10.4067C119.118 10.5288 119.109 10.6528 119.076 10.7714V10.7714Z" fill="#EBAF38"/>
<path d="M118.464 9.16121C118.464 9.48084 118.56 9.79322 118.738 10.0586C118.916 10.3239 119.17 10.5302 119.466 10.6513C119.762 10.7723 120.088 10.8025 120.401 10.7381C120.714 10.6737 121.001 10.5175 121.226 10.2896C121.45 10.0616 121.601 9.77211 121.66 9.45797C121.719 9.14383 121.683 8.81925 121.557 8.52556C121.431 8.23188 121.22 7.98238 120.951 7.80884C120.683 7.6353 120.368 7.54557 120.048 7.55108C119.626 7.55836 119.223 7.73121 118.927 8.03238C118.63 8.33355 118.464 8.73895 118.464 9.16121V9.16121Z" fill="#EBAF38"/>
<path d="M120.048 1.16608C120.055 1.3214 120.117 1.46912 120.225 1.58156C120.332 1.694 120.477 1.76342 120.632 1.77682C120.711 1.78058 120.79 1.76828 120.864 1.74067C120.938 1.71306 121.005 1.67072 121.063 1.6162C121.12 1.56169 121.165 1.49614 121.196 1.42354C121.227 1.35094 121.243 1.27279 121.243 1.19384C121.247 1.11498 121.235 1.03617 121.207 0.962209C121.179 0.888242 121.137 0.820655 121.082 0.763545C121.028 0.706436 120.962 0.660994 120.89 0.629976C120.817 0.598958 120.739 0.58301 120.66 0.5831C120.504 0.58928 120.356 0.651905 120.244 0.759232C120.131 0.86656 120.062 1.01122 120.048 1.16608V1.16608Z" fill="#EBAF38"/>
<path d="M119.882 2.33203C119.878 2.41226 119.89 2.49243 119.917 2.56796C119.945 2.64349 119.987 2.71289 120.041 2.7722C120.095 2.83151 120.16 2.87955 120.233 2.91358C120.306 2.94762 120.385 2.96697 120.465 2.97053C120.621 2.96435 120.769 2.90173 120.881 2.7944C120.994 2.68707 121.063 2.54242 121.077 2.38755C121.08 2.30869 121.068 2.22989 121.04 2.15592C121.013 2.08196 120.97 2.01437 120.916 1.95726C120.861 1.90015 120.796 1.85471 120.723 1.82369C120.65 1.79267 120.572 1.77673 120.493 1.77681C120.416 1.77308 120.34 1.78449 120.267 1.81039C120.195 1.83628 120.129 1.87616 120.072 1.92773C120.015 1.97931 119.969 2.04156 119.937 2.11094C119.904 2.18031 119.885 2.25545 119.882 2.33203V2.33203Z" fill="#EBAF38"/>
<path d="M119.687 3.52576C119.683 3.60462 119.696 3.68343 119.723 3.75739C119.751 3.83136 119.793 3.89895 119.848 3.95606C119.902 4.01317 119.968 4.05861 120.041 4.08963C120.113 4.12064 120.192 4.13659 120.271 4.1365C120.348 4.14429 120.426 4.1357 120.5 4.11131C120.574 4.08691 120.642 4.04725 120.7 3.9949C120.758 3.94254 120.804 3.87867 120.835 3.80741C120.866 3.73616 120.882 3.65911 120.882 3.58128C120.89 3.42376 120.836 3.26932 120.733 3.15031C120.629 3.03129 120.483 2.95693 120.326 2.94278C120.166 2.94218 120.011 3.00177 119.893 3.10976C119.774 3.21774 119.701 3.36622 119.687 3.52576V3.52576Z" fill="#EBAF38"/>
<path d="M119.659 4.71947C119.656 4.79834 119.668 4.87714 119.696 4.9511C119.723 5.02507 119.766 5.09266 119.82 5.14977C119.875 5.20688 119.94 5.25232 120.013 5.28334C120.086 5.31436 120.164 5.3303 120.243 5.33021C120.396 5.33085 120.544 5.27418 120.657 5.17139C120.77 5.0686 120.84 4.92717 120.854 4.775C120.855 4.61485 120.795 4.46032 120.687 4.34206C120.579 4.22379 120.43 4.15042 120.271 4.1365C120.192 4.13274 120.113 4.14503 120.039 4.17264C119.965 4.20025 119.897 4.2426 119.84 4.29711C119.783 4.35163 119.737 4.41717 119.706 4.48977C119.675 4.56238 119.659 4.64052 119.659 4.71947V4.71947Z" fill="#EBAF38"/>
<path d="M119.493 5.9132C119.522 6.04952 119.598 6.17161 119.706 6.25917C119.815 6.34672 119.95 6.39447 120.09 6.39447C120.23 6.39447 120.365 6.34672 120.474 6.25917C120.582 6.17161 120.658 6.04952 120.687 5.9132C120.691 5.83434 120.679 5.75554 120.651 5.68157C120.624 5.6076 120.581 5.54002 120.527 5.48291C120.472 5.4258 120.407 5.38035 120.334 5.34934C120.261 5.31832 120.183 5.30237 120.104 5.30246C119.944 5.30927 119.792 5.3758 119.679 5.48889C119.566 5.60199 119.499 5.75341 119.493 5.9132V5.9132Z" fill="#EBAF38"/>
<path d="M119.493 7.10692C119.492 7.25972 119.549 7.40721 119.652 7.52028C119.754 7.63334 119.896 7.70377 120.048 7.71766C120.209 7.71827 120.363 7.65867 120.482 7.55069C120.6 7.44271 120.674 7.29422 120.687 7.13468C120.658 6.99836 120.582 6.87627 120.474 6.78872C120.365 6.70116 120.23 6.65341 120.09 6.65341C119.95 6.65341 119.815 6.70116 119.706 6.78872C119.598 6.87627 119.522 6.99836 119.493 7.13468V7.10692Z" fill="#EBAF38"/>
<path opacity="0.5" d="M108.071 75.5097C112.295 76.176 124.133 78.1193 130.553 75.5097C130.653 75.3125 130.774 75.1263 130.914 74.9545C129.167 78.816 128.823 83.165 129.941 87.2526V87.2526C116.241 86.392 109.961 78.9243 101.319 75.8151C100.874 74.9823 100.513 74.1495 100.179 73.3444C102.7 74.4186 105.355 75.147 108.071 75.5097V75.5097Z" fill="#F0A581"/>
<path d="M114.741 75.8707C115.052 77.1399 115.275 78.4293 115.408 79.7294C115.602 81.3673 115.769 82.5055 114.713 82.0891C114.516 82.0472 114.331 81.9656 114.167 81.8493C114.003 81.733 113.865 81.5844 113.761 81.4128C113.657 81.2412 113.589 81.0501 113.562 80.8513C113.534 80.6525 113.548 80.4502 113.601 80.2569C113.601 79.6739 113.935 77.0644 114.213 75.9262C114.324 75.4265 114.741 75.8707 114.741 75.8707Z" fill="#EBAF38"/>
<path d="M113.74 75.4542C113.74 75.6457 113.816 75.8292 113.952 75.9646C114.087 76.1 114.271 76.176 114.463 76.176C114.634 76.1427 114.787 76.0511 114.898 75.9169C115.009 75.7827 115.069 75.6142 115.069 75.4403C115.069 75.2665 115.009 75.098 114.898 74.9638C114.787 74.8296 114.634 74.738 114.463 74.7047C114.269 74.7119 114.085 74.794 113.95 74.9338C113.815 75.0736 113.74 75.2602 113.74 75.4542V75.4542Z" fill="#FFCD69"/>
<path d="M117.686 76.2871C117.991 77.5966 118.223 78.9218 118.381 80.2569C118.575 81.9225 118.77 83.0329 117.658 82.6998C117.454 82.6549 117.262 82.5686 117.092 82.4463C116.923 82.324 116.78 82.1682 116.673 81.9887C116.567 81.8091 116.498 81.6096 116.471 81.4025C116.445 81.1953 116.461 80.9849 116.519 80.7843C116.519 80.2013 116.88 77.5085 117.13 76.3148C117.242 75.8151 117.686 76.2871 117.686 76.2871Z" fill="#EBAF38"/>
<path d="M116.714 75.8429C116.714 75.9911 116.758 76.136 116.84 76.2593C116.923 76.3826 117.04 76.4786 117.177 76.5354C117.314 76.5921 117.465 76.6069 117.61 76.578C117.756 76.5491 117.89 76.4777 117.994 76.3729C118.099 76.2681 118.171 76.1345 118.2 75.9891C118.229 75.8437 118.214 75.693 118.157 75.556C118.1 75.4191 118.004 75.302 117.881 75.2196C117.757 75.1373 117.612 75.0933 117.464 75.0933C117.265 75.0933 117.074 75.1723 116.933 75.3129C116.793 75.4534 116.714 75.6441 116.714 75.8429Z" fill="#FFCD69"/>
<path d="M120.632 76.648C120.965 78.147 121.16 79.424 121.299 80.479C121.466 82.1168 121.66 83.255 120.576 82.8664C120.379 82.8217 120.194 82.7369 120.031 82.6174C119.868 82.4979 119.731 82.3462 119.63 82.1718C119.528 81.9973 119.463 81.8038 119.44 81.6033C119.416 81.4029 119.434 81.1997 119.493 81.0064C119.493 80.4512 119.826 77.8417 120.076 76.6757C120.187 76.176 120.632 76.648 120.632 76.648Z" fill="#EBAF38"/>
<path d="M119.493 76.2038C119.471 76.3123 119.474 76.4242 119.502 76.5314C119.529 76.6387 119.579 76.7385 119.65 76.8239C119.72 76.9093 119.809 76.978 119.909 77.0252C120.009 77.0724 120.118 77.0969 120.229 77.0969C120.34 77.0969 120.449 77.0724 120.549 77.0252C120.649 76.978 120.738 76.9093 120.808 76.8239C120.878 76.7385 120.929 76.6387 120.956 76.5314C120.983 76.4242 120.987 76.3123 120.965 76.2038C120.932 76.0331 120.84 75.8794 120.706 75.7688C120.572 75.6583 120.403 75.5978 120.229 75.5978C120.055 75.5978 119.886 75.6583 119.752 75.7688C119.618 75.8794 119.526 76.0331 119.493 76.2038V76.2038Z" fill="#FFCD69"/>
<path d="M123.717 76.5647C124.05 78.1193 124.245 79.3408 124.383 80.5345C124.55 82.2279 124.745 83.3106 123.661 82.9774C123.46 82.9299 123.27 82.8413 123.105 82.7172C122.94 82.593 122.802 82.4361 122.7 82.2563C122.598 82.0764 122.535 81.8775 122.514 81.6719C122.493 81.4664 122.514 81.2587 122.577 81.0619C122.577 80.479 122.911 77.7862 123.161 76.5924C123.272 76.0927 123.717 76.5647 123.717 76.5647Z" fill="#EBAF38"/>
<path d="M122.688 76.1205C122.688 76.2699 122.733 76.4159 122.817 76.5396C122.901 76.6634 123.019 76.7594 123.158 76.8152C123.297 76.871 123.449 76.8842 123.595 76.8529C123.742 76.8217 123.875 76.7475 123.979 76.6399C124.083 76.5323 124.152 76.3961 124.178 76.2489C124.203 76.1018 124.184 75.9503 124.123 75.8139C124.062 75.6775 123.962 75.5625 123.835 75.4835C123.708 75.4046 123.56 75.3654 123.411 75.3709C123.217 75.3781 123.033 75.4603 122.898 75.6C122.763 75.7398 122.688 75.9264 122.688 76.1205V76.1205Z" fill="#FFCD69"/>
<path d="M126.94 76.9533C127.24 78.2063 127.462 79.4764 127.607 80.7566C127.801 82.3667 127.968 83.5326 126.912 83.0885C125.856 82.6443 125.689 81.9225 125.801 81.2563C125.912 80.59 126.134 78.1193 126.384 76.9811C126.495 76.4814 126.94 76.9533 126.94 76.9533Z" fill="#EBAF38"/>
<path d="M125.912 76.5092C125.945 76.6798 126.037 76.8336 126.171 76.9441C126.306 77.0547 126.474 77.1151 126.648 77.1151C126.822 77.1151 126.991 77.0547 127.125 76.9441C127.26 76.8336 127.351 76.6798 127.385 76.5092C127.351 76.3385 127.26 76.1847 127.125 76.0742C126.991 75.9636 126.822 75.9032 126.648 75.9032C126.474 75.9032 126.306 75.9636 126.171 76.0742C126.037 76.1847 125.945 76.3385 125.912 76.5092Z" fill="#FFCD69"/>
<path d="M129.941 76.0927C130.275 77.6196 130.469 78.8688 130.608 79.9515C130.775 81.5894 130.969 82.7276 129.886 82.3389C129.689 82.2942 129.503 82.2095 129.34 82.09C129.177 81.9705 129.041 81.8188 128.939 81.6443C128.837 81.4699 128.773 81.2764 128.749 81.0759C128.725 80.8754 128.743 80.6722 128.802 80.479C128.802 79.896 129.135 77.2865 129.385 76.1483C129.497 75.6486 129.941 76.0927 129.941 76.0927Z" fill="#EBAF38"/>
<path d="M128.913 75.6763C128.907 75.8268 128.948 75.9754 129.028 76.1029C129.108 76.2303 129.225 76.3306 129.363 76.3907C129.501 76.4509 129.654 76.4681 129.802 76.44C129.951 76.412 130.087 76.3401 130.193 76.2336C130.3 76.1271 130.372 75.9911 130.4 75.8431C130.428 75.6952 130.411 75.5422 130.351 75.4042C130.29 75.2662 130.19 75.1494 130.062 75.0692C129.935 74.989 129.786 74.9491 129.635 74.9545C129.444 74.9545 129.26 75.0306 129.125 75.1659C128.989 75.3013 128.913 75.4849 128.913 75.6763V75.6763Z" fill="#FFCD69"/>
<path d="M111.517 75.5653C111.851 77.0644 112.045 78.3414 112.184 79.4241C112.351 81.0342 112.545 82.2001 111.462 81.7837C111.265 81.739 111.079 81.6543 110.916 81.5348C110.753 81.4153 110.617 81.2636 110.515 81.0891C110.413 80.9147 110.349 80.7212 110.325 80.5207C110.301 80.3202 110.319 80.117 110.378 79.9237C110.378 79.3685 110.711 76.759 110.961 75.5931C111.156 75.1211 111.517 75.5653 111.517 75.5653Z" fill="#EBAF38"/>
<path d="M110.489 75.1489C110.522 75.3195 110.614 75.4733 110.748 75.5838C110.883 75.6944 111.051 75.7548 111.225 75.7548C111.399 75.7548 111.568 75.6944 111.702 75.5838C111.837 75.4733 111.928 75.3195 111.962 75.1489C111.983 75.0403 111.98 74.9284 111.953 74.8212C111.926 74.714 111.875 74.6141 111.805 74.5287C111.734 74.4434 111.646 74.3746 111.546 74.3274C111.445 74.2802 111.336 74.2557 111.225 74.2557C111.115 74.2557 111.005 74.2802 110.905 74.3274C110.805 74.3746 110.717 74.4434 110.646 74.5287C110.576 74.6141 110.525 74.714 110.498 74.8212C110.471 74.9284 110.468 75.0403 110.489 75.1489V75.1489Z" fill="#FFCD69"/>
<path d="M108.377 75.0933C108.688 76.3533 108.911 77.6334 109.044 78.9243C109.238 80.5622 109.405 81.7004 108.349 81.3118C108.15 81.2703 107.961 81.1879 107.795 81.0697C107.629 80.9516 107.489 80.8004 107.385 80.6255C107.28 80.4507 107.213 80.2561 107.188 80.0541C107.163 79.852 107.18 79.647 107.238 79.4518C107.238 78.8688 107.571 76.2593 107.849 75.1211C107.905 74.6214 108.377 75.0933 108.377 75.0933Z" fill="#EBAF38"/>
<path d="M107.349 74.6492C107.349 74.8406 107.425 75.0242 107.56 75.1595C107.696 75.2949 107.88 75.3709 108.071 75.3709C108.263 75.3709 108.447 75.2949 108.582 75.1595C108.718 75.0242 108.794 74.8406 108.794 74.6492C108.794 74.4577 108.718 74.2741 108.582 74.1388C108.447 74.0034 108.263 73.9274 108.071 73.9274C107.88 73.9274 107.696 74.0034 107.56 74.1388C107.425 74.2741 107.349 74.4577 107.349 74.6492V74.6492Z" fill="#FFCD69"/>
<path d="M105.237 74.2327C105.535 75.5048 105.757 76.7933 105.904 78.0915C106.098 79.7294 106.265 80.8676 105.209 80.4512C104.153 80.0348 103.986 79.2575 104.097 78.619C104.209 77.9805 104.431 75.4265 104.681 74.2883C104.792 73.7886 105.237 74.2327 105.237 74.2327Z" fill="#EBAF38"/>
<path d="M104.209 73.8163C104.209 73.9646 104.253 74.1095 104.335 74.2328C104.418 74.356 104.535 74.4521 104.672 74.5088C104.809 74.5656 104.96 74.5804 105.105 74.5515C105.251 74.5226 105.385 74.4512 105.489 74.3463C105.594 74.2415 105.666 74.108 105.695 73.9626C105.724 73.8172 105.709 73.6665 105.652 73.5295C105.595 73.3925 105.499 73.2755 105.376 73.1931C105.252 73.1108 105.107 73.0668 104.959 73.0668C104.76 73.0668 104.569 73.1458 104.428 73.2863C104.288 73.4269 104.209 73.6176 104.209 73.8163V73.8163Z" fill="#FFCD69"/>
<path d="M102.319 73.4554C102.652 74.9823 102.847 76.2315 102.986 77.3142C103.153 78.9521 103.347 80.0903 102.291 79.6739C102.093 79.6358 101.904 79.5565 101.739 79.4412C101.573 79.3259 101.433 79.1771 101.328 79.0044C101.223 78.8318 101.156 78.6391 101.13 78.4388C101.105 78.2385 101.122 78.0351 101.18 77.8417C101.18 77.2587 101.513 74.6492 101.763 73.511C101.874 73.0113 102.319 73.4554 102.319 73.4554Z" fill="#EBAF38"/>
<path d="M101.291 73.039C101.324 73.2097 101.416 73.3635 101.55 73.474C101.684 73.5846 101.853 73.645 102.027 73.645C102.201 73.645 102.37 73.5846 102.504 73.474C102.639 73.3635 102.73 73.2097 102.764 73.039C102.73 72.8684 102.639 72.7146 102.504 72.6041C102.37 72.4935 102.201 72.4331 102.027 72.4331C101.853 72.4331 101.684 72.4935 101.55 72.6041C101.416 72.7146 101.324 72.8684 101.291 73.039V73.039Z" fill="#FFCD69"/>
<path d="M99.6234 72.1785C99.9191 73.451 100.142 74.7393 100.29 76.0372C100.485 77.6751 100.652 78.8133 99.5956 78.3969C99.3972 78.3588 99.2089 78.2795 99.043 78.1642C98.8771 78.0489 98.7372 77.9001 98.6325 77.7274C98.5277 77.5548 98.4604 77.3621 98.4348 77.1618C98.4093 76.9615 98.426 76.7581 98.4841 76.5647C98.4841 75.9817 98.8176 73.3722 99.0677 72.234C99.1788 71.8176 99.6234 72.1785 99.6234 72.1785Z" fill="#EBAF38"/>
<path d="M98.5952 71.8453C98.5952 71.9935 98.6392 72.1385 98.7217 72.2617C98.8041 72.385 98.9213 72.4811 99.0584 72.5378C99.1955 72.5945 99.3463 72.6094 99.4919 72.5804C99.6374 72.5515 99.7711 72.4801 99.8761 72.3753C99.981 72.2705 100.052 72.1369 100.081 71.9915C100.11 71.8461 100.095 71.6954 100.039 71.5585C99.9819 71.4215 99.8858 71.3044 99.7624 71.2221C99.639 71.1397 99.4939 71.0958 99.3455 71.0958C99.1465 71.0958 98.9557 71.1747 98.815 71.3153C98.6743 71.4559 98.5952 71.6465 98.5952 71.8453V71.8453Z" fill="#FFCD69"/>
<path d="M145.531 142.025C145.864 143.524 146.059 144.801 146.198 145.884C146.364 147.494 146.559 148.66 145.475 148.243C145.278 148.199 145.092 148.114 144.93 147.994C144.767 147.875 144.63 147.723 144.529 147.549C144.427 147.374 144.362 147.181 144.339 146.98C144.315 146.78 144.333 146.577 144.391 146.383C144.391 145.828 144.725 143.219 144.975 142.053C145.086 141.581 145.531 142.025 145.531 142.025Z" fill="#EBAF38"/>
<path d="M144.503 141.581C144.481 141.689 144.485 141.801 144.512 141.908C144.539 142.016 144.59 142.115 144.66 142.201C144.73 142.286 144.819 142.355 144.919 142.402C145.019 142.449 145.128 142.474 145.239 142.474C145.35 142.474 145.459 142.449 145.559 142.402C145.659 142.355 145.748 142.286 145.818 142.201C145.889 142.115 145.939 142.016 145.966 141.908C145.994 141.801 145.997 141.689 145.975 141.581C145.942 141.41 145.85 141.256 145.716 141.146C145.582 141.035 145.413 140.975 145.239 140.975C145.065 140.975 144.896 141.035 144.762 141.146C144.628 141.256 144.536 141.41 144.503 141.581V141.581Z" fill="#FFCD69"/>
<path d="M142.613 140.304C142.908 141.567 143.131 142.846 143.28 144.135C143.474 145.773 143.641 146.911 142.585 146.522C142.386 146.481 142.197 146.398 142.031 146.28C141.865 146.162 141.725 146.011 141.621 145.836C141.516 145.661 141.449 145.466 141.424 145.264C141.399 145.062 141.415 144.857 141.474 144.662C141.474 144.107 141.807 141.47 142.057 140.331C142.168 139.832 142.613 140.304 142.613 140.304Z" fill="#EBAF38"/>
<path d="M141.724 139.86C141.703 139.968 141.706 140.08 141.733 140.187C141.76 140.294 141.811 140.394 141.881 140.48C141.951 140.565 142.04 140.634 142.14 140.681C142.24 140.728 142.349 140.753 142.46 140.753C142.571 140.753 142.68 140.728 142.78 140.681C142.88 140.634 142.969 140.565 143.039 140.48C143.11 140.394 143.16 140.294 143.187 140.187C143.215 140.08 143.218 139.968 143.197 139.86C143.163 139.689 143.072 139.535 142.937 139.425C142.803 139.314 142.634 139.254 142.46 139.254C142.286 139.254 142.117 139.314 141.983 139.425C141.849 139.535 141.757 139.689 141.724 139.86V139.86Z" fill="#FFCD69"/>
<path d="M139.834 138.027C140.145 139.297 140.368 140.586 140.501 141.886C140.695 143.496 140.862 144.662 139.806 144.246C139.607 144.204 139.418 144.122 139.252 144.004C139.086 143.886 138.946 143.734 138.842 143.559C138.737 143.385 138.67 143.19 138.645 142.988C138.62 142.786 138.637 142.581 138.695 142.386C138.695 141.831 139.028 139.221 139.278 138.055C139.389 137.583 139.834 138.027 139.834 138.027Z" fill="#EBAF38"/>
<path d="M138.945 137.583C138.945 137.726 138.987 137.865 139.067 137.984C139.146 138.103 139.259 138.195 139.391 138.25C139.523 138.305 139.668 138.319 139.808 138.291C139.948 138.263 140.077 138.194 140.178 138.093C140.279 137.993 140.348 137.864 140.376 137.724C140.404 137.584 140.39 137.439 140.335 137.307C140.28 137.175 140.188 137.062 140.069 136.983C139.95 136.904 139.81 136.861 139.667 136.861C139.476 136.861 139.292 136.937 139.156 137.073C139.021 137.208 138.945 137.392 138.945 137.583V137.583Z" fill="#FFCD69"/>
<g style="mix-blend-mode:multiply" opacity="0.3">
<g style="mix-blend-mode:multiply" opacity="0.3">
<path d="M130.608 127.173L131.136 115.291C131.862 120.307 132.883 125.275 134.193 130.171C133.266 128.89 132.034 127.859 130.608 127.173V127.173Z" fill="#BD251E"/>
</g>
<g style="mix-blend-mode:multiply" opacity="0.3">
<path d="M115.213 117.151L114.296 116.263L114.88 111.627C114.88 111.627 115.074 115.014 115.213 117.151Z" fill="#BD251E"/>
</g>
<g style="mix-blend-mode:multiply" opacity="0.3">
<path d="M120.549 112.043L121.716 124.924C120.874 124.482 120.142 123.855 119.576 123.092L120.549 112.043Z" fill="#BD251E"/>
</g>
<g style="mix-blend-mode:multiply" opacity="0.3">
<path d="M106.598 103.493L107.293 112.598C106.266 112.531 105.236 112.531 104.209 112.598L106.598 103.493Z" fill="#BD251E"/>
</g>
</g>
<path d="M137.333 134.307C137.667 135.806 137.861 137.083 138 138.138C138.167 139.776 138.361 140.914 137.277 140.526C136.905 140.439 136.58 140.211 136.373 139.89C136.165 139.569 136.091 139.18 136.166 138.805C136.166 138.222 136.499 135.612 136.749 134.474C136.888 133.835 137.333 134.307 137.333 134.307Z" fill="#EBAF38"/>
<path d="M136.305 133.863C136.299 134.014 136.339 134.162 136.42 134.29C136.5 134.417 136.617 134.517 136.755 134.578C136.893 134.638 137.046 134.655 137.194 134.627C137.342 134.599 137.479 134.527 137.585 134.42C137.692 134.314 137.764 134.178 137.792 134.03C137.82 133.882 137.803 133.729 137.742 133.591C137.682 133.453 137.582 133.336 137.454 133.256C137.327 133.176 137.178 133.136 137.027 133.141C136.836 133.141 136.652 133.217 136.516 133.353C136.381 133.488 136.305 133.672 136.305 133.863V133.863Z" fill="#FFCD69"/>
<path d="M135.332 131.059C135.643 132.319 135.866 133.599 135.999 134.89C136.194 136.528 136.361 137.666 135.305 137.278C135.105 137.236 134.916 137.154 134.75 137.036C134.584 136.918 134.445 136.766 134.34 136.591C134.236 136.417 134.169 136.222 134.143 136.02C134.118 135.818 134.135 135.613 134.193 135.418C134.193 134.835 134.526 132.225 134.777 131.087C134.888 130.476 135.332 131.059 135.332 131.059Z" fill="#EBAF38"/>
<path d="M134.304 130.615C134.299 130.764 134.338 130.912 134.417 131.039C134.496 131.166 134.611 131.266 134.747 131.327C134.884 131.388 135.036 131.407 135.183 131.381C135.33 131.356 135.467 131.286 135.574 131.183C135.682 131.079 135.756 130.946 135.788 130.8C135.819 130.654 135.806 130.501 135.75 130.363C135.694 130.224 135.598 130.106 135.474 130.022C135.35 129.938 135.204 129.893 135.054 129.893C134.957 129.89 134.86 129.906 134.769 129.94C134.678 129.975 134.596 130.027 134.525 130.095C134.455 130.162 134.4 130.243 134.362 130.332C134.324 130.422 134.304 130.518 134.304 130.615V130.615Z" fill="#FFCD69"/>
<path d="M132.748 128.283C133.038 129.555 133.252 130.844 133.387 132.142C133.582 133.752 133.748 134.918 132.692 134.502C132.493 134.461 132.305 134.378 132.14 134.26C131.975 134.141 131.836 133.989 131.734 133.814C131.632 133.638 131.568 133.443 131.546 133.241C131.524 133.039 131.546 132.835 131.609 132.642C131.609 132.086 131.942 129.477 132.192 128.311C132.303 127.839 132.748 128.283 132.748 128.283Z" fill="#EBAF38"/>
<path d="M131.72 127.867C131.753 128.037 131.845 128.191 131.979 128.302C132.113 128.412 132.282 128.473 132.456 128.473C132.63 128.473 132.799 128.412 132.933 128.302C133.067 128.191 133.159 128.037 133.193 127.867C133.214 127.758 133.211 127.646 133.183 127.539C133.156 127.432 133.106 127.332 133.035 127.247C132.965 127.161 132.876 127.093 132.776 127.045C132.676 126.998 132.567 126.974 132.456 126.974C132.345 126.974 132.236 126.998 132.136 127.045C132.036 127.093 131.947 127.161 131.877 127.247C131.807 127.332 131.756 127.432 131.729 127.539C131.702 127.646 131.698 127.758 131.72 127.867Z" fill="#FFCD69"/>
<path d="M130.302 126.618C130.636 128.117 130.83 129.394 130.969 130.449C131.136 132.086 131.331 133.225 130.247 132.836C130.05 132.791 129.864 132.707 129.701 132.587C129.538 132.468 129.402 132.316 129.3 132.141C129.199 131.967 129.134 131.773 129.11 131.573C129.087 131.372 129.105 131.169 129.163 130.976C129.163 130.421 129.497 127.811 129.747 126.645C129.858 126.146 130.302 126.618 130.302 126.618Z" fill="#EBAF38"/>
<path d="M129.274 126.173C129.253 126.282 129.256 126.394 129.283 126.501C129.311 126.608 129.361 126.708 129.432 126.794C129.502 126.879 129.59 126.948 129.69 126.995C129.791 127.042 129.9 127.067 130.011 127.067C130.121 127.067 130.231 127.042 130.331 126.995C130.431 126.948 130.519 126.879 130.59 126.794C130.66 126.708 130.711 126.608 130.738 126.501C130.765 126.394 130.768 126.282 130.747 126.173C130.714 126.003 130.622 125.849 130.488 125.738C130.353 125.628 130.185 125.567 130.011 125.567C129.837 125.567 129.668 125.628 129.534 125.738C129.399 125.849 129.308 126.003 129.274 126.173V126.173Z" fill="#FFCD69"/>
<path d="M127.551 125.535C127.862 126.795 128.085 128.075 128.218 129.366C128.413 131.004 128.579 132.142 127.524 131.753C127.324 131.712 127.135 131.629 126.969 131.511C126.803 131.393 126.664 131.242 126.559 131.067C126.455 130.892 126.388 130.698 126.362 130.496C126.337 130.294 126.354 130.089 126.412 129.893C126.412 129.31 126.745 126.701 127.023 125.563C127.134 125.063 127.551 125.535 127.551 125.535Z" fill="#EBAF38"/>
<path d="M126.551 125.091C126.545 125.241 126.585 125.39 126.666 125.517C126.746 125.645 126.863 125.745 127.001 125.805C127.139 125.865 127.292 125.882 127.44 125.854C127.588 125.826 127.725 125.754 127.831 125.648C127.938 125.541 128.01 125.405 128.038 125.257C128.066 125.11 128.049 124.957 127.989 124.819C127.928 124.681 127.828 124.564 127.7 124.484C127.573 124.403 127.424 124.363 127.273 124.369C127.082 124.369 126.898 124.445 126.763 124.58C126.627 124.716 126.551 124.899 126.551 125.091V125.091Z" fill="#FFCD69"/>
<path d="M125.05 125.285C125.338 126.549 125.551 127.828 125.689 129.116C125.884 130.754 126.051 131.892 124.995 131.503C124.795 131.462 124.606 131.38 124.44 131.261C124.274 131.143 124.135 130.992 124.03 130.817C123.926 130.642 123.859 130.448 123.833 130.246C123.808 130.044 123.825 129.839 123.883 129.643C123.883 129.088 124.217 126.479 124.495 125.313C124.661 124.924 125.05 125.285 125.05 125.285Z" fill="#EBAF38"/>
<path d="M124.078 124.924C124.072 125.075 124.112 125.223 124.193 125.351C124.273 125.478 124.39 125.578 124.528 125.639C124.666 125.699 124.819 125.716 124.967 125.688C125.115 125.66 125.252 125.588 125.358 125.481C125.465 125.375 125.537 125.239 125.565 125.091C125.593 124.943 125.576 124.79 125.515 124.652C125.455 124.514 125.355 124.397 125.227 124.317C125.1 124.237 124.951 124.197 124.8 124.202C124.611 124.209 124.431 124.288 124.297 124.421C124.163 124.555 124.085 124.735 124.078 124.924V124.924Z" fill="#FFCD69"/>
<path d="M122.66 124.563C122.994 126.062 123.188 127.339 123.327 128.394C123.494 130.032 123.689 131.17 122.605 130.782C122.408 130.737 122.222 130.652 122.059 130.533C121.896 130.413 121.76 130.262 121.658 130.087C121.557 129.913 121.492 129.719 121.468 129.519C121.445 129.318 121.463 129.115 121.521 128.922C121.521 128.339 121.855 125.729 122.105 124.591C122.271 124.091 122.66 124.563 122.66 124.563Z" fill="#EBAF38"/>
<path d="M121.632 124.119C121.627 124.268 121.666 124.416 121.745 124.543C121.824 124.67 121.939 124.77 122.076 124.831C122.212 124.892 122.364 124.911 122.511 124.885C122.659 124.859 122.795 124.79 122.903 124.687C123.01 124.583 123.085 124.45 123.116 124.304C123.147 124.157 123.134 124.005 123.078 123.867C123.022 123.728 122.926 123.609 122.802 123.526C122.678 123.442 122.532 123.397 122.383 123.397C122.285 123.394 122.189 123.409 122.098 123.444C122.007 123.479 121.924 123.531 121.854 123.599C121.784 123.666 121.728 123.747 121.69 123.836C121.652 123.926 121.632 124.022 121.632 124.119V124.119Z" fill="#FFCD69"/>
<path d="M120.104 122.287C120.391 123.55 120.605 124.83 120.743 126.118C120.938 127.756 121.104 128.894 120.048 128.505C119.851 128.461 119.666 128.376 119.503 128.256C119.34 128.137 119.203 127.985 119.102 127.811C119 127.636 118.935 127.443 118.912 127.242C118.888 127.042 118.906 126.839 118.965 126.645C118.965 126.09 119.298 123.481 119.548 122.315C119.659 121.815 120.104 122.287 120.104 122.287Z" fill="#EBAF38"/>
<path d="M119.076 121.843C119.07 121.993 119.11 122.142 119.191 122.269C119.271 122.397 119.388 122.497 119.526 122.557C119.664 122.617 119.817 122.634 119.965 122.606C120.113 122.578 120.249 122.506 120.356 122.4C120.463 122.293 120.535 122.157 120.563 122.009C120.591 121.862 120.574 121.709 120.513 121.571C120.453 121.433 120.353 121.316 120.225 121.236C120.098 121.155 119.949 121.115 119.798 121.121C119.609 121.128 119.429 121.206 119.295 121.34C119.161 121.474 119.083 121.653 119.076 121.843Z" fill="#FFCD69"/>
<path d="M117.964 119.372C118.252 120.635 118.465 121.915 118.603 123.203C118.798 124.841 118.965 125.979 117.909 125.59C117.709 125.55 117.521 125.467 117.356 125.349C117.191 125.23 117.053 125.078 116.95 124.903C116.848 124.727 116.784 124.532 116.762 124.33C116.741 124.128 116.762 123.924 116.825 123.73C116.825 123.175 117.158 120.538 117.408 119.4C117.52 118.817 117.964 119.372 117.964 119.372Z" fill="#EBAF38"/>
<path d="M116.936 118.845C116.93 118.995 116.97 119.144 117.051 119.271C117.131 119.398 117.248 119.499 117.386 119.559C117.524 119.619 117.677 119.636 117.825 119.608C117.973 119.58 118.11 119.508 118.216 119.402C118.323 119.295 118.395 119.159 118.423 119.011C118.451 118.863 118.434 118.71 118.374 118.572C118.313 118.434 118.213 118.318 118.085 118.237C117.958 118.157 117.809 118.117 117.658 118.123C117.469 118.13 117.289 118.208 117.155 118.342C117.021 118.476 116.943 118.655 116.936 118.845V118.845Z" fill="#FFCD69"/>
<path d="M115.63 116.596C115.928 117.868 116.15 119.156 116.297 120.455C116.491 122.093 116.658 123.231 115.602 122.814C114.546 122.398 114.379 121.621 114.491 120.982C114.602 120.344 114.824 117.79 115.074 116.651C115.185 116.068 115.63 116.596 115.63 116.596Z" fill="#EBAF38"/>
<path d="M114.602 116.096C114.602 116.244 114.646 116.389 114.728 116.513C114.811 116.636 114.928 116.732 115.065 116.789C115.202 116.845 115.353 116.86 115.498 116.831C115.644 116.802 115.778 116.731 115.883 116.626C115.987 116.521 116.059 116.388 116.088 116.242C116.117 116.097 116.102 115.946 116.045 115.809C115.988 115.672 115.892 115.555 115.769 115.473C115.645 115.391 115.5 115.347 115.352 115.347C115.253 115.347 115.156 115.366 115.065 115.404C114.974 115.441 114.891 115.497 114.821 115.566C114.752 115.636 114.696 115.718 114.659 115.809C114.621 115.9 114.602 115.998 114.602 116.096Z" fill="#FFCD69"/>
<path d="M113.045 114.264C113.343 115.527 113.566 116.806 113.712 118.095C113.907 119.733 114.074 120.871 113.018 120.482C112.818 120.441 112.629 120.358 112.463 120.24C112.297 120.122 112.158 119.971 112.053 119.796C111.949 119.621 111.882 119.427 111.856 119.225C111.831 119.023 111.848 118.818 111.906 118.622C111.906 118.039 112.24 115.43 112.49 114.292C112.601 113.82 113.045 114.264 113.045 114.264Z" fill="#EBAF38"/>
<path d="M112.017 113.82C112.012 113.969 112.051 114.117 112.13 114.243C112.209 114.37 112.324 114.471 112.461 114.532C112.597 114.593 112.749 114.612 112.896 114.586C113.044 114.56 113.18 114.491 113.288 114.387C113.395 114.284 113.47 114.15 113.501 114.004C113.532 113.858 113.519 113.706 113.463 113.567C113.407 113.429 113.311 113.31 113.187 113.227C113.063 113.143 112.917 113.098 112.768 113.098C112.67 113.094 112.574 113.11 112.483 113.145C112.392 113.179 112.309 113.232 112.239 113.299C112.169 113.367 112.113 113.448 112.075 113.537C112.037 113.626 112.017 113.723 112.017 113.82V113.82Z" fill="#FFCD69"/>
<path d="M110.406 112.793C110.729 114.045 110.98 115.315 111.156 116.596C111.35 118.234 111.517 119.372 110.461 118.983C110.262 118.942 110.074 118.86 109.909 118.742C109.743 118.623 109.605 118.471 109.503 118.295C109.401 118.12 109.337 117.925 109.315 117.723C109.293 117.521 109.315 117.317 109.377 117.123C109.377 116.568 109.711 113.959 109.961 112.793C109.961 112.321 110.406 112.793 110.406 112.793Z" fill="#EBAF38"/>
<path d="M109.377 112.348C109.372 112.499 109.412 112.648 109.492 112.775C109.572 112.902 109.689 113.003 109.827 113.063C109.966 113.123 110.119 113.14 110.267 113.112C110.415 113.084 110.551 113.012 110.658 112.906C110.764 112.799 110.836 112.663 110.864 112.515C110.892 112.367 110.875 112.214 110.815 112.076C110.755 111.938 110.654 111.822 110.527 111.741C110.399 111.661 110.25 111.621 110.1 111.627C109.91 111.634 109.731 111.712 109.597 111.846C109.463 111.98 109.384 112.159 109.377 112.348V112.348Z" fill="#FFCD69"/>
<path d="M107.627 111.988C107.95 113.249 108.201 114.528 108.377 115.819C108.571 117.456 108.738 118.595 107.682 118.206C107.483 118.165 107.294 118.082 107.128 117.964C106.962 117.846 106.822 117.695 106.718 117.52C106.613 117.345 106.546 117.15 106.521 116.948C106.496 116.746 106.513 116.541 106.571 116.346C106.571 115.791 106.904 113.181 107.154 112.015C107.182 111.516 107.627 111.988 107.627 111.988Z" fill="#EBAF38"/>
<path d="M106.598 111.543C106.577 111.652 106.58 111.764 106.608 111.871C106.635 111.978 106.685 112.078 106.756 112.164C106.826 112.249 106.915 112.318 107.015 112.365C107.115 112.412 107.224 112.437 107.335 112.437C107.446 112.437 107.555 112.412 107.655 112.365C107.755 112.318 107.844 112.249 107.914 112.164C107.984 112.078 108.035 111.978 108.062 111.871C108.089 111.764 108.093 111.652 108.071 111.543C108.038 111.373 107.946 111.219 107.812 111.108C107.678 110.998 107.509 110.937 107.335 110.937C107.161 110.937 106.992 110.998 106.858 111.108C106.724 111.219 106.632 111.373 106.598 111.543Z" fill="#FFCD69"/>
<path d="M105.126 111.988C105.413 113.251 105.627 114.53 105.765 115.819C105.959 117.456 106.126 118.595 105.07 118.206C104.871 118.165 104.683 118.083 104.517 117.964C104.352 117.846 104.214 117.694 104.112 117.518C104.01 117.343 103.945 117.147 103.924 116.945C103.902 116.743 103.923 116.539 103.986 116.346C103.986 115.791 104.32 113.181 104.57 112.015C104.681 111.516 105.126 111.988 105.126 111.988Z" fill="#EBAF38"/>
<path d="M104.097 111.543C104.092 111.694 104.132 111.842 104.212 111.97C104.293 112.097 104.409 112.198 104.548 112.258C104.686 112.318 104.839 112.335 104.987 112.307C105.135 112.279 105.271 112.207 105.378 112.101C105.484 111.994 105.556 111.858 105.584 111.71C105.612 111.562 105.595 111.409 105.535 111.271C105.475 111.133 105.374 111.017 105.247 110.936C105.119 110.856 104.971 110.816 104.82 110.822C104.631 110.828 104.451 110.907 104.317 111.041C104.183 111.175 104.104 111.354 104.097 111.543V111.543Z" fill="#FFCD69"/>
<path d="M102.652 111.988C102.961 113.248 103.184 114.528 103.319 115.819C103.514 117.456 103.681 118.595 102.625 118.206C102.425 118.165 102.236 118.082 102.07 117.964C101.904 117.846 101.765 117.695 101.66 117.52C101.556 117.345 101.489 117.15 101.463 116.948C101.438 116.746 101.455 116.541 101.513 116.346C101.513 115.791 101.847 113.181 102.124 112.015C102.236 111.516 102.652 111.988 102.652 111.988Z" fill="#EBAF38"/>
<path d="M101.652 111.543C101.647 111.694 101.687 111.842 101.767 111.97C101.847 112.097 101.964 112.198 102.102 112.258C102.24 112.318 102.393 112.335 102.541 112.307C102.69 112.279 102.826 112.207 102.932 112.101C103.039 111.994 103.111 111.858 103.139 111.71C103.167 111.562 103.15 111.409 103.09 111.271C103.029 111.133 102.929 111.017 102.801 110.936C102.674 110.856 102.525 110.816 102.374 110.822C102.185 110.828 102.005 110.907 101.871 111.041C101.737 111.175 101.659 111.354 101.652 111.543V111.543Z" fill="#FFCD69"/>
<path d="M100.374 111.044C100.671 112.306 100.894 113.586 101.041 114.875C101.207 116.513 101.402 117.651 100.346 117.262C100.146 117.221 99.9576 117.138 99.7916 117.02C99.6256 116.902 99.4859 116.751 99.3814 116.576C99.277 116.401 99.2099 116.206 99.1846 116.004C99.1593 115.802 99.1762 115.597 99.2344 115.402C99.2344 114.819 99.5678 112.21 99.8179 111.071C100.04 110.544 100.374 111.044 100.374 111.044Z" fill="#EBAF38"/>
<path d="M99.3455 110.572C99.3399 110.721 99.3792 110.869 99.4582 110.995C99.5372 111.122 99.6524 111.223 99.7889 111.284C99.9254 111.345 100.077 111.364 100.224 111.338C100.372 111.312 100.508 111.243 100.616 111.139C100.723 111.036 100.798 110.902 100.829 110.756C100.86 110.61 100.847 110.458 100.791 110.319C100.735 110.181 100.639 110.062 100.515 109.978C100.391 109.895 100.245 109.85 100.096 109.85C99.9986 109.846 99.9016 109.862 99.8107 109.897C99.7199 109.931 99.6369 109.984 99.5668 110.051C99.4968 110.119 99.4411 110.2 99.403 110.289C99.365 110.378 99.3454 110.475 99.3455 110.572V110.572Z" fill="#FFCD69"/>
<path d="M98.3173 108.989C98.6127 110.253 98.8354 111.532 98.9842 112.82C99.1788 114.458 99.3455 115.596 98.2895 115.208C98.09 115.166 97.9012 115.084 97.7352 114.966C97.5692 114.848 97.4295 114.696 97.325 114.522C97.2206 114.347 97.1535 114.152 97.1282 113.95C97.1029 113.748 97.1198 113.543 97.178 113.348C97.178 112.793 97.5114 110.155 97.7615 109.017C97.8727 108.517 98.3173 108.989 98.3173 108.989Z" fill="#EBAF38"/>
<path d="M97.2613 108.545C97.2401 108.654 97.2432 108.766 97.2704 108.873C97.2976 108.98 97.3482 109.08 97.4186 109.165C97.489 109.251 97.5774 109.319 97.6776 109.367C97.7777 109.414 97.887 109.438 97.9977 109.438C98.1085 109.438 98.2178 109.414 98.3179 109.367C98.418 109.319 98.5065 109.251 98.5769 109.165C98.6473 109.08 98.6979 108.98 98.7251 108.873C98.7523 108.766 98.7554 108.654 98.7341 108.545C98.7008 108.375 98.6091 108.221 98.4748 108.11C98.3404 108 98.1718 107.939 97.9977 107.939C97.8237 107.939 97.6551 108 97.5207 108.11C97.3864 108.221 97.2947 108.375 97.2613 108.545V108.545Z" fill="#FFCD69"/>
<path opacity="0.5" d="M105.598 19.9324H106.404C107.265 19.6826 108.016 19.405 108.766 19.1274C116.186 16.3513 118.853 12.7979 119.659 11.3266C120.021 13.0477 121.799 17.7671 130.302 22.4309C126.201 20.9497 122.5 18.5357 119.493 15.3797C119.493 15.3797 113.685 20.4877 110.378 20.9318C111.99 23.7079 114.185 28.344 111.99 30.7592C110.31 29.2955 109.109 27.361 108.544 25.207C108.544 25.207 107.099 26.2342 106.71 24.4852C106.571 23.6388 106.289 22.8222 105.876 22.07C105.64 21.5452 105.507 20.9795 105.487 20.4044C105.598 20.1823 105.598 20.0712 105.598 19.9324Z" fill="#F0A581"/>
<path d="M69.1945 29.3711C76.3252 23.8957 83.8484 18.9502 91.7035 14.5746C96.3721 12.2149 99.54 12.0206 101.402 13.1865C104.338 15.3418 106.877 17.9908 108.905 21.0151C109.655 22.4309 112.101 27.9276 111.017 27.8721C109.933 27.8165 108.96 28.0386 107.099 25.7067C105.395 23.91 103.45 22.359 101.319 21.0984C99.9847 20.0157 100.012 17.545 97.9838 18.3223C92.8707 20.2101 83.0334 31.481 80.4212 31.6198C83.1472 32.6347 85.931 33.4875 88.7579 34.1738C94.9549 35.6729 103.208 37.3108 104.653 38.671L98.095 52.8846C97.9005 52.8846 98.095 53.2733 98.095 53.2178C97.8513 52.8614 97.5278 52.5668 97.1502 52.3572C91.7035 48.665 76.6419 38.8654 75.4192 38.1158C74.1965 37.3663 66.0821 32.286 69.1945 29.3711Z" fill="#F7B799"/>
<g style="mix-blend-mode:multiply" opacity="0.3">
<path d="M116.908 103.493C104.959 101.216 100.402 98.357 98.8453 96.9967C99.2767 95.944 99.8169 94.9392 100.457 93.9985C108.155 100.717 130.608 103.326 137.555 99.7172C138.183 100.609 138.758 101.536 139.278 102.493C137.667 103.298 130.858 106.158 116.908 103.493Z" fill="#BD251E"/>
</g>
<path d="M116.38 97.9961C116.686 96.8856 116.769 94.6925 116.241 94.9979C115.713 95.3033 116.38 97.9961 116.38 97.9961Z" fill="#F0A581"/>
<path d="M117.853 61.4905C117.892 61.7165 118.009 61.9216 118.185 62.0695C118.36 62.2174 118.582 62.2985 118.812 62.2985C119.041 62.2985 119.263 62.2174 119.439 62.0695C119.614 61.9216 119.732 61.7165 119.77 61.4905C119.794 61.3511 119.787 61.2081 119.75 61.0717C119.713 60.9352 119.646 60.8084 119.555 60.7003C119.464 60.5922 119.35 60.5053 119.222 60.4457C119.093 60.3861 118.953 60.3552 118.812 60.3552C118.67 60.3552 118.53 60.3861 118.402 60.4457C118.273 60.5053 118.16 60.5922 118.068 60.7003C117.977 60.8084 117.91 60.9352 117.873 61.0717C117.836 61.2081 117.829 61.3511 117.853 61.4905Z" fill="#EBAF38"/>
<path d="M115.963 61.7404C115.963 61.927 116.019 62.1095 116.123 62.2647C116.226 62.42 116.374 62.5409 116.547 62.6124C116.719 62.6838 116.909 62.7025 117.093 62.6661C117.276 62.6297 117.444 62.5398 117.576 62.4078C117.708 62.2758 117.798 62.1076 117.835 61.9245C117.871 61.7414 117.853 61.5516 117.781 61.3791C117.71 61.2067 117.588 61.0593 117.433 60.9555C117.278 60.8518 117.095 60.7965 116.908 60.7965C116.658 60.7965 116.417 60.8959 116.24 61.0729C116.063 61.2499 115.963 61.49 115.963 61.7404V61.7404Z" fill="#EBAF38"/>
<path d="M113.935 61.9624C113.935 62.2128 114.034 62.4528 114.212 62.6298C114.389 62.8069 114.629 62.9063 114.88 62.9063C115.13 62.9063 115.371 62.8069 115.548 62.6298C115.725 62.4528 115.824 62.2128 115.824 61.9624C115.824 61.7121 115.725 61.472 115.548 61.295C115.371 61.118 115.13 61.0186 114.88 61.0186C114.629 61.0186 114.389 61.118 114.212 61.295C114.034 61.472 113.935 61.7121 113.935 61.9624V61.9624Z" fill="#EBAF38"/>
<path d="M112.128 61.6293C112.136 61.8822 112.241 62.1222 112.423 62.2985C112.605 62.4747 112.848 62.5733 113.101 62.5732C113.332 62.5459 113.545 62.4345 113.698 62.2603C113.852 62.0862 113.936 61.8615 113.935 61.6293C113.935 61.3764 113.836 61.1333 113.66 60.9519C113.483 60.7705 113.243 60.6649 112.99 60.6577C112.752 60.6851 112.532 60.7994 112.373 60.9787C112.214 61.1581 112.127 61.3898 112.128 61.6293V61.6293Z" fill="#EBAF38"/>
<path d="M110.239 61.4905C110.244 61.6771 110.305 61.8578 110.414 62.0098C110.522 62.1619 110.673 62.2784 110.848 62.3447C111.022 62.411 111.213 62.424 111.395 62.3822C111.577 62.3404 111.743 62.2456 111.871 62.1098C111.999 61.974 112.084 61.8033 112.115 61.6193C112.146 61.4352 112.122 61.2461 112.045 61.0758C111.969 60.9056 111.843 60.7618 111.685 60.6626C111.527 60.5635 111.343 60.5135 111.156 60.5189C111.032 60.5225 110.91 60.5504 110.796 60.6012C110.683 60.652 110.581 60.7246 110.496 60.8148C110.411 60.9051 110.344 61.0112 110.3 61.1271C110.256 61.243 110.235 61.3665 110.239 61.4905V61.4905Z" fill="#EBAF38"/>
<path d="M114.991 61.6016C115.787 61.9949 116.465 62.5932 116.953 63.3348C117.442 64.0764 117.723 64.9347 117.77 65.8212C118.009 67.4793 118.39 69.1139 118.909 70.7071C119.192 71.7342 119.705 72.6835 120.41 73.4832C121.228 74.037 122.2 74.3188 123.188 74.2883C126.729 74.4586 130.278 74.1787 133.748 73.4555C133.06 75.7636 132.549 78.1209 132.22 80.5067H125.995C122.665 80.7468 119.363 79.7591 116.714 77.7306C115.463 76.6202 113.546 72.8725 113.546 66.6263C113.657 65.2382 113.434 60.9075 114.991 61.6016Z" fill="#F7B799"/>
<g style="mix-blend-mode:multiply" opacity="0.3">
<path d="M86.8405 226.14C86.8405 225.696 94.3435 225.724 100.735 223.836C107.126 221.948 106.876 220.2 111.156 220.172C115.435 220.144 115.213 221.948 121.604 223.836C127.996 225.724 135.499 225.696 135.499 226.14C135.483 227.073 135.381 228.003 135.193 228.916C129.845 229.588 124.428 229.504 119.103 228.667C113.892 227.039 108.308 227.039 103.097 228.667C97.7814 229.504 92.3742 229.588 87.035 228.916C86.8696 228.001 86.8043 227.07 86.8405 226.14V226.14Z" fill="#343D63"/>
</g>
<g style="mix-blend-mode:multiply" opacity="0.3">
<path d="M99.5678 206.541H122.855C126.718 207.43 130.414 208.484 133.72 209.595C133.72 209.595 109.266 219.95 85.2009 210.872C89.881 209.09 94.6821 207.643 99.5678 206.541V206.541Z" fill="#343D63"/>
</g>
<path d="M97.9283 156.572C97.6226 158.487 95.1494 159.792 95.1494 159.792L103.486 166.621V154.073L97.9283 156.572Z" fill="#F0A581"/>
<path d="M109.044 156.572C109.35 158.487 111.823 159.792 111.823 159.792L103.486 166.621V154.073L109.044 156.572Z" fill="#F0A581"/>
<path d="M114.157 144.856C114.157 144.496 115.13 143.579 115.88 144.162C116.63 144.745 115.658 146.467 114.88 147.633C114.401 148.383 114.195 149.275 114.296 150.159C114.296 150.853 113.629 152.102 112.545 151.852C111.462 151.602 113.184 146.633 113.184 146.633L114.157 144.856Z" fill="#F7B799"/>
<path d="M92.3427 144.856C92.3427 144.496 91.3701 143.579 90.592 144.162C89.8139 144.745 90.8421 146.467 91.6202 147.633C92.149 148.465 92.4463 149.423 92.4816 150.409C92.4816 151.13 92.8985 151.852 93.9544 151.769C95.0104 151.686 93.2875 146.55 93.2875 146.55L92.3427 144.856Z" fill="#F7B799"/>
<path d="M90.8421 134.751C90.6493 136.611 90.781 138.489 91.2312 140.304C91.1556 141.805 91.4817 143.3 92.176 144.634C92.6475 146.687 93.0092 148.762 93.2598 150.853C93.2598 152.102 94.4547 153.046 94.6214 153.879C94.817 154.637 95.2939 155.292 95.9553 155.711C96.4277 156.044 97.0113 157.349 97.6504 157.432C98.2896 157.515 98.7898 158.598 99.4289 158.82C99.9539 159.015 100.442 159.297 100.874 159.653C101.622 160.121 102.493 160.353 103.375 160.319C103.903 160.319 105.709 160.319 106.404 159.57C107.099 158.82 108.46 158.043 109.183 157.404C109.905 156.766 110.128 156.932 110.656 156.044C111.184 155.156 111.517 155.211 112.462 153.629C113.407 152.047 113.018 151.741 113.268 150.131C113.268 149.992 113.268 149.881 113.268 149.742C113.432 148.27 113.711 146.813 114.101 145.384V145.384L114.379 144.634C114.911 142.981 115.21 141.262 115.269 139.526C115.88 139.915 116.575 139.304 116.575 139.304C114.991 138.61 116.575 136.001 116.186 133.169C115.797 130.338 113.685 130.199 113.685 130.199C114.852 128.644 112.851 125.674 109.85 124.369C108.321 123.57 106.557 123.343 104.876 123.73C104.876 123.73 102.097 121.787 100.457 123.564C99.8095 123.423 99.1385 123.43 98.4939 123.584C97.8494 123.738 97.2477 124.035 96.7334 124.452C94.7048 125.896 93.9545 125.59 93.2042 125.202C93.2042 125.202 92.3149 126.479 93.2042 127.423C92.4195 127.699 91.7355 128.203 91.2403 128.871C90.745 129.539 90.4612 130.34 90.4253 131.17C90.2586 134.502 89.0914 134.696 89.0914 134.696C89.6632 134.847 90.2619 134.866 90.8421 134.751V134.751Z" fill="#251F12"/>
<path d="M82.6722 140.748C86.2472 139.742 89.6552 138.217 92.7874 136.223C95.7442 134.271 98.9025 132.642 102.208 131.365C102.819 131.531 107.543 131.365 108.46 132.17C109.377 132.975 107.099 138.444 105.681 139.166C104.264 139.887 99.2344 143.302 99.2066 144.357C99.1788 145.412 107.043 145.412 107.126 147.133C107.21 148.854 100.429 147.383 97.5949 148.16C94.6972 149.325 91.5366 149.68 88.4523 149.187C86.0351 148.74 83.5953 148.425 81.1438 148.243L82.6722 140.748Z" fill="#F0A581"/>
<path d="M123.633 139.027C119.923 138.948 116.244 138.331 112.712 137.194C109.346 136.069 105.872 135.297 102.347 134.89C101.819 135.223 97.178 136.251 96.511 137.278C95.8441 138.305 99.4289 142.83 100.929 143.357C102.43 143.885 108.266 145.662 108.599 146.8C108.933 147.938 101.291 149.909 101.596 151.38C101.902 152.852 108.155 149.909 111.156 149.909C114.247 150.288 117.384 149.838 120.243 148.604C122.472 147.561 124.754 146.635 127.079 145.828L123.633 139.027Z" fill="#F7B799"/>
<path d="M50.0201 138.249C51.4373 138.083 62.3862 137.583 71.2787 137.722C75.8916 137.722 88.1466 138.444 88.1466 138.444C88.8837 142.354 88.6548 146.385 87.4796 150.187C87.4796 150.187 68.9444 150.436 65.8042 149.465C65.8042 149.465 72.1679 152.241 76.4196 154.045C80.1529 155.225 83.6246 157.11 86.646 159.597C87.593 160.573 88.7272 161.347 89.9806 161.874L103.153 189.191C103.153 189.191 111.489 171.035 115.435 161.902C116.436 162.207 118.881 161.735 121.716 159.126C124.28 156.814 127.313 155.082 130.608 154.045C133.607 152.755 136.505 151.243 139.278 149.52C134.582 149.52 119.576 149.159 119.576 149.159C118.398 145.387 118.16 141.385 118.881 137.5C118.881 137.5 151.089 139.249 152.506 139.415C153.923 139.582 158.397 141.136 158.397 143.496C158.921 146.089 158.921 148.76 158.397 151.353C157.619 155.905 148.671 158.126 143.002 164.567C137.333 171.007 133.081 175.893 131.192 181.39C128.974 187.65 127.655 194.193 127.273 200.822C127.579 204.764 126.329 209.151 126.634 216.535C126.94 223.919 127.218 227.973 127.218 227.973C120.687 231.609 109.127 232.276 103.403 232.276C95.3674 232.248 87.3866 230.955 79.7543 228.445C79.7543 228.445 79.7543 224.086 80.1711 216.535C80.588 208.984 79.2263 204.764 79.532 200.822C79.1229 194.196 77.8045 187.658 75.6137 181.39C73.7241 175.838 69.4724 171.007 63.8034 164.567C58.1345 158.126 47.3246 154.267 46.5187 149.715C45.9311 146.811 45.9311 143.818 46.5187 140.914C46.7953 140.188 47.2698 139.553 47.8885 139.083C48.5073 138.612 49.2457 138.323 50.0201 138.249V138.249Z" fill="#32549A"/>
<g style="mix-blend-mode:multiply" opacity="0.3">
<path d="M63.9147 164.567C58.3569 158.126 47.4358 154.267 46.6299 149.715C46.3232 147.974 46.1836 146.208 46.2131 144.44C46.3109 144.634 46.3855 144.839 46.4354 145.051C47.6303 149.215 68.4443 163.456 73.3351 166.621C78.226 169.786 85.2566 186.886 85.7012 196.381C86.1458 205.875 85.7012 223.864 85.7012 223.864C94.3436 228.25 120.104 227.612 126.996 223.864L127.246 228C120.715 231.637 109.155 232.303 103.431 232.303C95.3952 232.276 87.4144 230.983 79.7822 228.472C79.7822 228.472 79.7822 224.114 80.199 216.563C80.6158 209.012 79.2542 204.792 79.5598 200.85C79.1507 194.224 77.8323 187.685 75.6416 181.418C73.8075 175.893 69.4724 171.007 63.9147 164.567Z" fill="#AB763A"/>
</g>
<path d="M111.712 159.792C112.727 160.533 113.896 161.036 115.133 161.262C116.37 161.488 117.642 161.431 118.853 161.097C119.548 160.708 103.042 189.191 103.042 189.191L103.542 165.15V161.485C106.331 161.305 109.081 160.735 111.712 159.792V159.792Z" fill="#AB763A"/>
<path d="M95.2328 159.792C94.061 160.49 92.7416 160.904 91.3806 161C90.0197 161.097 88.655 160.873 87.3963 160.347C86.7016 159.931 103.041 192.328 103.041 192.328L105.015 165.927L103.486 161.485C100.669 161.312 97.8904 160.742 95.2328 159.792Z" fill="#AB763A"/>
<path d="M42.8228 162.457C42.6596 160.57 41.9937 158.761 40.8941 157.219C39.7946 155.676 38.3016 154.456 36.5703 153.684C30.2066 150.131 23.0926 149.576 13.2831 156.655C3.47362 163.734 0 166.815 0 180.724L42.8228 162.457Z" fill="#C85836"/>
<path d="M103.486 199.434H18.2295C13.3948 199.434 8.758 197.516 5.3393 194.1C1.92059 190.685 -2.89544e-05 186.053 -2.89544e-05 181.223V180.168C-2.89544e-05 175.338 1.92059 170.706 5.3393 167.291C8.758 163.876 13.3948 161.957 18.2295 161.957H103.486V199.434Z" fill="#EF9651"/>
<path d="M103.486 266.893H24.5376C21.3832 266.893 18.358 265.641 16.1275 263.413C13.897 261.185 12.644 258.163 12.644 255.012L12.644 198.268H103.486L103.486 266.893Z" fill="#BD251E"/>
<path d="M33.3745 274H26.5106C25.6631 274 24.8502 273.664 24.2509 273.065C23.6516 272.466 23.3149 271.654 23.3149 270.808V266.921H36.598V270.78C36.6017 271.204 36.5209 271.624 36.3602 272.017C36.1995 272.409 35.9622 272.765 35.6621 273.065C35.3621 273.365 35.0052 273.602 34.6125 273.763C34.2197 273.923 33.7989 274.004 33.3745 274V274Z" fill="#48423B"/>
<path opacity="0.5" d="M92.3983 165.649C92.3983 165.649 92.3983 166.066 92.3983 166.815C92.3983 167.565 92.2038 168.62 92.1482 169.897C91.9815 172.451 91.8704 175.838 91.8704 179.224C91.8704 182.611 91.8704 185.998 92.1482 188.552C92.1482 189.829 92.3428 190.884 92.3983 191.634C92.4539 192.383 92.3983 192.8 92.3983 192.8C92.3983 192.8 92.3983 192.355 92.3983 191.634C92.3983 190.912 92.5929 189.829 92.6485 188.552C92.8152 185.998 92.9263 182.611 92.9263 179.224C92.9263 175.838 92.9263 172.451 92.6485 169.897C92.6485 168.62 92.4539 167.565 92.3983 166.815C92.4198 166.427 92.4198 166.038 92.3983 165.649V165.649Z" fill="#BD251E"/>
<path opacity="0.5" d="M70.6395 165.649C70.6395 165.649 70.6395 166.066 70.6395 166.815C70.6395 167.565 70.445 168.62 70.3894 169.897C70.2227 172.451 70.0837 175.838 70.0837 179.224C70.0837 182.611 70.0837 185.998 70.3894 188.552C70.3894 189.829 70.5839 190.884 70.6395 191.634C70.6951 192.383 70.6395 192.8 70.6395 192.8V191.634C70.6395 190.884 70.8063 189.829 70.8896 188.552C71.0564 185.998 71.1675 182.611 71.1675 179.224C71.1675 175.838 71.1675 172.451 70.8896 169.897C70.8896 168.62 70.6951 167.565 70.6395 166.815C70.5839 166.066 70.6395 165.649 70.6395 165.649Z" fill="#BD251E"/>
<path opacity="0.5" d="M48.8808 165.649C48.8808 165.649 48.8808 166.066 48.7419 166.815C48.6029 167.565 48.5751 168.62 48.4918 169.897C48.325 172.451 48.2139 175.838 48.2139 179.224C48.2139 182.611 48.2139 185.998 48.4918 188.552C48.4918 189.829 48.6863 190.884 48.7419 191.634L48.8808 192.8L49.0197 191.634C49.0197 190.884 49.1865 189.829 49.2698 188.552C49.4366 185.998 49.5477 182.611 49.5477 179.224C49.5477 175.838 49.5477 172.451 49.2698 169.897C49.2698 168.62 49.0753 167.565 49.0197 166.815C48.9642 166.066 48.8808 165.649 48.8808 165.649Z" fill="#BD251E"/>
<path opacity="0.5" d="M27.122 165.649C27.122 165.649 27.122 166.066 27.122 166.815C27.122 167.565 26.9553 168.62 26.8719 169.897C26.7052 172.451 26.594 175.838 26.594 179.224C26.594 182.611 26.594 185.998 26.8719 188.552C26.8719 189.829 27.0664 190.884 27.122 191.634V192.8L27.2609 191.55C27.2609 190.801 27.4277 189.746 27.511 188.469C27.6778 185.915 27.7889 182.528 27.7889 179.141C27.7889 175.754 27.7889 172.367 27.511 169.813C27.511 168.536 27.3165 167.482 27.2331 166.732C27.1498 165.982 27.122 165.649 27.122 165.649Z" fill="#BD251E"/>
<path d="M17.7294 199.434H103.486V266.893H24.3154C22.7533 266.85 21.215 266.5 19.7885 265.863C18.362 265.225 17.0751 264.313 16.0015 263.179C14.928 262.045 14.0887 260.71 13.5316 259.251C12.9746 257.793 12.7108 256.239 12.7552 254.679V198.685C14.368 199.174 16.0437 199.427 17.7294 199.434V199.434Z" fill="#EF9651"/>
<path d="M164.177 162.457C164.329 160.571 164.988 158.76 166.083 157.216C167.179 155.672 168.671 154.452 170.402 153.684C176.793 150.131 183.907 149.576 193.717 156.655C203.526 163.734 206.944 166.815 207 180.724L164.177 162.457Z" fill="#C85836"/>
<path d="M103.486 161.985H188.77C193.605 161.985 198.242 163.904 201.661 167.319C205.079 170.734 207 175.366 207 180.196V181.251C207 186.081 205.079 190.713 201.661 194.128C198.242 197.543 193.605 199.462 188.77 199.462H103.486V161.985Z" fill="#EF9651"/>
<path d="M103.486 198.268H194.245V255.012C194.245 256.572 193.937 258.117 193.339 259.559C192.742 261 191.866 262.31 190.761 263.413C189.657 264.517 188.346 265.392 186.903 265.989C185.46 266.586 183.913 266.893 182.351 266.893H103.486V198.268Z" fill="#BD251E"/>
<path d="M170.402 266.893H183.713V270.78C183.721 271.612 183.402 272.415 182.826 273.017C182.25 273.618 181.461 273.971 180.628 274H173.625C172.778 274 171.965 273.664 171.366 273.065C170.766 272.466 170.43 271.654 170.43 270.808V266.921L170.402 266.893Z" fill="#48423B"/>
<path opacity="0.5" d="M114.574 165.649C114.574 165.649 114.574 166.066 114.574 166.815C114.574 167.565 114.407 168.62 114.324 169.897C114.157 172.451 114.046 175.838 114.046 179.224C114.046 182.611 114.046 185.998 114.324 188.552C114.324 189.829 114.518 190.884 114.574 191.634V192.8L114.713 191.634C114.713 190.884 114.88 189.829 114.963 188.552C115.13 185.998 115.241 182.611 115.241 179.224C115.241 175.838 115.241 172.451 114.963 169.897C114.963 168.62 114.768 167.565 114.713 166.815C114.657 166.066 114.574 165.649 114.574 165.649Z" fill="#BD251E"/>
<path opacity="0.5" d="M136.333 165.649C136.333 165.649 136.333 166.066 136.333 166.815C136.333 167.565 136.138 168.62 136.083 169.897C135.916 172.451 135.805 175.838 135.777 179.224C135.749 182.611 135.777 185.998 136.083 188.552C136.083 189.829 136.277 190.884 136.333 191.634C136.388 192.383 136.333 192.8 136.333 192.8V191.634C136.333 190.884 136.499 189.829 136.583 188.552C136.749 185.998 136.861 182.611 136.861 179.224C136.861 175.838 136.861 172.451 136.583 169.897C136.583 168.62 136.388 167.565 136.333 166.815C136.277 166.066 136.333 165.649 136.333 165.649Z" fill="#BD251E"/>
<path opacity="0.5" d="M158.119 165.649C158.098 166.038 158.098 166.427 158.119 166.815C158.119 167.565 157.952 168.62 157.869 169.897C157.702 172.451 157.591 175.838 157.591 179.224C157.591 182.611 157.591 185.998 157.869 188.552C157.869 189.829 158.064 190.884 158.119 191.634C158.175 192.383 158.119 192.8 158.119 192.8C158.119 192.8 158.119 192.355 158.119 191.634C158.119 190.912 158.314 189.829 158.369 188.552C158.536 185.998 158.647 182.611 158.675 179.224C158.703 175.838 158.675 172.451 158.369 169.897C158.369 168.62 158.175 167.565 158.119 166.815C158.064 166.066 158.119 165.649 158.119 165.649Z" fill="#BD251E"/>
<path opacity="0.5" d="M179.878 165.649C179.878 165.649 179.878 166.066 179.878 166.815C179.878 167.565 179.711 168.62 179.628 169.897C179.461 172.451 179.35 175.838 179.35 179.224C179.35 182.611 179.35 185.998 179.628 188.552C179.628 189.829 179.822 190.884 179.878 191.634V192.8C179.878 192.8 179.878 192.355 179.878 191.634C179.878 190.912 180.073 189.829 180.156 188.552C180.323 185.998 180.434 182.611 180.434 179.224C180.434 175.838 180.434 172.451 180.128 169.897C180.128 168.62 179.934 167.565 179.878 166.815C179.822 166.066 179.878 165.649 179.878 165.649Z" fill="#BD251E"/>
<path d="M189.271 199.434H103.486V266.893H182.685C184.247 266.85 185.785 266.5 187.212 265.863C188.638 265.225 189.925 264.313 190.998 263.179C192.072 262.045 192.911 260.71 193.468 259.251C194.025 257.793 194.289 256.239 194.245 254.679V198.685C192.632 199.174 190.956 199.427 189.271 199.434V199.434Z" fill="#EF9651"/>
<path d="M12.7551 198.685C14.368 199.174 16.0437 199.427 17.7294 199.434H189.271C190.956 199.427 192.632 199.174 194.245 198.685V203.099L12.7551 210.206V198.685Z" fill="#DB7743"/>
<g style="mix-blend-mode:multiply" opacity="0.5">
<g style="mix-blend-mode:multiply" opacity="0.5">
<path d="M36.5703 266.893H23.2594V269.059H36.5703V266.893Z" fill="#48423B"/>
</g>
<g style="mix-blend-mode:multiply" opacity="0.5">
<path d="M183.713 266.893H170.402V269.059H183.713V266.893Z" fill="#48423B"/>
</g>
</g>
<path d="M193.133 259.898C192.257 261.949 190.803 263.702 188.948 264.944C187.093 266.186 184.917 266.863 182.685 266.893H24.2876C22.0645 266.852 19.9008 266.17 18.0568 264.929C16.2129 263.688 14.7675 261.94 13.8945 259.898H193.133Z" fill="#DB7743"/>
</svg>
