<svg width="32" height="32" viewBox="0 0 32 32" fill="none" xmlns="http://www.w3.org/2000/svg">
<path d="M20.0313 26.8989C20.3183 27.18 20.6836 27.3333 21.1142 27.3333C21.9752 27.3333 22.6667 26.6689 22.6667 25.8256C22.6667 25.4039 22.484 25.0206 22.184 24.7268L13.0515 15.9872L22.184 7.27316C22.484 6.97929 22.6667 6.5832 22.6667 6.17433C22.6667 5.33104 21.9752 4.66663 21.1142 4.66663C20.6836 4.66663 20.3183 4.81995 20.0313 5.10105L9.88128 14.8117C9.51598 15.1439 9.34638 15.5528 9.33333 16C9.33333 16.4472 9.51598 16.8305 9.88128 17.1755L20.0313 26.8989Z" fill="white"/>
</svg>
