<svg width="238" height="175" viewBox="0 0 238 175" fill="none" xmlns="http://www.w3.org/2000/svg">
<path d="M220.074 48.58H119.139V108.882H227.776L225.393 53.4064C225.301 52.0698 224.696 50.8209 223.704 49.9213C222.712 49.0216 221.411 48.5409 220.074 48.58V48.58Z" fill="#BD251E"/>
<path d="M207.55 143.777H214.366V139.616H207.55V143.777Z" fill="#48423B"/>
<path d="M203.505 168.824H208.576V158.006H203.505V168.824Z" fill="#48423B"/>
<path d="M203.505 168.824L197.077 155.121V146.439L203.505 158.006V168.824Z" fill="#31261A"/>
<path d="M208.576 158.006L201.15 146.439H197.077L203.505 158.006H208.576Z" fill="#595550"/>
<path d="M202.48 154.095H204.78V139.616H202.48V154.095Z" fill="#48423B"/>
<path d="M202.48 154.095L200.79 150.766V136.925L202.48 139.616V154.095Z" fill="#31261A"/>
<path d="M207.523 139.616V143.777L205.666 139.616H207.523Z" fill="#31261A"/>
<path d="M30.4773 139.616H23.6615V143.777H30.4773V139.616Z" fill="#48423B"/>
<path d="M34.4948 158.006H29.4244V168.824H34.4948V158.006Z" fill="#48423B"/>
<path d="M34.5225 168.824L40.9504 155.121V146.439L34.5225 158.006V168.824Z" fill="#31261A"/>
<path d="M29.4244 158.006L36.8775 146.439H40.9504L34.5225 158.006H29.4244Z" fill="#595550"/>
<path d="M35.5199 139.616H33.2202V154.095H35.5199V139.616Z" fill="#48423B"/>
<path d="M35.5199 154.095L37.21 150.489V136.925L35.5199 139.616V154.095Z" fill="#31261A"/>
<path d="M30.4773 139.616V143.777L32.3613 139.616H30.4773Z" fill="#31261A"/>
<path d="M119.139 121.753V139.616H235.977C236.514 139.616 237.028 139.403 237.408 139.023C237.787 138.643 238 138.128 238 137.591V121.753H119.139Z" fill="#F19649"/>
<path d="M227.859 108.882H185.413H119V121.753H185.413H238L227.859 108.882Z" fill="#EFB469"/>
<path d="M17.9262 48.58H119.139V108.882H10.2238L12.6065 53.4064C12.699 52.0698 13.3044 50.8209 14.296 49.9213C15.2877 49.0216 16.5885 48.5409 17.9262 48.58Z" fill="#BD251E"/>
<path d="M220.074 48.58H119.139V108.882H227.776L225.393 53.4064C225.301 52.0698 224.696 50.8209 223.704 49.9213C222.712 49.0216 221.411 48.5409 220.074 48.58V48.58Z" fill="#F19649"/>
<path d="M17.9262 48.58H119.139V108.882H10.2238L12.6065 53.4064C12.699 52.0698 13.3044 50.8209 14.296 49.9213C15.2877 49.0216 16.5885 48.5409 17.9262 48.58Z" fill="#F19649"/>
<path d="M119.139 121.753V139.616H2.02258C1.75697 139.616 1.49397 139.563 1.24857 139.462C1.00318 139.36 0.780216 139.211 0.592401 139.023C0.404587 138.835 0.255604 138.612 0.15396 138.366C0.0523157 138.12 0 137.857 0 137.591L0 121.753H119.139Z" fill="#F19649"/>
<path d="M10.1683 108.882H52.5872H119V121.753H52.5872H0L10.1683 108.882Z" fill="#EFB469"/>
<path opacity="0.5" d="M37.21 60.3409C37.21 60.3409 37.21 60.9788 37.3762 62.1161C37.5424 63.2533 37.5702 64.8899 37.6256 66.7483C37.7641 70.5761 37.6256 75.6799 37.6256 80.7837C37.6256 85.8875 37.016 90.9913 36.545 94.6527C36.3511 96.5666 36.0463 98.1476 35.9078 99.2572C35.7692 100.367 35.603 101.005 35.603 101.005C35.603 101.005 35.603 100.367 35.4644 99.2572C35.3259 98.1476 35.2705 96.4834 35.2151 94.5972C35.2151 90.7693 35.2151 85.6656 35.2151 80.5618C35.2151 75.458 35.8246 70.382 36.2956 66.5541C36.4896 64.668 36.7667 63.0592 36.9052 61.9497C37.0437 60.8401 37.21 60.3409 37.21 60.3409Z" fill="#A31B15"/>
<path d="M69.0726 60.3409C69.3213 61.4094 69.4972 62.4937 69.599 63.5862C69.8139 65.9467 69.8694 68.3191 69.7653 70.6871C69.6508 73.0611 69.3731 75.4245 68.9341 77.7603C68.7218 78.8394 68.4443 79.9047 68.1029 80.9501C67.859 79.918 67.6832 78.871 67.5764 77.8157C67.1604 73.0815 67.3934 68.3126 68.2691 63.6417C68.4604 62.5241 68.7289 61.4212 69.0726 60.3409V60.3409Z" fill="#A31B15"/>
<path opacity="0.5" d="M200.79 60.3409C200.79 60.3409 200.79 61.0066 201.095 62.1993C201.4 63.392 201.51 64.9731 201.732 67.0534C202.175 71.0754 202.591 76.4288 202.813 81.81C203.034 87.1912 203.034 92.5723 202.813 96.5943C202.813 98.6192 202.619 100.311 202.563 101.476C202.508 102.641 202.397 103.335 202.397 103.335C202.397 103.335 202.397 102.669 202.092 101.504C201.787 100.339 201.677 98.7301 201.455 96.6498C201.012 92.6278 200.596 87.2744 200.374 81.8932C200.153 76.5121 200.18 71.1309 200.374 67.0812C200.374 65.084 200.568 63.392 200.624 62.1993C200.679 61.0066 200.79 60.3409 200.79 60.3409Z" fill="#A31B15"/>
<path d="M169.01 60.3409C169.352 61.3863 169.629 62.4515 169.842 63.5307C170.709 68.2409 170.905 73.0505 170.423 77.8157C170.322 78.9082 170.146 79.9925 169.897 81.0611C169.528 80.0009 169.231 78.9166 169.01 77.8157C168.558 75.482 168.28 73.1177 168.179 70.7426C168.053 68.3754 168.099 66.0021 168.318 63.6417C168.472 62.5266 168.703 61.4237 169.01 60.3409V60.3409Z" fill="#A31B15"/>
<path opacity="0.5" d="M26.9862 70.0769C28.0359 69.8199 29.0998 69.6254 30.1725 69.4944C32.5063 69.1912 34.8566 69.0337 37.21 69.0228C39.591 69.0302 41.9693 69.1877 44.3306 69.4944C45.4043 69.6437 46.4683 69.8567 47.5168 70.1323C46.4693 70.4056 45.4049 70.6094 44.3306 70.7426C41.9996 71.0734 39.6473 71.231 37.2931 71.2141C34.9393 71.2172 32.588 71.0596 30.2556 70.7426C29.152 70.5948 28.0597 70.3724 26.9862 70.0769V70.0769Z" fill="#A31B15"/>
<path d="M57.8792 70.0769C58.8924 69.8241 59.9192 69.6297 60.9546 69.4944C65.6252 68.8656 70.3589 68.8656 75.0296 69.4944C76.1033 69.6437 77.1673 69.8567 78.2158 70.1323C77.1683 70.4056 76.1039 70.6094 75.0296 70.7426C72.6986 71.0734 70.3463 71.231 67.9921 71.2141C65.637 71.1988 63.2857 71.0227 60.9546 70.6871C59.9176 70.5492 58.8903 70.3454 57.8792 70.0769V70.0769Z" fill="#A31B15"/>
<path opacity="0.5" d="M26.1273 89.0496C27.1857 88.7761 28.2587 88.5631 29.3413 88.4116C31.6736 88.0936 34.0249 87.9361 36.3788 87.9401C38.7325 87.9381 41.0837 88.0956 43.4163 88.4116C44.4928 88.5442 45.5579 88.7575 46.6025 89.0496C45.555 89.3228 44.4906 89.5267 43.4163 89.6598C41.0852 89.9897 38.733 90.1473 36.3788 90.1314C34.0249 90.1354 31.6736 89.9778 29.3413 89.6598C28.2582 89.5246 27.1847 89.3207 26.1273 89.0496Z" fill="#A31B15"/>
<path opacity="0.5" d="M211.041 70.0769C209.984 70.348 208.911 70.5518 207.828 70.6871C205.495 71.0051 203.144 71.1626 200.79 71.1587C198.436 71.1746 196.084 71.017 193.753 70.6871C192.678 70.5539 191.614 70.3501 190.566 70.0769C191.616 69.8199 192.68 69.6254 193.753 69.4944C196.086 69.1922 198.437 69.0347 200.79 69.0228C203.134 69.0339 205.475 69.1914 207.8 69.4944C208.891 69.6265 209.973 69.821 211.041 70.0769V70.0769Z" fill="#A31B15"/>
<path d="M180.093 70.0769C179.037 70.3516 177.963 70.5555 176.879 70.6871C174.547 71.0051 172.196 71.1626 169.842 71.1587C167.487 71.1746 165.135 71.017 162.804 70.6871C161.73 70.5539 160.665 70.3501 159.618 70.0769C160.686 69.8177 161.768 69.6232 162.86 69.4944C165.193 69.1922 167.544 69.0347 169.897 69.0228C172.25 69.0327 174.601 69.1902 176.935 69.4944C177.998 69.626 179.053 69.8205 180.093 70.0769V70.0769Z" fill="#A31B15"/>
<path opacity="0.5" d="M137.896 60.3409C138.237 61.3863 138.515 62.4515 138.727 63.5307C139.164 65.8668 139.442 68.23 139.558 70.6039C139.683 73.0086 139.627 75.4193 139.392 77.8157C139.29 78.9082 139.114 79.9925 138.866 81.0611C138.524 79.9989 138.256 78.9146 138.062 77.8157C137.609 75.482 137.332 73.1177 137.231 70.7426C137.099 68.3749 137.154 66.0005 137.397 63.6417C137.48 62.5304 137.647 61.427 137.896 60.3409V60.3409Z" fill="#A31B15"/>
<path opacity="0.5" d="M149.117 70.0769C148.06 70.348 146.986 70.5518 145.903 70.6871C143.571 71.0051 141.219 71.1626 138.866 71.1587C136.511 71.1746 134.159 71.017 131.828 70.6871C130.754 70.5539 129.689 70.3501 128.642 70.0769C129.692 69.8199 130.755 69.6254 131.828 69.4944C134.162 69.1922 136.512 69.0347 138.866 69.0228C141.219 69.0327 143.569 69.1902 145.903 69.4944C146.985 69.6275 148.058 69.822 149.117 70.0769V70.0769Z" fill="#A31B15"/>
<path opacity="0.5" d="M100.104 60.3409C100.353 61.4094 100.529 62.4937 100.63 63.5862C100.845 65.9467 100.901 68.3191 100.797 70.6871C100.682 73.0611 100.405 75.4245 99.9655 77.7603C99.7533 78.8394 99.4757 79.9047 99.1343 80.9501C98.8905 79.918 98.7146 78.871 98.6079 77.8157C98.1919 73.0815 98.4249 68.3126 99.3006 63.6417C99.4919 62.5241 99.7603 61.4212 100.104 60.3409V60.3409Z" fill="#A31B15"/>
<path opacity="0.5" d="M88.9106 70.0769C89.9603 69.8199 91.0243 69.6254 92.0969 69.4944C96.7675 68.8656 101.501 68.8656 106.172 69.4944C107.246 69.6437 108.31 69.8567 109.358 70.1323C108.311 70.4056 107.246 70.6094 106.172 70.7426C103.841 71.0734 101.489 71.231 99.1344 71.2141C96.7806 71.2172 94.4293 71.0596 92.0969 70.7426C91.0213 70.5912 89.9569 70.3688 88.9106 70.0769Z" fill="#A31B15"/>
<path opacity="0.5" d="M211.873 89.0496C210.816 89.3243 209.742 89.5282 208.659 89.6598C206.336 89.9769 203.994 90.1344 201.649 90.1314C199.295 90.1493 196.942 89.9916 194.611 89.6598C193.528 89.5282 192.454 89.3243 191.397 89.0496C192.451 88.7559 193.526 88.5427 194.611 88.4116C199.273 87.7834 203.997 87.7834 208.659 88.4116C209.742 88.5593 210.815 88.7724 211.873 89.0496Z" fill="#A31B15"/>
<path d="M34.3839 111.379C34.3715 111.863 34.3158 112.346 34.2177 112.821C33.9981 113.782 33.6632 114.714 33.2203 115.595C32.773 116.5 32.2044 117.34 31.5301 118.091C31.2196 118.456 30.8661 118.782 30.4773 119.062C30.4905 118.586 30.5462 118.113 30.6435 117.647C30.8649 116.686 31.1997 115.755 31.641 114.874C32.096 113.973 32.664 113.134 33.3311 112.377C33.6496 112.012 34.0022 111.677 34.3839 111.379V111.379Z" fill="#A31B15"/>
<path d="M63.5036 111.379C63.6257 111.805 63.7091 112.241 63.753 112.682C63.822 113.61 63.7661 114.543 63.5867 115.456C63.3884 116.359 63.0814 117.235 62.6724 118.063C62.4653 118.452 62.2143 118.815 61.9243 119.145C61.8045 118.72 61.7302 118.283 61.7027 117.842C61.6206 116.914 61.6766 115.979 61.8689 115.068C62.0808 113.716 62.6446 112.443 63.5036 111.379V111.379Z" fill="#A31B15"/>
<path d="M16.624 115.345C16.624 115.345 20.6415 115.068 26.6261 114.846C29.6461 114.846 33.1372 114.624 36.8776 114.596H48.6529H60.4005C64.1409 114.596 67.6596 114.79 70.652 114.846C76.6643 115.068 80.6541 115.345 80.6541 115.345C80.6541 115.345 76.6643 115.623 70.652 115.844C67.6596 115.844 64.1409 116.094 60.4005 116.122H48.6529H36.8776C33.1372 116.122 29.6461 115.928 26.6261 115.844C20.503 115.623 16.624 115.345 16.624 115.345Z" fill="#A31B15"/>
<path d="M203.644 111.379C204.017 111.677 204.369 112.001 204.697 112.349C205.345 113.115 205.903 113.952 206.359 114.846C206.82 115.722 207.165 116.654 207.384 117.62C207.465 118.087 207.512 118.56 207.523 119.034C207.141 118.746 206.788 118.421 206.47 118.063C205.815 117.303 205.257 116.465 204.807 115.567C204.353 114.691 204.018 113.758 203.81 112.793C203.714 112.327 203.658 111.854 203.644 111.379V111.379Z" fill="#A31B15"/>
<path d="M174.552 111.379C174.838 111.722 175.088 112.094 175.3 112.488C175.713 113.305 176.021 114.172 176.214 115.068C176.392 115.981 176.448 116.914 176.38 117.842C176.337 118.283 176.253 118.719 176.131 119.145C175.852 118.806 175.602 118.444 175.383 118.063C174.972 117.238 174.674 116.361 174.496 115.456C174.302 114.545 174.246 113.61 174.33 112.682C174.358 112.241 174.432 111.804 174.552 111.379Z" fill="#A31B15"/>
<path d="M221.653 115.345C221.653 115.345 217.663 115.623 211.651 115.844C208.659 115.844 205.14 116.094 201.4 116.122H189.652H177.877C174.136 116.122 170.645 115.928 167.625 115.844C161.641 115.623 157.623 115.345 157.623 115.345C157.623 115.345 161.641 115.068 167.625 114.846C170.645 114.846 174.136 114.624 177.877 114.596H189.652H201.4C205.14 114.596 208.659 114.79 211.651 114.846C217.525 115.068 221.653 115.345 221.653 115.345Z" fill="#A31B15"/>
<path d="M0 133.292V137.563C0 138.1 0.213093 138.615 0.592401 138.995C0.971709 139.375 1.48616 139.588 2.02258 139.588H235.977C236.514 139.588 237.028 139.375 237.408 138.995C237.787 138.615 238 138.1 238 137.563V133.292H0Z" fill="#D66E36"/>
<g style="mix-blend-mode:multiply" opacity="0.3">
<path d="M220.185 108.327C220.185 111.268 198.934 113.653 172.723 113.653C146.513 113.653 125.262 111.268 125.262 108.327C125.262 105.387 146.513 103.03 172.723 103.03C198.934 103.03 220.185 105.554 220.185 108.327Z" fill="#A31B15"/>
</g>
<path d="M208.631 157.285C208.655 158.747 209.039 160.18 209.75 161.458C210.46 162.735 211.475 163.817 212.704 164.608C216.721 167.382 219.27 169.323 219.27 171.293C219.27 171.293 220.046 171.487 220.185 172.652C220.323 173.817 218.162 174.288 212.51 174.094C206.858 173.9 205.583 174.094 204.198 172.458C203.164 171.068 202.005 169.778 200.735 168.602H200.457C200.457 168.602 200.818 169.046 200.457 169.323C198.691 168.874 197.045 168.04 195.637 166.882C195.522 165.729 195.522 164.568 195.637 163.415C195.223 161.59 195.52 159.675 196.468 158.062C198.047 155.482 208.631 157.285 208.631 157.285Z" fill="#5B381B"/>
<g style="mix-blend-mode:multiply" opacity="0.3">
<path d="M210.072 162.084C209.285 160.593 208.795 158.963 208.631 157.285C208.631 157.285 198.047 155.482 196.717 158.006C196.286 158.737 195.977 159.533 195.803 160.364C200.244 162.479 205.255 163.083 210.072 162.084V162.084Z" fill="#5B381B"/>
</g>
<path d="M135.402 157.285C135.363 158.747 134.97 160.178 134.255 161.453C133.541 162.729 132.527 163.812 131.302 164.608C127.451 167.298 124.68 169.351 124.68 171.293C124.68 171.293 123.904 171.57 124.098 172.735C124.292 173.9 125.788 174.288 131.468 174.094C137.148 173.9 138.367 174.094 139.614 172.458C140.647 171.068 141.806 169.778 143.077 168.602H143.354C143.354 168.602 143.022 169.046 143.354 169.323C145.131 168.88 146.788 168.046 148.203 166.882C148.303 165.729 148.303 164.569 148.203 163.415C148.603 161.589 148.306 159.68 147.372 158.062C145.959 155.482 135.402 157.285 135.402 157.285Z" fill="#5B381B"/>
<g style="mix-blend-mode:multiply" opacity="0.3">
<path d="M135.402 157.285C135.181 158.117 135.125 159.171 134.765 160.336C138.992 162.279 143.608 163.228 148.258 163.11C148.645 161.356 148.347 159.52 147.427 157.978C145.959 155.482 135.402 157.285 135.402 157.285Z" fill="#5B381B"/>
</g>
<path d="M161.031 90.1591C149.089 92.9329 138.866 97.1768 137.342 100.672C134.618 108.08 133.54 115.993 134.183 123.861C134.904 134.956 132.521 157.729 133.878 158.644C138.693 160.262 143.923 160.125 148.646 158.256C148.809 158.194 148.949 158.084 149.048 157.94C149.147 157.796 149.2 157.626 149.2 157.451C149.062 155.232 148.618 147.355 148.618 144.664C148.618 141.974 150.53 118.369 149.311 111.212C154.35 111.837 159.451 111.753 164.467 110.963C166.91 110.22 169.449 109.837 172.003 109.825V90.1591H161.031Z" fill="#373636"/>
<path d="M182.864 90.1591C194.833 92.9329 205.029 97.1768 206.553 100.672C209.276 108.08 210.363 115.991 209.739 123.861C208.991 134.956 211.374 157.729 210.016 158.644C205.245 160.236 200.067 160.098 195.387 158.256C195.219 158.201 195.074 158.093 194.974 157.947C194.874 157.802 194.824 157.628 194.833 157.451C194.833 155.232 195.387 147.355 195.387 144.664C195.387 141.974 193.475 118.369 194.695 111.212C189.665 111.837 184.573 111.753 179.567 110.963C177.113 110.22 174.566 109.837 172.003 109.825V90.1591H182.864Z" fill="#373636"/>
<path d="M124.153 172.735C124.347 173.733 125.843 174.288 131.523 174.094C137.203 173.9 138.422 174.094 139.669 172.458C140.702 171.068 141.862 169.778 143.132 168.602H143.409C143.409 168.602 143.077 169.046 143.409 169.323C145.187 168.88 146.843 168.046 148.258 166.882C148.384 165.86 148.384 164.826 148.258 163.803C146.559 165.05 144.772 166.172 142.911 167.16C141.415 167.77 138.533 170.738 136.344 171.736C132.497 172.743 128.439 172.588 124.68 171.293V171.293C124.68 171.293 123.959 171.598 124.153 172.735Z" fill="#45260D"/>
<path d="M219.852 172.735C219.686 173.733 218.162 174.288 212.51 174.094C206.858 173.9 205.583 174.094 204.198 172.458C203.165 171.068 202.005 169.778 200.735 168.602H200.458C200.458 168.602 200.818 169.046 200.458 169.323C198.691 168.874 197.045 168.04 195.637 166.882C195.507 165.86 195.507 164.826 195.637 163.803C197.346 165.049 199.142 166.171 201.012 167.16C202.48 167.77 205.389 170.738 207.578 171.736C211.384 172.745 215.402 172.61 219.132 171.348V171.348C219.132 171.348 220.046 171.598 219.852 172.735Z" fill="#45260D"/>
<path d="M194.999 108.66C194.999 108.244 187.906 108.272 181.839 106.469C175.771 104.666 176.048 103.057 172.003 103.03C167.958 103.002 168.207 104.694 162.167 106.469C156.127 108.244 149.145 108.244 149.034 108.66C149.048 109.508 149.14 110.354 149.311 111.184C154.35 111.809 159.451 111.725 164.467 110.935C169.386 109.418 174.647 109.418 179.567 110.935C184.573 111.725 189.665 111.809 194.694 111.184C194.876 110.355 194.978 109.509 194.999 108.66V108.66Z" fill="#2E2E2F"/>
<path d="M182.864 90.1591H161.031C157.401 91.019 153.938 91.9898 150.807 92.9329L151.832 92.5723C165.995 98.7395 181.968 99.2947 196.523 94.1256V94.1256C192.065 92.4945 187.502 91.1692 182.864 90.1591V90.1591Z" fill="#2E2E2F"/>
<path d="M148.757 65.2505C150.248 73.005 150.126 80.9841 148.397 88.689C148.397 88.689 153.938 96.7885 172.723 95.9563C191.508 95.1242 193.642 93.9592 193.642 93.9592C193.642 93.9592 193.642 86.9415 193.946 78.6756C194.363 71.7668 195.224 64.8921 196.523 58.0941C197.377 52.9049 197.951 47.6733 198.241 42.4221C198.241 41.5068 194.362 30.7167 194.362 30.7167C194.362 30.7167 184.388 32.3255 181.977 30.0788C181.275 29.4787 180.743 28.7034 180.437 27.8314C180.13 26.9595 180.06 26.0219 180.232 25.1137L173.776 26.14V49.2179L152.193 51.7421L148.757 65.2505Z" fill="#373636"/>
<g style="mix-blend-mode:multiply" opacity="0.2">
<path d="M193.946 78.6756C167.376 78.2595 158.51 71.1586 157.928 69.9104C157.346 68.6622 156.792 56.5685 155.878 52.602L154.049 51.6034L152.137 51.8253L148.757 65.2505C150.248 73.005 150.126 80.9841 148.397 88.689C148.397 88.689 153.938 96.7885 172.723 95.9563C191.508 95.1242 193.642 93.9592 193.642 93.9592C193.642 93.9592 193.725 86.9415 193.946 78.6756Z" fill="#343D63"/>
</g>
<path d="M162.943 76.3456C161.557 76.3456 161.419 77.0391 159.064 76.0405C156.709 75.042 151.334 71.6857 149.616 70.7981C152.575 65.067 154.693 58.9385 155.905 52.602L173.748 49.3012V26.2232L168.013 25.6407C168.013 30.1343 162.222 32.9635 155.905 33.13C149.588 33.2964 145.294 35.4877 142.661 43.3375C140.029 51.1873 140.861 57.3452 138.727 62.7541C136.594 68.163 136.15 76.623 139.337 79.0085C142.523 81.394 159.59 86.4423 163.247 85.3882C165.187 84.8335 165.464 84.3619 165.603 84.1677C165.741 83.9736 161.918 80.2844 162.943 76.3456Z" fill="#373636"/>
<path d="M166.96 84.2787C169.315 84.9444 170.424 81.5049 173.36 81.5049C176.297 81.5049 179.179 84.4729 178.181 77.9267C177.6 74.1821 176.214 73.4332 172.003 73.128C167.791 72.8229 164.356 76.5675 162.943 76.4566C161.918 80.3954 165.713 84.1955 165.713 84.2232C165.713 84.2509 165.852 83.9458 166.96 84.2787Z" fill="#F7B799"/>
<path d="M176.187 83.0027C176.713 82.864 177.96 82.1428 178.154 81.3939L176.27 81.8932L176.187 83.0027Z" fill="#F7B799"/>
<path d="M166.24 29.7459C164.396 31.2858 162.179 32.3097 159.812 32.7139L174.247 59.2591L185.884 31.216H185.634L166.24 29.7459Z" fill="#D8D8D8"/>
<path d="M59.5415 37.3184L44.6354 70.9922L51.1187 93.9592L64.0854 97.787L89.2154 90.1591C89.2154 90.1591 95.4493 72.4068 95.0615 69.6885C94.6736 66.9702 84.339 48.7464 84.339 48.7464L66.0803 38.0673L59.5415 37.3184Z" fill="#32549A"/>
<path d="M33.4419 150.711C33.6718 153.43 32.9787 156.147 31.4748 158.422C29.6966 160.924 27.3513 162.968 24.6312 164.386C22.9134 164.968 21.6112 165.052 21.3064 166.771C21.0017 168.491 21.0294 169.24 21.6943 169.712C24.813 171.257 28.2766 171.974 31.7518 171.792C34.8827 171.043 35.8247 170.571 36.2957 169.517C36.7667 168.463 36.2957 168.103 38.2906 167.243C40.2855 166.383 42.9453 166.3 43.6103 163.803C44.1488 161.96 43.9809 159.982 43.1393 158.256C42.1508 156.308 41.9427 154.056 42.5574 151.959C43.2224 148.159 33.4419 150.711 33.4419 150.711Z" fill="#5B381B"/>
<path d="M42.3634 153.429C42.3634 152.958 42.3634 152.459 42.5574 151.931C42.6393 151.554 42.5802 151.159 42.3911 150.822C42.2859 151.687 42.2766 152.562 42.3634 153.429V153.429Z" fill="#45260D"/>
<path d="M43.6103 161.39C42.9453 163.942 40.2855 164.164 38.2906 164.885C36.2957 165.606 36.7667 166.133 36.2957 167.187C35.8247 168.241 34.8827 168.685 31.7518 169.462C28.2776 169.63 24.8174 168.914 21.6943 167.382C21.5266 167.253 21.3855 167.093 21.2787 166.91C21.0294 168.519 21.0571 169.24 21.6943 169.684C24.813 171.23 28.2766 171.946 31.7518 171.764C34.8827 171.015 35.8247 170.544 36.2957 169.49C36.7667 168.436 36.2957 168.075 38.2906 167.215C40.2855 166.355 42.9453 166.3 43.6103 163.803C43.8879 162.707 43.9537 161.568 43.8042 160.447C43.7488 160.697 43.6934 161.03 43.6103 161.39Z" fill="#45260D"/>
<path d="M86.6387 62.0883C86.6387 62.0883 81.6792 76.3179 78.0496 78.2873C74.4201 80.2567 56.4108 82.3093 56.4108 82.3093L49.1793 87.108L51.1188 93.9592L64.0855 97.7871L89.2154 90.1591C89.2154 90.1591 93.0112 79.3136 94.4797 73.2667C90.3237 67.3031 86.6387 62.0883 86.6387 62.0883Z" fill="#2E4A82"/>
<path d="M43.5271 159.143C39.4988 159.148 35.4739 158.907 31.4747 158.422C32.8593 156.511 33.5354 154.177 33.3865 151.821L35.9632 150.184C38.7339 149.712 43.0007 149.407 42.5574 151.931C41.9352 154.036 42.1435 156.3 43.1392 158.256C43.2906 158.541 43.4203 158.838 43.5271 159.143V159.143Z" fill="#45260D"/>
<path d="M57.3528 40.952C57.99 45.0295 56.9649 46.9712 57.3528 49.5508C57.7407 52.1304 67.8536 76.5121 71.4 77.0946C71.4 77.0946 75.6668 57.678 76.027 53.9334C76.3872 50.1888 76.027 46.6106 76.4703 41.8674C76.9136 37.1242 57.3528 40.952 57.3528 40.952Z" fill="#E3D8C1"/>
<path d="M68.9618 101.254V111.989C66.1087 111.897 63.2705 112.437 60.6498 113.57C56.7432 115.401 46.27 115.595 46.27 115.595C46.4888 116.989 46.5908 118.4 46.5748 119.811C46.4318 125.946 45.8577 132.064 44.857 138.118C43.3608 145.579 46.5471 154.955 44.857 157.008C43.1669 159.06 31.5301 158.422 30.2002 156.203C28.8703 153.984 29.9508 123.833 29.9508 120.393C29.9508 116.954 29.7015 107.329 29.9508 103.751C30.2002 100.173 31.5301 94.6527 39.6482 95.4293C47.7662 96.206 68.9618 101.254 68.9618 101.254Z" fill="#343D63"/>
<g style="mix-blend-mode:multiply" opacity="0.5">
<path d="M56.6601 107.717C54.3881 109.964 45.7159 110.491 45.7159 110.491C46.0335 112.196 46.2464 113.919 46.3532 115.65C46.3532 115.65 56.8263 115.456 60.7329 113.625C63.3536 112.492 66.1918 111.953 69.0449 112.044V101.254C66.6359 101.368 64.2803 102.004 62.1417 103.121C60.003 104.237 58.1326 105.805 56.6601 107.717V107.717Z" fill="#343D63"/>
</g>
<path d="M104.454 150.711C104.237 153.433 104.939 156.148 106.449 158.422C108.224 160.916 110.558 162.959 113.265 164.386C114.983 164.968 116.312 165.052 116.59 166.771C116.867 168.491 116.867 169.24 116.229 169.712C113.111 171.257 109.647 171.974 106.172 171.792C103.041 171.043 102.099 170.571 101.6 169.517C101.102 168.463 101.6 168.103 99.6331 167.243C97.6659 166.383 94.9784 166.3 94.2026 163.803C93.664 161.96 93.832 159.982 94.6736 158.256C95.6315 156.298 95.829 154.054 95.2277 151.959C94.6736 148.159 104.454 150.711 104.454 150.711Z" fill="#5B381B"/>
<path d="M95.5601 153.429C95.6562 152.563 95.6562 151.688 95.5601 150.822C95.3591 151.154 95.2899 151.55 95.3662 151.931C95.4493 152.459 95.5047 152.958 95.5601 153.429Z" fill="#45260D"/>
<path d="M116.368 167.381C113.245 168.914 109.785 169.63 106.31 169.462C103.179 168.685 102.237 168.214 101.739 167.187C101.24 166.161 101.739 165.745 99.7716 164.885C97.8044 164.025 95.1168 163.942 94.4519 161.39C94.3631 161.053 94.2983 160.71 94.2579 160.364C94.0004 161.494 93.9815 162.665 94.2025 163.803C94.8675 166.383 97.5273 166.577 99.5222 167.326C101.517 168.075 101.018 168.546 101.489 169.601C101.96 170.655 102.93 171.126 106.061 171.875C109.627 172.075 113.182 171.329 116.368 169.711C117.005 169.24 117.005 168.519 116.756 166.938C116.656 167.109 116.525 167.26 116.368 167.381Z" fill="#45260D"/>
<path d="M94.3688 159.143C98.4063 159.148 102.44 158.907 106.449 158.422C105.071 156.507 104.387 154.178 104.509 151.821L101.96 150.184C99.1897 149.712 94.8952 149.407 95.3385 151.931C95.9398 154.027 95.7423 156.27 94.7844 158.228C94.6091 158.515 94.4696 158.822 94.3688 159.143Z" fill="#45260D"/>
<path d="M68.9618 101.254V111.989C71.8156 111.889 74.6556 112.429 77.2738 113.57C81.2081 115.401 91.6535 115.595 91.6535 115.595C91.4561 116.991 91.3635 118.401 91.3765 119.811C91.5093 125.945 92.0741 132.063 93.0666 138.118C94.5904 145.579 91.3765 154.955 93.2328 157.008C95.0892 159.06 106.56 158.422 107.862 156.203C109.164 153.984 108.056 123.833 108.056 120.393C108.056 116.954 108.333 107.329 108.056 103.751C107.779 100.173 106.504 94.6527 98.3862 95.4293C90.2682 96.206 68.9618 101.254 68.9618 101.254Z" fill="#343D63"/>
<g style="mix-blend-mode:multiply" opacity="0.5">
<path d="M81.2358 107.717C83.5355 109.964 92.3185 110.491 92.3185 110.491C91.9244 112.174 91.6284 113.878 91.4319 115.595C91.4319 115.595 80.9864 115.401 77.0521 113.57C74.4339 112.429 71.5939 111.889 68.7401 111.989V101.254C71.1682 101.352 73.5454 101.981 75.7043 103.098C77.8632 104.214 79.7514 105.791 81.2358 107.717V107.717Z" fill="#343D63"/>
</g>
<path d="M62.5892 61.173C59.9731 65.2629 56.8341 68.9929 53.2521 72.2682C53.2521 72.2682 52.5317 67.7191 51.9222 65.0286L57.4635 41.9229V39.4265C56.2167 45.8339 44.5799 47.0821 41.9755 48.6354C39.3711 50.1888 37.5701 52.1859 37.5701 59.1759C37.5701 66.1658 36.9052 73.5441 38.0966 77.4551C39.288 81.3662 39.3988 90.7416 42.8067 92.4059C45.2324 93.6198 48.001 93.9626 50.6491 93.3769C53.2971 92.7911 55.6637 91.3124 57.3527 89.1883C62.6724 83.3911 66.2188 73.4609 68.6847 68.4958C69.2388 67.3863 69.6544 66.5264 70.0146 65.8884C63.7252 64.8344 62.5892 61.173 62.5892 61.173Z" fill="#32549A"/>
<path d="M96.807 56.1802C96.1143 52.2969 95.6987 46.9157 89.3816 44.5857C85.8906 43.282 81.6515 44.0864 78.0496 43.282C75.0897 42.458 72.4874 40.6724 70.6519 38.206L76.1932 47.8865C76.1932 47.8865 83.2861 58.7043 83.4524 59.7306C83.6186 60.7569 84.7823 71.0477 85.5304 76.3734C86.0299 79.0884 86.7432 81.7596 87.6638 84.3619C84.3189 85.3134 81.1004 86.6637 78.0773 88.3839C75.2683 90.2787 72.1843 91.7288 68.9341 92.6833C66.6865 93.4822 64.3798 94.1036 62.0352 94.5417C62.7621 95.5301 63.2692 96.6627 63.5225 97.8636C63.7758 99.0645 63.7693 100.306 63.5036 101.504C68.312 101.276 73.1037 100.776 77.8556 100.006C82.3718 99.3126 98.8019 95.8731 99.3283 94.4585C100.464 91.5183 100.132 81.6158 99.7716 77.4829C99.3283 72.2682 97.5274 60.0357 96.807 56.1802Z" fill="#32549A"/>
<path d="M62.0628 94.6527C60.9087 94.9668 59.6841 94.8987 58.5718 94.4585C56.9094 93.5154 53.1967 91.6847 52.4486 91.1577C50.8765 90.8049 49.2655 90.6557 47.6554 90.7139C44.9969 90.9615 42.4008 91.6652 39.9806 92.7942C37.21 94.0424 39.0386 94.93 39.0386 94.93C38.4477 95.0472 37.923 95.3842 37.5702 95.8731C37.0437 96.622 38.4291 97.3155 38.4291 97.3155C37.8195 98.0922 39.3711 98.8411 40.9227 98.6747C42.4742 98.5082 44.3306 97.0659 45.2172 97.0659C46.7134 97.0659 49.0961 97.0659 49.5948 96.8994C48.0195 96.9683 46.47 97.3256 45.0233 97.9535C43.1669 98.8133 41.643 99.6455 41.6153 100.089C41.5876 100.533 43.3054 100.921 44.9955 100.089C46.4374 99.4211 48.006 99.0711 49.5948 99.063C51.7837 99.063 56.2167 102.197 59.0428 102.475C61.8689 102.752 61.8135 101.365 63.5313 101.504C63.7807 100.323 63.7788 99.1022 63.5258 97.9217C63.2728 96.7413 62.7743 95.6275 62.0628 94.6527V94.6527Z" fill="#F7B799"/>
<path d="M76.1379 29.3021C75.9146 27.7058 75.5341 26.1356 75.0019 24.6144C74.2421 23.1693 73.1353 21.9361 71.781 21.0258C70.4268 20.1155 68.8677 19.5567 67.244 19.3997C62.5893 18.7339 56.7155 19.3997 53.2522 22.5063C49.7889 25.613 50.9802 30.3284 53.2522 34.7387C55.5241 39.1491 56.3276 39.5929 56.3276 39.5929L58.2394 41.5623C58.1713 42.175 58.2323 42.7952 58.4184 43.3828C58.6045 43.9705 58.9117 44.5125 59.3199 44.974C60.6499 46.1113 66.6068 50.7158 70.652 50.7713C71.2348 50.8692 71.8323 50.8336 72.3994 50.6669C72.9666 50.5002 73.4885 50.2068 73.926 49.809C74.3634 49.4111 74.705 48.919 74.925 48.3698C75.1449 47.8206 75.2375 47.2285 75.1958 46.6383C75.6066 44.4927 76.1999 42.3862 76.9691 40.3418C77.051 36.6436 76.7726 32.9462 76.1379 29.3021V29.3021Z" fill="#F7B799"/>
<path d="M53.6954 20.3705C55.6583 18.8583 57.9278 17.7942 60.3448 17.2527C62.7618 16.7113 65.2678 16.7056 67.6873 17.2361C69.6733 17.4993 71.5078 18.4407 72.8808 19.9012C74.2538 21.3617 75.0813 23.2518 75.2235 25.2524C73.949 28.8028 67.1331 27.3327 64.4179 26.4728C63.8702 26.3366 63.3009 26.3105 62.7431 26.396C62.1852 26.4815 61.6498 26.677 61.168 26.9711C60.6861 27.2652 60.2673 27.6521 59.9358 28.1093C59.6043 28.5666 59.3667 29.0851 59.2367 29.635C58.9317 32.1961 59.0346 34.7895 59.5415 37.3184C59.4013 37.4546 59.225 37.5479 59.0336 37.5872C58.8421 37.6265 58.6435 37.6102 58.461 37.5403C57.0707 36.82 55.5574 36.3684 54.0002 36.2088C53.7855 35.688 53.5259 35.1868 53.2244 34.711C50.0104 30.1065 50.3429 23.4771 53.6954 20.3705Z" fill="#251F12"/>
<path d="M58.7104 38.3724C58.7104 37.5957 57.519 34.7665 55.5795 34.3781C53.64 33.9898 52.5595 35.7096 53.4461 37.5957C53.9448 38.733 55.1362 39.2878 55.6349 40.2309C55.7353 40.5428 55.9044 40.8281 56.1295 41.066C56.3547 41.3038 56.6303 41.4881 56.936 41.6052C57.2417 41.7223 57.5698 41.7693 57.8961 41.7426C58.2223 41.716 58.5384 41.6165 58.8212 41.4513C59.0316 40.431 58.9936 39.3749 58.7104 38.3724Z" fill="#F7B799"/>
<path d="M76.027 43.4484C76.0624 43.6795 76.0376 43.9157 75.9551 44.1344C75.8725 44.353 75.7351 44.5467 75.556 44.6966C75.556 44.2251 75.8331 43.7536 75.9716 43.282C75.9993 43.3375 75.9993 43.393 76.027 43.4484Z" fill="#251F12"/>
<path d="M58.5441 37.9009C57.9622 36.2921 57.1864 35.1271 57.325 35.1271C57.9344 34.9423 58.5543 34.7941 59.1813 34.6833C59.7312 37.9876 60.7383 41.1991 62.1736 44.2251C63.559 46.3332 68.657 45.1682 69.1557 44.2251C69.8761 42.8382 70.6796 42.7273 71.7047 41.6732C72.7299 40.6192 73.3394 40.8966 74.226 40.8688C75.1126 40.8411 75.6945 42.3944 75.9715 43.282C75.833 43.7536 75.6668 44.2251 75.5559 44.6966C75.5559 44.6966 75.4174 44.1142 75.3897 43.9477C75.362 43.7813 75.1126 42.6718 74.0875 42.6163C73.0623 42.5608 71.5385 43.8645 70.7073 44.4193C69.8761 44.974 69.5436 45.723 70.8735 46.8047C71.048 47.0921 71.3139 47.3123 71.6285 47.4299C71.9431 47.5476 72.2882 47.5558 72.608 47.4533C72.9279 47.3509 73.204 47.1436 73.392 46.865C73.5799 46.5863 73.6688 46.2524 73.6442 45.9171C73.657 45.8609 73.6888 45.8109 73.7342 45.7755C73.7797 45.7401 73.836 45.7215 73.8935 45.723H74.2814C74.3549 45.723 74.4254 45.7522 74.4774 45.8042C74.5293 45.8562 74.5585 45.9268 74.5585 46.0003C74.5236 46.1578 74.5337 46.322 74.5876 46.4741C74.6415 46.6261 74.737 46.7599 74.8633 46.8602C74.8633 46.8602 75.1958 47.0821 75.2235 47.2485C75.0295 48.8019 74.3091 50.8545 70.7627 50.799C66.7175 50.799 60.7606 46.139 59.4307 45.0018C58.752 44.336 58.3637 43.4287 58.3501 42.4776C58.1839 40.5914 59.0151 39.2323 58.5441 37.9009Z" fill="#251F12"/>
<path d="M74.808 46.8325C75.5006 47.1376 75.3067 48.2471 75.1404 48.6077C74.8838 49.1471 74.4953 49.6129 74.0109 49.962C73.5266 50.3111 72.9621 50.5322 72.3698 50.6048C70.4303 50.9654 71.9819 49.0793 72.0096 48.9683C72.0373 48.8574 74.808 46.8325 74.808 46.8325Z" fill="#251F12"/>
<path d="M73.4226 62.1161C76.0271 60.0912 77.8003 58.0941 78.7423 57.3729C79.1309 57.1595 79.4514 56.8406 79.6671 56.453C79.8827 56.0654 79.9848 55.6247 79.9614 55.1816C79.856 54.4787 79.6211 53.8015 79.2687 53.1845C79.2687 53.1845 78.964 50.9654 77.8557 50.4107C77.8557 50.4107 77.8557 48.4135 76.221 47.942L79.2687 44.6134C80.4047 43.393 79.9614 41.0352 78.3821 41.8396C76.7239 42.9441 75.1411 44.158 73.6443 45.4733C72.1204 46.6383 69.3498 48.9683 68.7402 49.4676C67.9772 50.1966 67.2731 50.985 66.6345 51.8253C66.713 50.7418 66.6665 49.6528 66.496 48.58C66.1635 47.0544 65.1661 45.8062 64.224 45.8062C63.282 45.8062 63.5314 47.4982 63.6422 47.831C63.8899 49.1979 63.7655 50.6064 63.282 51.9085C62.9184 52.7539 62.7308 53.6648 62.7308 54.5852C62.7308 55.5057 62.9184 56.4165 63.282 57.2619C64.0301 58.7598 63.7807 58.9817 62.7556 61.1452C62.7556 61.1452 63.7807 64.8899 70.181 66.0549C70.8041 64.4234 71.9423 63.0404 73.4226 62.1161V62.1161Z" fill="#F7B799"/>
<path d="M53.2522 72.2682C51.015 74.4761 48.9582 76.86 47.1013 79.3968C47.1013 79.3968 49.6503 63.2533 49.678 58.3715L53.2522 72.2682Z" fill="#2E4A82"/>
<g style="mix-blend-mode:screen" opacity="0.2">
<g style="mix-blend-mode:screen" opacity="0.2">
<path d="M62.5893 61.173C59.9731 65.2629 56.8341 68.9929 53.2521 72.2681C51.015 74.4761 48.9581 76.8599 47.1012 79.3968C45.4388 83.4465 45.799 84.6947 45.799 84.6947C46.7411 83.1414 56.1613 72.4346 64.4179 63.5307C63.6104 62.9209 62.9794 62.1072 62.5893 61.173Z" fill="#AB763A"/>
</g>
</g>
<path opacity="0.5" d="M79.9613 55.1816C79.9258 54.749 79.8132 54.3262 79.6288 53.9334V53.9334C79.1301 53.9334 74.226 59.1481 70.0146 60.4241C65.8032 61.7 64.4733 60.1744 63.5313 58.5656C63.3791 59.4589 63.0595 60.3154 62.5892 61.0898C62.5892 61.0898 63.6144 64.8344 70.0146 65.9994C70.6911 64.3637 71.8894 62.9983 73.4225 62.1161C76.027 60.0912 77.8002 58.0941 78.7422 57.3729C79.1308 57.1595 79.4513 56.8406 79.667 56.453C79.8826 56.0654 79.9846 55.6247 79.9613 55.1816V55.1816Z" fill="#F0A581"/>
<path d="M162.943 31.327C163.331 31.1051 167.404 28.0816 167.404 28.0816L173.748 37.3184L170.091 40.6469L162.943 31.327Z" fill="white"/>
<path d="M173.748 37.3184L176.879 41.1462L185.884 31.216L182.116 28.6919L173.748 37.3184Z" fill="white"/>
<path d="M163.469 19.5661C163.303 19.2887 162.361 18.623 161.779 19.2887C161.197 19.9544 162.444 21.3136 163.386 22.2012C163.946 22.7824 164.297 23.5339 164.383 24.337C164.577 24.9473 165.381 25.9458 166.295 25.502C167.21 25.0582 164.688 20.953 164.688 20.953L163.469 19.5661Z" fill="#F7B799"/>
<path d="M183.002 15.2667C183.002 14.9339 183.612 13.9353 184.415 14.2959C185.219 14.6565 184.637 16.404 184.194 17.5967C183.87 18.4841 183.794 19.4429 183.972 20.3705C184.017 20.5392 184.025 20.7159 183.994 20.8879C183.964 21.0599 183.896 21.2232 183.796 21.3661C183.695 21.5089 183.565 21.628 183.413 21.7148C183.262 21.8016 183.093 21.854 182.919 21.8683C181.949 21.8683 182.476 17.0697 182.476 17.0697L183.002 15.2667Z" fill="#F7B799"/>
<path d="M178.902 5.50296L171.061 7.30593L163.164 8.9702L161.225 11.106L165.131 22.2012C165.741 23.5881 166.517 26.1955 166.932 27.3327C168.18 29.0828 169.684 30.635 171.393 31.9372C171.819 32.4161 172.339 32.8015 172.921 33.0689C173.502 33.3362 174.133 33.4798 174.773 33.4905C175.42 33.4529 176.055 33.3124 176.657 33.0745C177.312 33.0342 177.957 32.8939 178.569 32.6584C179.136 32.3812 179.642 31.9929 180.056 31.5164C180.47 31.0399 180.784 30.485 180.98 29.8846C181.996 27.9999 182.715 25.9697 183.113 23.8655C183.113 22.645 182.642 19.9544 182.614 18.3179L181.562 6.72343L178.902 5.50296Z" fill="#F7B799"/>
<path d="M178.902 6.88986C179.511 7.36141 178.902 10.2462 180.897 13.0199C182.171 14.6842 180.897 15.4054 182.42 18.1515C183.061 16.2388 183.379 14.2328 183.362 12.2155C183.169 5.91904 181.783 5.55844 180.592 5.00369C179.4 4.44893 178.902 6.88986 178.902 6.88986Z" fill="#964E00"/>
<path d="M163.746 10.2184C163.386 10.9119 165.242 13.2418 164.494 16.5981C164.051 18.6785 165.547 18.7617 165.27 21.9238C163.879 20.4609 162.746 18.7728 161.918 16.931C159.452 11.2447 160.698 10.2184 161.419 9.21984C162.139 8.22128 163.746 10.2184 163.746 10.2184Z" fill="#964E00"/>
<path d="M171.532 9.46949C166.877 10.4681 166.628 8.80378 164.716 9.77461C164.079 10.1075 164.051 10.3571 163.691 10.3848C163.256 10.4222 162.819 10.3563 162.414 10.1924C162.01 10.0285 161.65 9.7713 161.363 9.44175C160.698 8.47093 161.807 2.39632 169.592 0.621094L171.532 9.46949Z" fill="#964E00"/>
<path d="M171.532 9.46949C176.186 8.44319 175.715 6.6957 177.849 6.88987C178.569 6.88987 178.68 7.13951 179.013 6.88987C179.795 6.50494 180.408 5.84264 180.73 5.03143C181.368 3.78322 177.489 -1.62567 169.648 0.482408L171.532 9.46949Z" fill="#964E00"/>
<path d="M180.73 5.1701C180.677 5.3537 180.603 5.53053 180.509 5.69713C180.33 6.0717 180.097 6.41758 179.816 6.72343L179.29 7.16724L179.04 7.33366H178.791L178.403 7.50009H178.237V7.16724H178.625H178.846H179.123C179.307 7.07247 179.475 6.95095 179.622 6.80664C180.089 6.43386 180.452 5.94654 180.675 5.39201L180.73 5.1701Z" fill="#F7B799"/>
<path d="M161.363 9.44177C161.487 9.57818 161.627 9.69924 161.779 9.80237C162.099 10.0767 162.465 10.2926 162.86 10.4403L163.497 10.6345H164.66V10.2739H164.273H163.469C163.267 10.3003 163.062 10.3003 162.86 10.2739C162.463 10.1747 162.088 10.0057 161.751 9.77463L161.363 9.44177Z" fill="#F7B799"/>
<path d="M201.76 57.5948L201.233 57.3729L199.405 58.843C196.634 60.9788 193.863 63.5862 194.75 67.1644C195.553 70.271 197.216 77.5938 198.601 78.6202C199.986 79.6465 203.782 75.4858 202.979 71.6857C202.314 68.4958 201.344 67.1921 202.979 66.8593C203.805 66.6404 204.551 66.19 205.13 65.5611C205.71 64.9321 206.097 64.1508 206.248 63.3088C204.503 60.6182 205.278 57.9554 201.76 57.5948Z" fill="#F7B799"/>
<path d="M208.908 39.2045C202.868 34.2672 198.851 29.7736 195.276 29.7459C191.702 29.7182 190.511 31.1605 185.884 31.216L193.392 46.5828L206.885 51.326C204.857 53.2565 202.942 55.3033 201.15 57.4561V57.4561C202.357 58.0443 203.43 58.8748 204.302 59.896C205.174 60.9172 205.827 62.1072 206.22 63.392C206.22 63.392 220.074 55.5977 221.154 51.0764C222.235 46.5551 212.676 42.2834 208.908 39.2045Z" fill="#373636"/>
<g style="mix-blend-mode:multiply" opacity="0.2">
<path d="M196.523 40.6469C197.111 43.1022 197.527 45.5954 197.77 48.1084L206.885 51.326C210.376 48.5522 211.041 48.5522 211.041 48.5522C206.043 46.2204 201.195 43.5802 196.523 40.6469V40.6469Z" fill="#343D63"/>
</g>
<path d="M217.22 93.765L217.746 93.4322C217.442 93.5431 217.275 93.6541 217.22 93.765Z" fill="#F0A581"/>
</svg>
