<svg width="207" height="253" viewBox="0 0 207 253" fill="none" xmlns="http://www.w3.org/2000/svg">
<path d="M201.298 129.954H116.376V237.35H201.298V129.954Z" fill="#817F7D"/>
<path d="M206.035 121.729H111.666V129.954H206.035V121.729Z" fill="#595550"/>
<path opacity="0.5" d="M116.376 129.954V131.843L201.298 134.65V129.954H116.376Z" fill="#595550"/>
<path d="M58.9956 110.586C59.993 108.391 63.7334 104.473 63.5118 102.833C63.2901 101.194 61.4061 90.107 61.129 87.1616C61.212 84.026 60.7719 80.8986 59.8268 77.9085C59.0787 76.4914 57.5271 73.2403 56.3634 70.8228L55.4214 40.6184C58.4007 42.6461 60.8061 45.4126 62.4035 48.6488C65.5344 56.5126 67.4184 65.7378 69.3302 71.9065C71.2463 76.7906 72.0875 82.0323 71.7961 87.2727C71.6576 93.8582 71.1588 102.833 71.1311 107.335C71.1034 111.836 73.2923 117.005 70.7432 121.034C68.1942 125.063 62.7914 125.063 61.129 124.868C59.4666 124.674 58.3583 123.312 58.7739 122.618C59.1895 121.923 62.1264 119.978 62.1541 118.728C62.1818 117.477 62.3204 113.698 61.6277 113.809C60.935 113.92 60.3255 119.978 58.3583 120.228C56.3911 120.478 56.8344 118.95 57.4163 117.449C57.7908 115.129 58.3184 112.836 58.9956 110.586V110.586Z" fill="#F0A581"/>
<path d="M65.5343 100.472C68.305 115.393 69.6626 138.929 68.6929 148.654C67.7232 158.38 67.0859 165.187 64.1767 169.717C61.2675 174.246 50.9051 193.058 47.6911 196.948C44.4771 200.838 47.6911 164.215 47.6911 164.215L51.5701 107.502L65.5343 100.472Z" fill="#48423B"/>
<g style="mix-blend-mode:multiply" opacity="0.3">
<path d="M65.5343 100.472C68.305 115.393 69.6626 138.929 68.6929 148.654C67.7232 158.38 67.0859 165.187 64.1767 169.717C61.2675 174.246 50.9051 193.058 47.6911 196.948C44.4771 200.838 47.6911 164.215 47.6911 164.215L51.5701 107.502L65.5343 100.472Z" fill="#48423B"/>
</g>
<path d="M36.6084 27.364C34.6967 29.9482 30.3744 30.4206 27.1604 30.9208C23.8509 31.5264 20.7482 32.9627 18.1416 35.0957C15.5351 37.2288 13.5096 39.9891 12.2542 43.1192C8.56916 52.1222 6.32491 62.7368 4.08066 69.8225C1.83641 76.9082 -0.407837 78.8255 0.0631782 86.4947C0.534194 94.1639 1.67017 105.334 1.67017 110.475C1.67017 115.615 -0.878853 121.59 2.00265 126.23C4.88416 130.87 11.0905 130.898 13.0577 130.62C15.0248 130.343 16.1054 128.87 15.8283 128.064C15.5513 127.258 11.9494 125.063 11.9494 123.674C11.9494 122.284 11.7832 117.866 12.5866 118.116C13.3901 118.366 14.0274 125.063 16.2717 125.424C18.5159 125.785 18.0172 123.979 17.3799 122.229C16.9564 119.566 16.3735 116.93 15.6344 114.337C14.4984 111.92 10.3424 107.279 10.4809 105.612C10.6195 103.945 13.0577 90.9684 13.3901 87.6062C13.7226 84.2439 13.3901 79.548 14.9694 76.9916C17.7031 73.3716 19.8449 69.3383 21.3143 65.0432C21.3143 65.0432 25.5534 79.7702 30.6792 85.7167C35.8049 91.6631 35.1677 93.4414 33.0897 97.7762C31.0117 102.111 23.8079 111.17 29.9865 124.591C36.1651 138.012 34.4473 168.022 33.7823 169.522C33.1174 171.023 28.9614 195.364 32.0645 209.841C35.1677 224.318 31.7043 233.293 33.4222 235.377C35.14 237.461 54.036 237.267 55.4213 233.293C56.2526 231.015 50.2679 207.785 50.2679 198.143C50.2679 188.501 53.7035 182.61 54.0637 173.662C54.4239 164.715 57.4994 140.568 59.9099 133.677C62.3203 126.786 65.4512 102.639 65.7283 98.4987C66.0053 94.3584 64.0105 88.8566 63.678 82.2989C63.3455 75.7411 60.5748 69.9059 60.9073 68.85C61.2398 67.7941 64.3429 66.0713 63.678 61.9588C63.013 57.8463 62.2926 48.8711 58.857 44.3974C55.4213 39.9237 48.5501 35.4222 48.2176 33.6995C47.8851 31.9767 36.6084 27.364 36.6084 27.364Z" fill="#F7B799"/>
<path d="M35.5001 232.71C35.5034 235.697 35.8662 238.673 36.5807 241.574C36.5807 241.574 35.5001 245.214 36.5807 245.825C39.4006 246.72 42.3524 247.124 45.3083 247.02C45.9179 246.548 46.9984 246.659 48.8271 247.993C50.6557 249.326 66.504 252.883 69.6349 249.576C72.7658 246.27 71.4635 243.408 68.305 241.824C65.1464 240.24 55.7538 236.6 53.5095 231.376C51.2653 226.152 35.5001 232.71 35.5001 232.71Z" fill="#251F12"/>
<path d="M25.4426 207.701C22.4226 210.48 18.4328 217.538 18.6822 218.983C18.9315 220.428 23.0321 225.096 25.4426 225.096C27.8531 225.096 29.0722 224.485 29.9311 226.319C30.79 228.153 31.261 231.515 35.4725 232.626C39.6839 233.738 44.3109 221.678 43.7845 220.122C43.2581 218.566 25.4426 207.701 25.4426 207.701Z" fill="#251F12"/>
<path d="M37.218 23.5294C36.8578 28.5589 32.2862 30.6151 28.4349 30.8652C33.9056 34.8704 39.9621 38.0012 46.3889 40.146C46.3889 40.146 47.4418 36.2281 50.2956 37.3673C52.6507 38.1732 37.218 23.5294 37.218 23.5294Z" fill="#F7B799"/>
<path d="M37.6059 21.0286C37.6059 21.6955 37.7721 23.3905 37.8829 24.8354C38.16 29.4758 36.6915 30.5873 36.6915 30.5873C36.6915 30.5873 38.1323 28.9479 40.3211 31.0041C42.1153 32.7093 44.0631 34.2441 46.1395 35.589L41.5679 21.2509L37.6059 21.0286Z" fill="#F7B799"/>
<path d="M38.16 23.0571C39.8035 25.5432 41.1782 28.198 42.2606 30.9763C42.6485 31.7266 44.6157 30.504 44.6988 29.3925C44.782 28.281 45.7517 25.669 44.1447 24.8354C42.2041 24.0723 40.2019 23.4773 38.16 23.0571V23.0571Z" fill="#F7B799"/>
<path d="M40.044 25.3356C39.4751 26.0397 38.7634 26.6145 37.9561 27.0217C37.1488 27.4289 36.2644 27.6592 35.3616 27.6975C35.3616 27.6975 38.1322 24.9188 36.5807 18.6945C35.9988 16.3326 38.0768 19.3892 38.0768 19.3892L40.044 25.3356Z" fill="#55463F"/>
<path d="M59.0509 31.8377C58.9577 32.0779 58.9017 32.3309 58.8847 32.588C58.8847 33.2827 58.8847 34.1441 57.5271 34.4219C57.5271 34.4219 57.5271 35.7279 56.8067 35.9224C56.0863 36.1169 55.643 36.2003 55.6707 37.0895C55.6984 37.9787 51.7086 36.7005 51.7086 36.7005L45.724 27.1695L45.5023 18.8334L50.2125 16.3048L53.9806 9.30251L61.1012 13.9151L64.7308 15.8047C64.617 18.5303 64.1513 21.2296 63.3455 23.8351C62.4866 24.891 61.5723 24.9466 61.3783 25.8358C61.2407 27.3742 61.2965 28.9239 61.5445 30.4484C61.7108 31.3654 61.7939 32.5602 59.0509 31.8377Z" fill="#F7B799"/>
<path d="M65.9223 6.99618C61.5723 1.10534 55.643 2.10567 51.0991 0.910835C46.5552 -0.284004 42.0113 1.71666 41.6788 3.46724C40.3811 4.00323 39.319 4.98952 38.6865 6.24593C37.9471 7.69189 37.4509 9.25042 37.218 10.8586L38.7973 11.8589C40.1549 12.7481 41.568 13.4983 42.981 14.3597C43.8226 14.7604 44.6057 15.2746 45.3084 15.888C45.9179 16.3604 45.3084 12.9148 45.9457 13.415C46.0842 13.415 48.3007 14.971 48.4116 15.0822C49.5752 14.2764 50.7666 16.5827 51.958 16.3604C53.9252 15.9436 54.7287 11.0531 54.7287 11.2198C54.7287 11.3865 60.5194 17.5274 64.5923 16.5271C65.3757 16.0475 66.0433 15.3996 66.5469 14.6301C67.0506 13.8606 67.3778 12.9887 67.505 12.0771C67.6322 11.1655 67.5562 10.237 67.2825 9.35839C67.0089 8.4798 66.5443 7.67302 65.9223 6.99618Z" fill="#251F12"/>
<path d="M56.3357 31.6988C54.9781 31.6988 53.565 32.2823 53.2603 33.8662C53.644 33.5546 54.0898 33.329 54.5677 33.2044C55.0455 33.0798 55.5444 33.0591 56.0309 33.1437C57.6933 33.5327 58.1921 33.9495 58.4968 33.7828C58.7083 33.4221 58.8049 33.0053 58.7739 32.588C58.7909 32.3309 58.8469 32.0779 58.9402 31.8377C58.0822 31.674 57.2061 31.6273 56.3357 31.6988V31.6988Z" fill="#251F12"/>
<path d="M64.5368 15.6379C64.6883 15.424 64.827 15.2013 64.9524 14.971C65.3081 14.3918 65.6229 13.7883 65.8945 13.1649C66.281 12.2814 66.5332 11.3447 66.6425 10.3862C66.7119 9.85123 66.7119 9.30952 66.6425 8.77455C66.5933 8.21485 66.4431 7.66877 66.1992 7.16291C65.9837 6.64236 65.6944 6.15571 65.3403 5.71798C64.9875 5.30381 64.598 4.9225 64.1766 4.57872C63.7662 4.26535 63.3307 3.98654 62.8744 3.74511C62.4756 3.51638 62.0586 3.3212 61.6276 3.16158L60.5748 2.80035L59.6881 2.4947L58.9401 2.2724L59.7159 2.46691L60.5748 2.71699C60.9532 2.80765 61.3238 2.92844 61.683 3.07822C62.0986 3.07822 62.5142 3.43945 62.9575 3.63396C63.419 3.88152 63.8634 4.16002 64.2875 4.46757C64.7416 4.79221 65.1596 5.16484 65.5343 5.57905C65.9053 6.03081 66.2215 6.52518 66.4763 7.05176C66.7258 7.57695 66.885 8.14061 66.9473 8.71898C67.0018 9.28266 67.0018 9.8503 66.9473 10.414C66.821 11.3662 66.5791 12.2994 66.2269 13.1927C65.9602 13.8403 65.6548 14.4713 65.3126 15.0822C65.1805 15.3235 65.0324 15.5555 64.8693 15.7769L64.5368 15.6379Z" fill="#251F12"/>
<path d="M63.3454 15.6657C63.507 15.5269 63.6389 15.3568 63.7333 15.1655C64.0702 14.496 64.3216 13.7864 64.4814 13.0537C64.7365 12.0078 64.8667 10.9351 64.8693 9.85824C64.8778 8.62277 64.6521 7.39693 64.2043 6.24593C63.9676 5.66689 63.6505 5.12431 63.2623 4.63429C62.8909 4.14671 62.4415 3.72419 61.9324 3.38388C61.0553 2.74146 60.0555 2.2874 58.9955 2.0501C58.2501 1.86879 57.4895 1.75717 56.7235 1.71666V1.71666C57.4961 1.7491 58.265 1.842 59.0232 1.99453C60.0997 2.23049 61.1236 2.66382 62.0432 3.27273C62.5597 3.61378 63.0181 4.03599 63.4008 4.52314C63.8097 5.02436 64.1542 5.57516 64.426 6.16257C64.9237 7.34128 65.1872 8.60608 65.2018 9.88603C65.222 10.9961 65.1198 12.1051 64.897 13.1927C64.7371 13.9699 64.4859 14.7254 64.1489 15.4434C64.0361 15.6551 63.8964 15.8513 63.7333 16.0269C63.6881 16.0401 63.64 16.0401 63.5948 16.0269H63.4286L63.3454 15.6657Z" fill="#251F12"/>
<path d="M53.8144 9.08021V8.85791C53.9963 8.34753 54.1082 7.81469 54.1469 7.27405C54.2266 6.49807 54.2266 5.71593 54.1469 4.93995C54.0622 4.49835 53.9511 4.06224 53.8144 3.63396C53.6709 3.20415 53.4755 2.79356 53.2325 2.41134C53.0943 1.97068 52.8986 1.55025 52.6507 1.16092C52.3151 0.886488 51.9418 0.661892 51.5424 0.494035L50.7943 0.299526H50.1848C49.8165 0.258462 49.4448 0.258462 49.0765 0.299526C48.7599 0.326096 48.4453 0.372498 48.1345 0.438461L47.4141 0.577396L46.8046 0.771904L47.4141 0.577396C47.6473 0.489164 47.8886 0.424018 48.1345 0.382887C48.4387 0.238231 48.7537 0.117459 49.0765 0.0216562C49.4546 -0.00721874 49.8344 -0.00721874 50.2125 0.0216562H50.8221L51.4593 0.216165C51.906 0.402457 52.3111 0.676433 52.6507 1.02199C53.0219 1.31573 53.3486 1.66206 53.6204 2.0501C53.8712 2.45582 54.0845 2.88366 54.2577 3.32831C54.4212 3.75268 54.5509 4.18937 54.6456 4.63429C54.8 5.4397 54.865 6.25978 54.8395 7.07955C54.8332 7.66672 54.7302 8.24881 54.5348 8.80234C54.5394 8.8949 54.5394 8.98764 54.5348 9.08021C54.5348 9.08021 54.5348 9.24693 54.3962 9.33029L53.8144 9.08021Z" fill="#251F12"/>
<path d="M52.429 6.07922L52.6506 5.77356C52.7493 5.66471 52.8331 5.54324 52.9 5.41233C53.0142 5.2488 53.1073 5.0714 53.1771 4.88438C53.2812 4.67058 53.3647 4.44727 53.4264 4.21749C53.4883 3.96122 53.5346 3.70139 53.5649 3.43945C53.5798 3.31021 53.5798 3.17968 53.5649 3.05044C53.5787 2.90256 53.5787 2.75372 53.5649 2.60585C53.5649 2.46691 53.5649 2.32798 53.5649 2.18904L53.3987 1.77224C53.2846 1.50586 53.1253 1.2614 52.9277 1.04978L52.7892 0.883053L52.6506 0.771905L52.2904 0.521823C52.054 0.397306 51.8026 0.303912 51.5424 0.243953C51.3028 0.220178 51.0615 0.220178 50.822 0.243953H49.3258L49.8799 0.0216573H50.351H50.9882C51.2277 -0.00305853 51.4691 -0.00305853 51.7086 0.0216573C51.9736 0.0836555 52.233 0.167295 52.4844 0.27174C52.5476 0.388402 52.6031 0.509067 52.6506 0.632971H52.8446V0.799692C53.0775 1.02088 53.2656 1.28505 53.3987 1.57773L53.5649 1.99453C53.5783 2.15171 53.5783 2.30974 53.5649 2.46691C53.5787 2.61479 53.5787 2.76363 53.5649 2.9115C53.5778 3.05942 53.5778 3.20818 53.5649 3.35609C53.5804 3.64302 53.5804 3.93057 53.5649 4.21749C53.5075 4.46308 53.4334 4.70445 53.3433 4.93995C53.285 5.14897 53.1913 5.34637 53.0662 5.52348C52.9952 5.67816 52.9118 5.82683 52.8169 5.96807L52.5398 6.27372L52.429 6.07922Z" fill="#251F12"/>
<path d="M60.4363 9.58038C60.4363 9.58038 60.4363 9.35808 60.4363 8.94128V8.58005V8.19103C60.4164 7.87995 60.3607 7.57224 60.2701 7.27406C60.2005 6.90735 60.1079 6.54541 59.993 6.19037C59.86 5.79204 59.7027 5.40229 59.522 5.02331C59.522 4.80102 59.3003 4.6343 59.2172 4.43979C59.12 4.23199 58.9991 4.03617 58.857 3.85626L58.4691 3.27273L57.8596 2.80036C57.721 2.63363 57.5271 2.4947 57.3608 2.32798C57.2813 2.23907 57.1877 2.16396 57.0838 2.10568L56.8067 1.8556C56.4469 1.5947 56.056 1.38 55.643 1.2165C55.2504 1.06591 54.841 0.963283 54.4239 0.910843H53.8421H53.0109H52.7892H52.3182L51.6255 1.10535L50.9883 1.38322L51.5978 1.16093C51.825 1.04983 52.068 0.974834 52.3182 0.93863H52.7615H53.8421C54.0351 0.911264 54.2309 0.911264 54.4239 0.93863C54.8571 0.971603 55.2848 1.05554 55.6984 1.18871C56.1212 1.36861 56.5289 1.58233 56.9175 1.82781L57.2223 2.02232C57.3262 2.0806 57.4199 2.15571 57.4994 2.24462L58.0535 2.717L58.5245 3.24495L58.9678 3.82847C58.9678 3.9952 59.2172 4.21749 59.3557 4.412C59.4769 4.60039 59.5879 4.79518 59.6882 4.99553C59.8822 5.41233 60.0761 5.80135 60.2146 6.19037C60.3532 6.57938 60.464 6.9684 60.5471 7.30184C60.6383 7.62181 60.7123 7.94646 60.7688 8.27439C60.7903 8.52401 60.7903 8.77502 60.7688 9.02464C60.7688 9.44144 60.7688 9.69152 60.7688 9.69152L60.4363 9.58038Z" fill="#251F12"/>
<path d="M49.1596 3.57838C49.121 3.31571 49.0655 3.05582 48.9933 2.80035C48.9044 2.4922 48.7837 2.19419 48.6331 1.91117L48.3561 1.43879C48.2175 1.29985 48.1067 1.13313 47.9682 1.02198C47.8296 0.910836 47.9682 1.02198 47.7465 0.855262L47.4972 0.549605C47.3776 0.459648 47.2473 0.384975 47.1093 0.32731C46.934 0.314723 46.7581 0.314723 46.5828 0.32731C46.4354 0.313809 46.287 0.313809 46.1395 0.32731H45.1421H45.4192H46.6105C46.7858 0.313916 46.9618 0.313916 47.137 0.32731C47.328 0.384455 47.5135 0.458859 47.6911 0.549605H47.9682L48.2175 0.716327C48.3783 0.840651 48.5268 0.980231 48.6608 1.13313L49.021 1.60551C49.192 1.90893 49.3402 2.22472 49.4643 2.55027C49.557 2.78488 49.6311 3.02645 49.686 3.27273C49.6979 3.34635 49.6979 3.42141 49.686 3.49502V3.49502L49.1596 3.57838Z" fill="#251F12"/>
<path d="M50.2402 1.38322L49.88 1.27207L49.1319 1.02199C48.3148 0.808617 47.4803 0.669124 46.6383 0.605186C45.8383 0.569627 45.0436 0.752072 44.3387 1.13314L43.9785 1.4388L43.7568 1.71666L43.5906 1.99453L43.7291 1.71666L43.8122 1.41101C43.9191 1.28635 44.04 1.17446 44.1724 1.07756C44.9046 0.596398 45.763 0.344881 46.6383 0.355103C47.5129 0.34474 48.386 0.428581 49.2428 0.605186L50.074 0.799695H50.3787L50.2402 1.38322Z" fill="#251F12"/>
<path d="M56.9729 4.16191L56.8067 3.82847C56.7201 3.72635 56.6457 3.61444 56.585 3.49503L56.2248 3.07822C55.9076 2.74611 55.5648 2.43951 55.1997 2.16125L54.5901 1.68887L53.8698 1.27207L53.1494 0.938627C52.9089 0.830525 52.6583 0.746749 52.4013 0.688544C52.1711 0.662384 51.9388 0.662384 51.7086 0.688544H51.3484H51.0437C50.8601 0.659874 50.6731 0.659874 50.4895 0.688544H50.0739H49.7137L50.0739 0.521822L50.4895 0.382887C50.6738 0.365372 50.8594 0.365372 51.0437 0.382887H51.7086C51.958 0.382887 52.1797 0.382887 52.4567 0.382887L53.2325 0.605183L54.0083 0.91084L54.7287 1.29986L55.4213 1.88338C55.8127 2.1613 56.1832 2.46779 56.5296 2.80035L56.9175 3.21716L57.2223 3.57839C57.2779 3.6946 57.3427 3.80611 57.4162 3.91183L56.9729 4.16191Z" fill="#251F12"/>
<path d="M44.8096 2.80035C44.8096 2.80035 44.8096 2.80035 44.6434 2.80035H44.4771L44.3386 2.38355C44.0394 2.14052 43.6887 1.96942 43.3134 1.88338H42.6762C42.4918 1.90508 42.3131 1.96165 42.1497 2.0501C42.0207 2.09671 41.8994 2.16226 41.7896 2.24461V2.24461L42.122 1.99453C42.2751 1.87993 42.4429 1.78647 42.6208 1.71666H42.9532H43.3134C43.7428 1.75753 44.1585 1.89018 44.5325 2.10568H44.7265H44.865L44.8096 2.80035Z" fill="#251F12"/>
<path d="M64.7032 16.4715C64.5248 16.5193 64.3682 16.6273 64.2598 16.7772C64.2598 16.7772 64.2598 16.5827 64.1213 16.7772C63.9828 16.9717 63.7334 16.6938 63.7334 16.6938C63.7334 16.6938 63.4564 16.5271 63.3178 16.6938C63.1793 16.8606 63.3178 16.6938 63.3178 16.6938C63.3178 16.6938 63.3178 16.6938 63.1793 16.6938C63.0407 16.6938 63.1793 16.6938 63.1793 16.6938C63.1793 16.6938 63.0407 16.4993 62.9299 16.4715C62.8191 16.4438 62.9299 16.4715 62.9299 16.4715C62.9299 16.4715 62.7914 16.1659 62.542 16.2215C62.4882 16.2024 62.4296 16.2024 62.3758 16.2215C62.3758 16.2215 62.3758 15.9992 62.1264 15.9436C61.8771 15.888 62.3204 15.6935 62.3758 15.6657C62.4312 15.6379 62.3758 15.4434 62.9299 15.6657C63.5002 15.9781 64.0929 16.2475 64.7032 16.4715V16.4715Z" fill="#251F12"/>
<path d="M55.0612 11.3587C55.7491 11.9252 56.2908 12.6496 56.6404 13.4705C56.6404 13.4705 57.1115 13.2482 57.2777 13.6928C57.4439 14.1374 58.192 13.9151 58.192 14.3597C58.192 14.8043 58.4968 14.9433 58.4968 14.9433C58.5173 14.9146 58.5444 14.8912 58.5757 14.8751C58.607 14.859 58.6417 14.8505 58.6769 14.8505C58.7121 14.8505 58.7468 14.859 58.7781 14.8751C58.8094 14.8912 58.8365 14.9146 58.857 14.9433C58.857 14.9433 59.0232 14.6376 59.2172 15.11C59.3761 15.1007 59.5345 15.1345 59.6759 15.2079C59.8173 15.2812 59.9364 15.3914 60.0207 15.5268C60.3809 16.0269 60.7411 15.8046 60.8796 16.0547C61.0181 16.3048 61.2121 16.0547 61.2952 16.3604C61.2952 16.3604 61.2952 15.9158 61.6277 16.1103C61.9602 16.3048 61.9324 15.3878 61.4614 15.11C60.9904 14.8321 58.857 13.9151 58.6076 13.9151C58.3583 13.9151 55.0612 11.3587 55.0612 11.3587Z" fill="#251F12"/>
<path d="M54.7841 11.4421C55.1159 12.113 55.2504 12.8647 55.172 13.6095C55.4491 14.4709 54.978 14.8599 54.9503 15.6379C54.9226 16.416 54.5347 17.8053 53.8144 18.1388C53.094 18.4722 51.9857 16.9161 51.9857 16.9161L52.6507 13.4705L54.7841 11.4421Z" fill="#55463F"/>
<path d="M43.3135 25.9747C40.903 28.7534 41.5956 30.9763 44.3109 33.7828C47.0262 36.5893 51.7363 40.7851 53.7312 40.5073C55.7261 40.2294 56.7513 38.7289 55.6707 37.0895C55.6707 37.0895 53.1771 37.0895 50.1293 33.3382C48.8057 31.8484 47.8621 30.0588 47.3795 28.1229C46.897 26.1871 46.8898 24.1627 47.3587 22.2234C47.3587 22.2234 47.1093 22.2512 47.1093 22.2512C47.1093 22.2512 46.195 22.0567 46.0564 21.89C45.9179 21.7233 45.724 21.89 45.724 21.89C45.724 21.89 45.4746 21.5288 44.9205 21.89C44.8899 23.4006 44.3197 24.8501 43.3135 25.9747Z" fill="#251F12"/>
<path d="M45.0036 22.2512C45.5577 21.8066 45.8071 22.2512 45.8071 22.2512C45.924 22.1801 46.0582 22.1425 46.195 22.1425C46.3318 22.1425 46.4659 22.1801 46.5829 22.2512C46.7491 22.2512 47.2756 22.6125 47.3033 22.4735C48.4115 18.4166 51.5424 18.8056 53.5096 18.3888C55.4768 17.972 54.6733 11.6366 54.8395 11.2754C52.9987 9.18811 50.7555 7.49617 48.2453 6.30151C46.2202 5.02611 44.0027 4.08775 41.6788 3.52281C40.4189 4.11653 39.3735 5.08731 38.6864 6.30151C36.5705 9.42673 35.7005 13.2343 36.2483 16.9717C36.4528 18.3771 36.7772 19.7623 37.218 21.112C37.7038 22.6365 38.6061 23.9939 39.8224 25.0299C39.8224 25.0299 39.2683 17.6386 41.374 17.6108C42.0794 17.6885 42.7571 17.9298 43.3534 18.3156C43.9497 18.7015 44.4483 19.2212 44.8096 19.8338C44.9723 20.6192 45.0375 21.4219 45.0036 22.2234V22.2512Z" fill="#55463F"/>
<path d="M55.4213 12.4702V12.1646C55.1765 11.781 54.8779 11.4348 54.5347 11.1364C54.1969 10.7011 53.8264 10.2924 53.4265 9.91382C52.9627 9.46753 52.4723 9.04996 51.958 8.6634C51.4316 8.27438 50.9051 7.88537 50.3787 7.55192L48.9657 6.66274L47.5526 5.85692L48.9934 6.63495L50.4341 7.49635C50.9606 7.80201 51.487 8.19102 52.0411 8.55225C52.5953 8.91348 53.0663 9.35808 53.5373 9.77488C53.9541 10.1537 54.343 10.5624 54.701 10.9975C54.9557 11.3175 55.1784 11.6619 55.3659 12.0256L55.5045 12.3313L55.4213 12.4702Z" fill="#F0A581"/>
<path d="M64.6754 15.9436L64.9802 15.7491L65.285 15.4712L65.6452 15.0822L66.033 14.582C66.2191 14.3819 66.3775 14.1576 66.5041 13.9151C66.6426 13.7206 66.7534 13.4705 66.892 13.2483L67.2244 12.5258C67.3334 12.2917 67.426 12.0503 67.5015 11.8033C67.5485 11.5828 67.5855 11.3603 67.6123 11.1364C67.6369 10.9055 67.6369 10.6727 67.6123 10.4418C67.6123 10.4418 67.6123 10.2195 67.6123 10.1083V9.77488C67.6123 9.58037 67.6123 9.41365 67.6123 9.24693C67.6123 9.08021 67.6123 8.94127 67.6123 8.83013V8.46889C67.6194 8.5892 67.6194 8.70982 67.6123 8.83013C67.6317 8.96838 67.6317 9.10867 67.6123 9.24693C67.629 9.42252 67.629 9.5993 67.6123 9.77488C67.626 9.88561 67.626 9.9976 67.6123 10.1083V10.4418C67.6243 10.6824 67.6243 10.9236 67.6123 11.1642C67.6123 11.4143 67.6123 11.6644 67.4461 11.9423C67.2799 12.2201 67.3076 12.4424 67.1967 12.6925C67.1119 12.9491 67.0101 13.1998 66.892 13.4428L66.5595 14.1374C66.4209 14.3597 66.3101 14.582 66.1716 14.7765L65.7837 15.3323L65.4235 15.7491L65.091 16.0825L64.8139 16.3048L64.6754 15.9436Z" fill="#251F12"/>
<path d="M66.504 12.5536L66.698 12.1924C66.7639 12.0771 66.8195 11.9562 66.8642 11.8311C66.8642 11.6644 66.8642 11.4977 67.0305 11.2754C67.0458 11.0626 67.0458 10.849 67.0305 10.6363C67.0579 10.387 67.0579 10.1354 67.0305 9.88603C67.0305 9.60816 67.0305 9.33029 67.0305 9.08021V8.66341V8.2466C66.9549 7.98156 66.8623 7.72168 66.7534 7.46857C66.6861 7.22254 66.6028 6.9812 66.504 6.74611C66.3694 6.5242 66.2214 6.31076 66.0607 6.10701C65.9222 5.9125 65.7282 5.77356 65.5897 5.60684L65.1464 5.24561L64.7585 4.99553L64.426 4.80102L64.7862 4.99553C64.9236 5.05439 65.0538 5.12899 65.1741 5.21782L65.6451 5.55127C65.7837 5.71799 65.9776 5.85692 66.1438 6.05143C66.3101 6.24594 66.4763 6.44045 66.6149 6.66274C66.7696 6.8938 66.9085 7.13518 67.0305 7.38521C67.1487 7.6472 67.2504 7.91633 67.3352 8.19103V8.60783V9.02464C67.3352 9.30251 67.3352 9.58038 67.3352 9.85825C67.3496 10.1267 67.3496 10.3957 67.3352 10.6641C67.3497 10.8954 67.3497 11.1274 67.3352 11.3587L67.169 11.9423C67.1224 12.1027 67.0669 12.2604 67.0028 12.4146L66.8365 12.7481L66.504 12.5536Z" fill="#251F12"/>
<path d="M62.7083 12.2757V11.9423C62.7083 11.7478 62.7083 11.4699 62.9299 11.1364C63.1516 10.803 62.9299 10.7752 63.0684 10.5807V9.96939C63.0684 9.96939 63.0684 9.74709 63.0684 9.63594V9.3025C63.0784 8.84466 63.0318 8.38733 62.9299 7.94094C62.8819 7.72319 62.817 7.50951 62.736 7.30184L62.4866 6.7461C62.4866 6.57938 62.2927 6.38487 62.1818 6.24593C62.1058 6.01716 62.0132 5.79427 61.9048 5.57905L61.6831 5.32896L61.9602 5.52347L62.2372 5.77356C62.3615 5.87034 62.4732 5.98236 62.5697 6.107C62.7049 6.25223 62.8256 6.41045 62.9299 6.57938C62.9299 6.77389 63.1516 6.94061 63.2624 7.1629C63.3528 7.37933 63.4269 7.60225 63.484 7.82979C63.5461 8.06728 63.5924 8.30863 63.6226 8.55225C63.6364 8.79287 63.6364 9.03409 63.6226 9.27471C63.6516 9.50536 63.6516 9.73874 63.6226 9.96939C63.5926 10.1856 63.5463 10.3993 63.484 10.6085L63.3178 11.1642C63.1793 11.4977 63.0407 11.7755 62.9576 11.9423L62.7083 12.2757Z" fill="#55463F"/>
<path d="M56.2249 3.07822C56.2872 3.17616 56.3427 3.27829 56.3911 3.38388C56.539 3.78502 56.6231 4.20697 56.6405 4.63429C56.6405 5.16225 56.6405 5.77356 56.6405 6.44045C56.5988 7.11595 56.5988 7.79339 56.6405 8.4689C56.6397 9.14362 56.7235 9.81577 56.8898 10.4696C56.9474 10.7698 57.0214 11.0666 57.1115 11.3587C57.2223 11.6366 57.3331 11.8867 57.4439 12.109L57.7764 12.7481L58.0812 13.1927L58.3583 13.5817L58.192 13.3316L57.8318 12.9148C57.8318 12.7481 57.5825 12.5536 57.4439 12.3035C57.3054 12.0534 57.1946 11.8311 57.0561 11.5532C56.9308 11.2586 56.8379 10.9511 56.779 10.6363C56.6038 9.96389 56.5016 9.27447 56.4742 8.58004C56.432 7.89528 56.432 7.20857 56.4742 6.52381C56.4742 5.88471 56.4742 5.27339 56.4742 4.74544C56.5399 4.34056 56.5399 3.9277 56.4742 3.52282C56.438 3.40776 56.3917 3.29617 56.3357 3.18937L56.2249 3.07822Z" fill="#55463F"/>
<path d="M60.076 5.16225C60.4022 5.51363 60.6816 5.90591 60.9073 6.3293L61.2397 6.9684C61.3582 7.20172 61.46 7.44314 61.5445 7.69086C61.6441 7.95406 61.7274 8.22318 61.7939 8.49668C61.7939 8.80234 61.9324 9.08021 61.9601 9.35808C61.9875 9.65384 61.9875 9.9515 61.9601 10.2473V10.6641C61.9601 10.6641 61.9601 10.9419 61.9601 11.0809C61.9601 11.2198 61.9601 11.3587 61.9601 11.4977V11.8867V12.2479C61.9716 12.3495 61.9716 12.452 61.9601 12.5536C61.9213 12.7469 61.856 12.9339 61.7662 13.1093L61.5722 13.5261L61.1012 13.9151L61.2397 13.5261C61.2397 13.5261 61.2397 13.276 61.2397 13.1093C61.2397 12.9426 61.2397 12.7481 61.3783 12.5258V12.2201V11.8589C61.392 11.609 61.392 11.3585 61.3783 11.1087V10.6641C61.392 10.5255 61.392 10.3859 61.3783 10.2473C61.3783 9.96939 61.3783 9.69152 61.3783 9.41365C61.3783 9.13578 61.3783 8.85791 61.212 8.58004C61.1547 8.31624 61.0806 8.05637 60.9904 7.80201C60.9969 7.55159 60.9877 7.30101 60.9627 7.05176L60.7133 6.41266C60.6102 6.24256 60.5177 6.06624 60.4362 5.88471L60.2977 5.57905L60.076 5.16225Z" fill="#55463F"/>
<path d="M61.5723 6.60717C61.7731 6.85263 61.9408 7.12357 62.071 7.41299C62.2069 7.69933 62.3181 7.99681 62.4035 8.30218C62.5197 8.65339 62.5941 9.01714 62.6251 9.38587C62.6251 9.58038 62.6251 9.77488 62.6251 9.96939C62.6251 10.1639 62.6251 10.3306 62.6251 10.4973C62.6402 10.673 62.6402 10.8496 62.6251 11.0253V11.4699C62.5688 11.6886 62.4946 11.9024 62.4035 12.109V12.3591C62.3966 12.2666 62.3966 12.1737 62.4035 12.0812V11.8033C62.3897 11.6833 62.3897 11.5621 62.4035 11.4421C62.4035 11.3032 62.4035 11.1364 62.4035 10.9975C62.4035 10.8586 62.4035 10.6641 62.4035 10.4973C62.4035 10.3306 62.4035 9.80267 62.4035 9.44144C62.3426 9.07284 62.2499 8.71025 62.1264 8.35775C62.0721 8.04767 61.998 7.74139 61.9047 7.44078C61.8133 7.15553 61.7022 6.87699 61.5723 6.60717V6.60717Z" fill="#55463F"/>
<path d="M62.7914 15.5268H62.9299L63.2624 15.2489C63.445 15.0767 63.6034 14.8804 63.7334 14.6654C63.8815 14.4255 64.0112 14.1747 64.1213 13.9151C64.458 13.2879 64.7274 12.6266 64.9248 11.9423C65.0369 11.5506 65.1203 11.1513 65.1742 10.7474C65.2024 10.3404 65.2024 9.93185 65.1742 9.5248C65.1667 9.13213 65.1203 8.74119 65.0356 8.35774C64.951 7.96915 64.8111 7.59481 64.62 7.24627C64.4493 6.92012 64.245 6.61279 64.0105 6.3293C63.802 6.05928 63.5702 5.80822 63.3178 5.57905L62.9576 5.30118L62.6251 5.05109L62.071 4.71765L61.5446 4.41199L62.0987 4.63429L62.6805 4.93995C62.9443 5.08387 63.1947 5.25126 63.4286 5.44011C63.6982 5.64871 63.9486 5.88121 64.1767 6.13479C64.451 6.42556 64.6841 6.75282 64.8694 7.10733C65.0712 7.46687 65.2293 7.84935 65.3404 8.2466C65.553 9.09087 65.6 9.96852 65.4789 10.8308C65.4789 11.2476 65.3127 11.6644 65.2019 12.0256C64.9827 12.6936 64.6752 13.3291 64.2875 13.9151C64.0165 14.3612 63.6803 14.7639 63.2901 15.11L62.9299 15.3601L62.7914 15.5268Z" fill="#55463F"/>
<path d="M65.479 8.0243C65.4881 8.10741 65.4881 8.19127 65.479 8.27438C65.5612 8.5101 65.626 8.75157 65.6729 8.99684C65.6865 9.16328 65.6865 9.33057 65.6729 9.49701V10.0527C65.649 10.4566 65.584 10.857 65.479 11.2476C65.4269 11.4461 65.3621 11.641 65.285 11.8311C65.2402 12.0267 65.1654 12.2142 65.0634 12.3869C64.9404 12.7089 64.7824 13.0164 64.5923 13.3038C64.4698 13.5269 64.3309 13.7405 64.1767 13.9429C64.1297 14.023 64.074 14.0975 64.0105 14.1652V13.8873C64.1271 13.6723 64.2289 13.4494 64.3153 13.2205L64.5092 12.7759C64.5092 12.7759 64.5092 12.4424 64.7032 12.2757L64.8694 11.7478C65.0336 11.5565 65.1819 11.352 65.3127 11.1364C65.4193 10.7622 65.5026 10.3817 65.5621 9.99717C65.5621 9.83045 65.5621 9.63594 65.5621 9.46922C65.5754 9.31205 65.5754 9.15402 65.5621 8.99684C65.5815 8.75642 65.5815 8.51481 65.5621 8.27438L65.479 8.0243Z" fill="#55463F"/>
<path d="M57.0837 2.80035L57.4993 3.07822C57.8707 3.32912 58.2227 3.60778 58.5522 3.91183C58.769 4.11133 58.9727 4.32482 59.1618 4.55093C59.397 4.78854 59.619 5.039 59.8267 5.30118C60.0207 5.57905 60.2423 5.85692 60.4363 6.16258L60.7133 6.63496C60.8162 6.79562 60.9087 6.96268 60.9904 7.13512C61.1456 7.46137 61.2843 7.79523 61.406 8.13545C61.5295 8.47124 61.6313 8.81466 61.7108 9.16357C61.7108 9.35808 61.7108 9.49701 61.7108 9.66374C61.7108 9.83046 61.7108 9.99718 61.7108 10.1639C61.738 10.4597 61.738 10.7573 61.7108 11.0531C61.7276 11.3029 61.7276 11.5535 61.7108 11.8033C61.729 11.9974 61.729 12.1928 61.7108 12.3869L61.5722 12.8592V12.3591C61.5908 12.1743 61.5908 11.9881 61.5722 11.8033C61.5862 11.5534 61.5862 11.303 61.5722 11.0531C61.5981 10.7665 61.5981 10.4782 61.5722 10.1917C61.5722 9.88603 61.5722 9.55259 61.3783 9.24693C61.3022 8.9062 61.2003 8.57178 61.0735 8.2466C60.9425 7.91498 60.7946 7.59037 60.6302 7.27406L60.3809 6.80168L60.1315 6.3293L59.5496 5.4679L58.9401 4.68987C58.7602 4.46442 58.5658 4.25094 58.3583 4.05077L57.8318 3.52282L57.4162 3.1338L57.0837 2.80035Z" fill="#55463F"/>
<path d="M54.5901 2.80035L54.784 3.07822L54.9503 3.46724C54.9503 3.63396 54.9503 3.80068 55.0888 3.99519C55.1682 4.43568 55.2145 4.88153 55.2273 5.32897C55.2273 5.80135 55.2273 6.3293 55.2273 6.82946C55.2615 7.34232 55.3263 7.85266 55.4213 8.35775C55.4061 8.58905 55.4061 8.82111 55.4213 9.05242C55.4056 9.24661 55.4056 9.44176 55.4213 9.63595C55.4473 9.80763 55.4938 9.97556 55.5598 10.1361C55.5847 10.2725 55.6315 10.4038 55.6984 10.5251L55.8369 10.8586L55.6429 10.5529C55.5565 10.4456 55.4907 10.3231 55.449 10.1917C55.4239 10.0449 55.4147 9.89586 55.4213 9.7471L55.255 9.13578C55.255 8.91349 55.255 8.69119 55.1165 8.44111C54.978 8.19103 55.1165 7.44078 55.1165 6.91282C55.1165 6.38487 55.1165 5.88471 55.1165 5.41233V4.71765C55.1165 4.49536 55.1165 4.30085 55.1165 4.10634C55.1165 3.91183 55.1165 3.74511 55.1165 3.57839C55.1243 3.45811 55.1243 3.33744 55.1165 3.21716L54.5901 2.80035Z" fill="#55463F"/>
<path d="M53.8421 3.68954C53.8421 3.68954 53.8421 3.99519 53.8421 4.46757C53.8421 4.93995 53.8421 5.57905 53.8421 6.19036C53.8421 6.80168 53.8421 6.80168 53.8421 7.10733C53.8421 7.41299 53.8421 7.66307 53.8421 7.88537V8.19103C53.8263 8.27364 53.8263 8.35849 53.8421 8.44111V8.63562V8.44111C53.8271 8.36777 53.8271 8.29216 53.8421 8.21881C53.8421 8.21881 53.8421 8.0243 53.8421 7.91316C53.7651 7.64946 53.7095 7.37998 53.6758 7.10733C53.6606 6.95953 53.6606 6.81055 53.6758 6.66274V6.19036C53.6289 5.61706 53.6289 5.04087 53.6758 4.46757C53.7589 3.99519 53.8421 3.68954 53.8421 3.68954Z" fill="#55463F"/>
<path d="M57.6934 6.41266C57.7658 6.47225 57.8228 6.54851 57.8596 6.63495C57.8596 6.77389 58.0813 6.99618 58.2198 7.27405C58.543 7.94667 58.7849 8.65564 58.9402 9.38586C59.0121 9.79005 59.0584 10.1984 59.0787 10.6085C59.0787 10.9697 59.0787 11.331 59.0787 11.6366C59.0854 11.7755 59.0854 11.9146 59.0787 12.0534C59.0948 12.1547 59.0948 12.2578 59.0787 12.3591V12.6369V12.3591C59.0787 12.3591 59.0787 12.1646 59.0787 12.0256C59.0659 11.8963 59.0659 11.766 59.0787 11.6366V11.1364C59.0787 10.9697 59.0787 10.803 59.0787 10.6085C59.0485 10.2255 58.993 9.84487 58.9125 9.46923C58.9125 9.08021 58.7462 8.69119 58.6631 8.32996L58.1921 7.35742L57.9427 6.66274C57.8731 6.56687 57.789 6.48249 57.6934 6.41266V6.41266Z" fill="#55463F"/>
<path d="M58.8015 8.35774L58.9955 8.63561C59.131 8.93423 59.2153 9.25363 59.2448 9.58037C59.3018 9.90203 59.3018 10.2313 59.2448 10.5529C59.2448 10.5529 59.2448 10.7752 59.2448 10.8586V10.5251C59.2448 10.275 59.2448 9.9416 59.2448 9.60816C59.2448 9.27471 59.2448 8.94127 59.1063 8.69119C59.0163 8.56993 58.9141 8.45821 58.8015 8.35774V8.35774Z" fill="#55463F"/>
<path d="M58.192 5.35675C58.3897 5.6637 58.5568 5.98946 58.6907 6.32929C58.8553 6.6704 58.9942 7.02335 59.1063 7.3852C59.2493 7.79273 59.3605 8.2108 59.4388 8.63561C59.4544 8.84836 59.4544 9.06197 59.4388 9.27471C59.4525 9.48753 59.4525 9.701 59.4388 9.91381C59.4676 10.293 59.4676 10.6739 59.4388 11.0531V11.4977C59.4388 11.4977 59.4388 11.72 59.4388 11.8311V12.109V11.8033C59.4388 11.8033 59.4388 11.6088 59.4388 11.4699C59.4388 11.3309 59.4388 11.192 59.4388 11.0253V10.5251C59.4251 10.3309 59.4251 10.1359 59.4388 9.9416C59.4388 9.5248 59.4388 9.10799 59.2449 8.69119C59.0509 8.27438 59.0509 7.85758 58.9401 7.46856C58.8293 7.07954 58.7462 6.69052 58.6353 6.38487C58.5245 6.07921 58.4691 5.82913 58.4137 5.63462L58.192 5.35675Z" fill="#55463F"/>
<path d="M48.55 1.74445H48.7163L49.0765 2.16125C49.4437 2.59001 49.7513 3.06673 49.9908 3.57839C50.1253 3.85577 50.2365 4.14389 50.3233 4.43978C50.4022 4.69351 50.4579 4.95393 50.4895 5.21782C50.5035 5.4028 50.5035 5.58858 50.4895 5.77356C50.4895 5.77356 50.4895 5.44011 50.4895 5.21782C50.4488 4.968 50.3742 4.72493 50.2679 4.49536C50.1613 4.25176 50.0314 4.01911 49.88 3.80068C49.7581 3.52373 49.6194 3.25461 49.4644 2.99486L48.9934 2.35576L48.6609 1.88338L48.55 1.74445Z" fill="#55463F"/>
<path d="M49.88 2.99487C49.9764 3.05247 50.061 3.1279 50.1294 3.21716C50.2931 3.40227 50.4159 3.62009 50.4896 3.85626C50.5778 4.07865 50.6338 4.31259 50.6558 4.55094C50.673 4.66142 50.673 4.7739 50.6558 4.88438C50.6478 4.78265 50.6478 4.68045 50.6558 4.57872C50.559 4.36181 50.4757 4.13908 50.4064 3.91184C50.4064 3.68954 50.2125 3.43946 50.1294 3.27273L49.88 2.99487Z" fill="#55463F"/>
<path d="M49.1873 1.82781C49.3474 1.97315 49.4956 2.13112 49.6306 2.30019L50.0185 2.85593C50.1642 3.07789 50.2938 3.31004 50.4064 3.5506C50.5271 3.7795 50.6201 4.02204 50.6834 4.27307C50.7534 4.48972 50.7998 4.71331 50.822 4.93995C50.8335 5.0972 50.8335 5.25508 50.822 5.41233C50.8302 5.26425 50.8302 5.11582 50.822 4.96774C50.822 4.77323 50.822 4.55093 50.628 4.32864C50.4341 4.10634 50.4341 3.85626 50.3232 3.63396L49.8799 2.96708C49.7809 2.76602 49.6699 2.57116 49.5474 2.38355L49.1873 1.82781Z" fill="#55463F"/>
<path d="M51.4315 3.32831C51.5406 3.5144 51.6333 3.70964 51.7086 3.91183C51.7991 4.11871 51.8732 4.3324 51.9302 4.55093L52.0965 5.32897C52.1102 5.58813 52.1102 5.84784 52.0965 6.107C52.1134 6.32897 52.1134 6.55192 52.0965 6.77389C52.0747 6.93754 52.028 7.09686 51.9579 7.24627V7.41299C51.9509 7.34835 51.9509 7.28312 51.9579 7.21848C51.9579 7.21848 51.9579 6.9684 51.9579 6.77389V6.107V5.35676C51.9735 5.10692 51.9735 4.85635 51.9579 4.60651C51.9308 4.38067 51.8844 4.15756 51.8194 3.93962L51.4315 3.32831Z" fill="#55463F"/>
<path d="M47.4972 2.30019L47.8851 2.49469C48.1263 2.68188 48.3247 2.91876 48.4669 3.18937C48.5518 3.33178 48.6259 3.4804 48.6886 3.63396V4.07855C48.6999 4.17083 48.6999 4.26415 48.6886 4.35642V4.49536V4.21749C48.5866 3.94113 48.4662 3.67192 48.3284 3.41166L48.0513 2.80035C47.9749 2.6843 47.8917 2.57295 47.802 2.46691L47.4972 2.30019Z" fill="#55463F"/>
<path d="M45.5023 2.21683C45.677 2.19248 45.8541 2.19248 46.0287 2.21683H46.5552C46.7592 2.28644 46.9545 2.37969 47.137 2.4947L47.6357 2.9115L47.802 3.16159L47.9405 3.38388L48.0791 3.74511V3.88405C48.0233 3.76795 47.9584 3.65645 47.8851 3.5506L47.5526 3.16159C47.4166 3.0274 47.2681 2.90645 47.1093 2.80036C46.9459 2.68629 46.7691 2.59295 46.5829 2.52249L46.001 2.35576L45.5023 2.21683Z" fill="#55463F"/>
<path d="M60.2978 8.19102C60.4448 8.50454 60.5652 8.82986 60.658 9.16357C60.7566 9.50044 60.8307 9.84405 60.8796 10.1917C60.9081 10.5895 60.9081 10.9888 60.8796 11.3865C60.8796 11.6088 60.8796 11.8033 60.8796 11.9978C60.8953 12.192 60.8953 12.3872 60.8796 12.5814C60.8796 12.7759 60.8796 12.9704 60.7134 13.1093C60.5472 13.2483 60.5749 13.4428 60.4917 13.5817L60.1593 13.9151C60.1087 14.0086 60.0432 14.0931 59.9653 14.1652L59.7991 14.3875V14.1374L59.9653 13.8596C60.0035 13.7272 60.0498 13.5973 60.1038 13.4705C60.1038 13.4705 60.1038 13.1649 60.2424 13.026C60.3809 12.887 60.2424 12.6647 60.2424 12.498C60.231 12.3129 60.231 12.1273 60.2424 11.9423C60.2424 11.7478 60.2424 11.5532 60.2424 11.3587C60.2562 11.1552 60.2562 10.951 60.2424 10.7474C60.2562 10.5624 60.2562 10.3767 60.2424 10.1917C60.2605 9.84922 60.2605 9.50603 60.2424 9.16357C60.3809 8.60783 60.2978 8.19102 60.2978 8.19102Z" fill="#55463F"/>
<path d="M67.0028 11.7755C67.0152 11.8491 67.0152 11.9243 67.0028 11.9978C66.953 12.2096 66.8786 12.4148 66.7811 12.6092C66.6758 12.8976 66.546 13.1765 66.3932 13.4428L65.8391 14.3042L65.4789 14.721L65.1464 15.0822L64.7862 15.4156L64.4261 15.6657L63.8719 15.9992H63.6503H63.8442L64.0936 15.8602L64.3429 15.6101C64.4668 15.5345 64.5789 15.4409 64.6754 15.3323L65.0079 14.9988L65.3404 14.6376L65.6452 14.2208C65.9721 13.6871 66.2592 13.1298 66.5041 12.5536C66.6202 12.3767 66.7221 12.1909 66.8088 11.9978L67.0028 11.7755Z" fill="#55463F"/>
<path d="M55.4214 4.80102V5.57905C55.4214 5.99586 55.4214 6.52381 55.4214 7.07955C55.4214 7.63529 55.4214 8.16324 55.4214 8.58004C55.4214 8.99685 55.4214 8.96906 55.4214 9.08021V9.19136V9.02464C55.4072 8.85822 55.4072 8.69089 55.4214 8.52447C55.2928 8.02453 55.2185 7.51213 55.1997 6.99619C55.2452 6.51978 55.3192 6.04654 55.4214 5.57905C55.4214 5.38454 55.4214 5.21782 55.5599 5.07889L55.4214 4.80102Z" fill="#55463F"/>
<path d="M57.0561 4.57872C57.0561 4.57872 57.0561 5.0511 57.0561 5.74577C57.0561 6.44045 57.0561 6.52381 57.0561 6.9684C57.0561 7.41299 57.0561 7.88537 57.0561 8.35775C57.0561 8.83013 57.0561 8.83013 57.0561 9.05242V9.7471V10.3584C57.0561 10.5807 57.0561 10.7474 57.0561 10.9419C57.0644 11.09 57.0644 11.2384 57.0561 11.3865C57.0561 11.3865 57.0561 11.6366 57.0561 11.7478V12.0534L56.8898 11.7755L56.7236 11.4143L56.5573 10.9697C56.4296 10.5805 56.3369 10.1807 56.2803 9.77488C56.2667 9.54352 56.2667 9.31157 56.2803 9.08021C56.2655 8.83962 56.2655 8.59834 56.2803 8.35775C56.2803 7.88537 56.2803 7.41299 56.2803 6.9684C56.2803 6.52381 56.2803 6.107 56.2803 5.74577C56.5154 5.34158 56.7745 4.95186 57.0561 4.57872V4.57872Z" fill="#55463F"/>
<path d="M52.1797 2.38354C52.3328 2.55089 52.4632 2.73775 52.5676 2.93928C52.6765 3.14472 52.7691 3.35841 52.8446 3.57838C52.9476 3.83809 53.0219 4.1083 53.0663 4.38421C53.0936 4.64283 53.0936 4.90362 53.0663 5.16224C53.094 5.40226 53.094 5.64468 53.0663 5.8847C53.0663 6.07921 53.0663 6.24593 53.0663 6.35708C53.0663 6.35708 53.0663 6.07921 53.0663 5.8847C53.0789 5.65332 53.0789 5.42141 53.0663 5.19003C53.053 5.0607 53.053 4.93034 53.0663 4.80101V4.41199C52.9809 3.92861 52.8511 3.45421 52.6784 2.99486C52.5275 2.77901 52.3608 2.57468 52.1797 2.38354V2.38354Z" fill="#55463F"/>
<path d="M47.1093 23.7517C47.1333 24.4219 47.198 25.0901 47.3032 25.7524C47.1864 26.1301 47.1302 26.524 47.137 26.9194C47.2556 27.3051 47.4134 27.6776 47.608 28.0309C47.608 28.0309 47.4418 28.3921 47.608 28.5867C47.6785 28.7647 47.7716 28.9328 47.8851 29.0868C47.8583 29.1333 47.8442 29.186 47.8442 29.2397C47.8442 29.2933 47.8583 29.346 47.8851 29.3925C47.932 29.5437 47.9875 29.6922 48.0513 29.8371L48.273 30.1149C48.3206 30.3362 48.395 30.5509 48.4946 30.754C48.4946 30.9763 48.9933 31.5321 48.9933 31.5321C49.0847 31.7459 49.1961 31.9506 49.3258 32.1434C49.3258 32.3379 50.1293 32.6991 50.157 33.0326C50.1847 33.366 50.7112 33.6717 50.7666 33.7272C50.822 33.7828 50.7666 34.0051 51.0991 34.3108C51.3186 34.5134 51.5603 34.6905 51.8194 34.8387L52.1242 35.2555L49.6306 34.8387C49.6306 34.8387 45.1144 30.3372 45.1421 30.1983C45.1698 30.0594 45.8071 25.8357 45.8625 25.6135C46.2375 24.9665 46.654 24.3446 47.1093 23.7517V23.7517Z" fill="#251F12"/>
<path d="M55.6708 37.0895C55.535 37.0594 55.4103 36.9921 55.3106 36.895C55.3106 36.895 55.3106 37.0339 55.0612 36.895C54.8119 36.756 54.8673 36.6727 54.8673 36.6727C54.8673 36.6727 54.701 36.6727 54.6179 36.6727C54.5348 36.6727 54.424 36.4781 54.424 36.4781C54.3343 36.5099 54.2365 36.5099 54.1469 36.4781C54.0479 36.4211 53.9701 36.3333 53.9252 36.2281C53.9252 36.2281 53.9252 36.367 53.6482 36.2281C53.4243 36.0751 53.2354 35.8762 53.094 35.6445C53.094 35.6445 52.9555 35.7835 52.5676 35.6445C52.1797 35.5056 52.1797 35.1722 52.1797 35.1722C52.1116 35.1746 52.0442 35.1576 51.9854 35.1232C51.9265 35.0888 51.8786 35.0383 51.8472 34.9777C51.7087 34.7831 51.3208 34.9777 51.3208 34.9777C51.6878 35.8092 52.1234 36.6085 52.623 37.3673C53.3639 37.7415 54.1768 37.9501 55.0058 37.9786C55.1443 37.9786 55.6708 37.0895 55.6708 37.0895Z" fill="#251F12"/>
<path d="M53.2603 33.8662C53.4265 33.8662 54.23 33.1715 54.7564 33.2549C55.2829 33.3382 55.7816 33.0604 55.9755 33.1159C56.1695 33.1715 56.4742 32.6158 56.4742 32.6158L55.4214 32.3935C55.4214 32.3935 54.1469 32.9214 54.0915 32.977L53.2603 33.8662Z" fill="#251F12"/>
<path d="M57.25 31.671C56.6158 31.5824 55.9724 31.5824 55.3382 31.671C55.0334 31.671 53.6204 32.3935 53.5095 33.0326C53.3987 33.6717 56.585 32.2823 56.585 32.2823L57.25 31.671Z" fill="#251F12"/>
<path d="M51.9857 18.5C50.7068 18.7295 49.5224 19.3282 48.5778 20.2228C48.5778 20.6118 48.1067 20.584 48.079 20.7785C47.848 21.3196 47.589 21.8483 47.3032 22.3624L46.4443 18.9446C46.4443 18.9446 50.4895 15.7213 50.6558 15.7213C51.1661 16.6138 51.6106 17.5425 51.9857 18.5V18.5Z" fill="#55463F"/>
<path d="M45.0035 22.2512C45.0374 21.4497 44.9723 20.647 44.8096 19.8615C44.5879 18.6389 43.4797 16.2492 41.2631 16.3326C39.0466 16.416 39.0743 19.4725 39.5453 21.3065C39.7135 22.2225 39.7601 23.1569 39.6838 24.0852C39.6838 25.9747 41.5402 26.6416 42.8424 26.6694L42.6762 26.9194C42.8709 26.6284 43.0838 26.35 43.3134 26.0858C44.2963 25.0383 44.8926 23.6853 45.0035 22.2512V22.2512Z" fill="#F7B799"/>
<path d="M32.3416 192.03C29.9311 197.309 23.0321 205.645 23.8911 207.34C24.75 209.035 28.9337 216.01 33.2559 216.76C37.5782 217.51 39.1298 200.644 38.7973 199.56C36.8535 196.878 34.6944 194.359 32.3416 192.03V192.03Z" fill="#48423B"/>
<g style="mix-blend-mode:multiply" opacity="0.3">
<path d="M32.3416 192.03C29.9311 197.309 23.0321 205.645 23.8911 207.34C24.75 209.035 28.9337 216.01 33.2559 216.76C37.5782 217.51 39.1298 200.644 38.7973 199.56C36.8535 196.878 34.6944 194.359 32.3416 192.03V192.03Z" fill="#48423B"/>
</g>
<path d="M131.449 86.4947C131.443 87.8258 131.832 89.1287 132.565 90.2381C133.299 91.3476 134.344 92.2138 135.569 92.7271C136.793 93.2403 138.142 93.3774 139.445 93.1211C140.747 92.8648 141.945 92.2265 142.885 91.2872C143.826 90.3479 144.467 89.1498 144.728 87.8446C144.989 86.5394 144.858 85.186 144.351 83.9556C143.844 82.7253 142.985 81.6734 141.882 80.9333C140.779 80.1931 139.481 79.798 138.154 79.798C136.38 79.798 134.679 80.5027 133.422 81.7577C132.166 83.0128 131.456 84.7161 131.449 86.4947Z" fill="#572E18"/>
<path d="M150.594 245.297H118.842V248.632H150.594V245.297Z" fill="#1C1C1C"/>
<path d="M118.842 248.632C118.842 250.493 125.935 252.022 134.718 252.022C143.501 252.022 150.594 250.493 150.594 248.632C150.594 246.77 143.501 245.242 134.718 245.242C125.935 245.242 118.842 246.742 118.842 248.632Z" fill="#1C1C1C"/>
<path d="M118.842 245.297C118.842 247.159 125.935 248.687 134.718 248.687C143.501 248.687 150.594 247.159 150.594 245.297C150.594 243.435 143.501 241.907 134.718 241.907C125.935 241.907 118.842 243.408 118.842 245.297Z" fill="#545250"/>
<path d="M134.718 246.047C135.328 246.047 135.913 245.804 136.344 245.372C136.776 244.939 137.018 244.353 137.018 243.741V168.188C137.018 167.886 136.958 167.586 136.843 167.306C136.727 167.026 136.558 166.772 136.344 166.558C136.131 166.343 135.877 166.174 135.598 166.058C135.319 165.942 135.02 165.882 134.718 165.882C134.416 165.882 134.117 165.942 133.838 166.058C133.559 166.174 133.306 166.343 133.092 166.558C132.879 166.772 132.709 167.026 132.594 167.306C132.478 167.586 132.419 167.886 132.419 168.188V243.741C132.419 244.044 132.478 244.344 132.594 244.624C132.709 244.904 132.879 245.158 133.092 245.372C133.306 245.586 133.559 245.756 133.838 245.872C134.117 245.988 134.416 246.047 134.718 246.047V246.047Z" fill="#1C1C1C"/>
<path d="M123.719 209.508C123.719 207.813 127.404 206.979 134.801 206.979C142.199 206.979 145.884 207.813 145.884 209.508C145.884 211.203 142.199 212.036 134.801 212.036C127.404 212.036 123.719 211.203 123.719 209.508ZM134.801 208.896C132.202 208.856 129.605 209.061 127.043 209.508C129.606 209.942 132.203 210.137 134.801 210.091C137.4 210.137 139.997 209.942 142.559 209.508C139.971 209.056 137.345 208.851 134.718 208.896H134.801Z" fill="#1C1C1C"/>
<path d="M114.326 168.188C114.326 169.205 114.729 170.181 115.446 170.9C116.163 171.619 117.136 172.023 118.15 172.023H151.398C152.402 172.008 153.361 171.598 154.066 170.88C154.771 170.163 155.166 169.196 155.166 168.188V168.188C155.166 167.685 155.067 167.186 154.875 166.721C154.683 166.256 154.401 165.833 154.046 165.477C153.691 165.121 153.269 164.838 152.806 164.646C152.342 164.453 151.844 164.354 151.342 164.354H118.094C117.592 164.354 117.095 164.453 116.631 164.646C116.167 164.838 115.746 165.121 115.391 165.477C115.035 165.833 114.754 166.256 114.562 166.721C114.37 167.186 114.271 167.685 114.271 168.188H114.326Z" fill="#545250"/>
<g style="mix-blend-mode:multiply" opacity="0.5">
<path d="M151.287 169.522H118.039C117.249 169.518 116.48 169.267 115.84 168.803C115.199 168.34 114.718 167.688 114.465 166.938C114.31 167.337 114.226 167.76 114.215 168.188C114.215 169.205 114.618 170.181 115.335 170.9C116.052 171.619 117.025 172.023 118.039 172.023H151.287C151.794 172.03 152.297 171.937 152.767 171.747C153.237 171.558 153.665 171.277 154.026 170.92C154.387 170.563 154.674 170.138 154.87 169.669C155.065 169.2 155.166 168.697 155.166 168.188C155.155 167.76 155.071 167.337 154.916 166.938C154.664 167.699 154.175 168.36 153.523 168.825C152.87 169.29 152.087 169.534 151.287 169.522V169.522Z" fill="#545250"/>
</g>
<path d="M150.816 90.1904C156.717 89.5513 161.012 88.5509 167.246 93.8027C173.48 99.0544 199.164 113.948 199.164 119.506C199.164 123.118 183.648 124.424 175.613 125.396C167.579 126.369 170.793 126.313 172.012 127.953C172.922 129.336 173.269 131.017 172.981 132.649C172.621 134.26 168.299 137.345 166.47 133.149C165.113 130.065 164.614 124.257 167.551 122.534C170.959 120.534 181.986 116.532 185.172 116.977C185.172 116.977 167.606 111.42 159.848 106.64L150.816 90.1904Z" fill="#F7B799"/>
<path d="M165.971 131.843C166.692 134.695 167.984 137.371 169.767 139.707C171.042 140.679 176.029 144.18 176.251 143.402C176.472 142.624 173.757 140.04 172.815 139.318C171.042 138.016 169.77 136.142 169.213 134.01L165.971 131.843Z" fill="#F7B799"/>
<path d="M166.858 132.26C168.405 134.661 170.422 136.721 172.787 138.317C174.283 138.79 180.157 140.79 180.13 139.957C180.102 139.123 176.555 137.345 175.475 136.984C173.464 136.373 171.711 135.113 170.488 133.399L166.858 132.26Z" fill="#F7B799"/>
<path d="M167.966 130.954C169.46 132.962 171.345 134.645 173.508 135.9C174.838 136.206 180.49 137.678 180.407 136.956C180.324 136.233 176.777 134.788 175.78 134.538C174.238 134.034 172.929 132.988 172.095 131.593L167.966 130.954Z" fill="#F7B799"/>
<path d="M150.816 140.902H125.215C125.603 136.067 126.628 123.562 126.628 121.034C127.003 117.274 127.003 113.485 126.628 109.725C125.547 104.584 129.205 100.805 131.947 97.665C136.547 92.3855 132.945 90.5516 150.844 90.0514L161.926 103.945C161.926 103.945 163.034 106.724 157.271 116.06C152.838 123.34 148.516 136.178 150.816 140.902Z" fill="#F7B799"/>
<path d="M95.8178 156.073C96.3165 151.127 102.218 148.988 111.25 148.487C120.283 147.987 132.114 148.321 132.114 148.321H153.642C154.357 150.924 154.3 153.679 153.478 156.25C152.656 158.821 151.105 161.096 149.015 162.798C141.312 169.383 110.225 161.158 110.225 161.158C110.225 161.158 116.986 172.718 118.87 195.614C119.532 206.145 121.677 216.53 125.242 226.458C125.694 228.751 125.99 231.071 126.129 233.404C126.129 236.183 124.467 234.988 123.109 235.266C120.117 235.905 116.847 228.597 116.847 228.597C116.469 225.031 115.812 221.501 114.88 218.038C112.636 210.98 107.704 199.866 103.797 188.195C97.9512 170.828 95.5962 158.407 95.8178 156.073Z" fill="#F7B799"/>
<path d="M130.23 142.93C121.219 141.669 112.144 140.927 103.049 140.707C95.2637 141.068 91.2462 140.346 89.1959 148.182C87.1456 156.018 68.1664 213.12 66.504 214.87C66.504 214.87 71.1588 217.649 73.0705 216.816C76.5062 215.454 81.0224 204.311 81.0224 204.311C81.0224 204.311 77.8915 201.95 83.0727 194.864C92.8809 181.359 101.027 165.076 99.6968 155.962L143.446 155.629L130.23 142.93Z" fill="#F7B799"/>
<path d="M127.459 98.8321C127.802 97.3191 128.56 95.9323 129.647 94.8278C130.733 93.7232 132.106 92.9448 133.61 92.58C135.538 92.1261 137.401 91.4257 139.151 90.496C141.312 89.2456 140.952 83.0491 140.952 83.0491H145.635L151.176 79.7702C151.176 79.7702 150.04 89.2456 152.201 90.496C154.664 91.4465 157.217 92.1447 159.82 92.58C161.345 92.9057 162.742 93.6708 163.84 94.7814C164.938 95.892 165.688 97.2999 165.999 98.8321C166.24 101.372 166.323 103.924 166.248 106.474H145.468L120.311 130.62L118.648 118.811C118.648 118.811 124.91 105.418 127.459 98.8321Z" fill="#F7B799"/>
<path d="M125.159 141.735C125.159 141.735 125.907 112.503 126.6 109.891C151.342 103.473 157.244 92.7468 158.934 89.6902C160.63 89.7914 162.271 90.334 163.694 91.2646C165.118 92.1953 166.275 93.4818 167.052 94.9975C167.964 97.4794 168.732 100.012 169.352 102.583L148.35 107.446L125.159 141.735Z" fill="#C95932"/>
<path d="M125.963 117.699L137.433 109.975L155.166 99.7491L160.236 91.413L162.203 90.7183C163.967 91.4807 165.602 92.5117 167.052 93.7749C170.404 96.5536 179.548 102.417 187.139 107.891C184.476 109.956 182.489 112.771 181.432 115.977C176.251 114.198 167.024 111.948 161.455 108.863C160.397 111.923 158.973 114.843 157.216 117.561C153.199 124.063 149.153 134.511 150.4 139.79L152.063 143.764C152.063 143.764 136.796 149.321 125.076 142.485C125.353 139.901 125.741 121.895 125.963 117.699Z" fill="#F19649"/>
<path d="M128.65 122.618L139.151 111.67L130.23 94.275C128.944 95.5401 127.991 97.1062 127.459 98.8321C125.713 103.639 121.918 111.975 119.978 116.171C123.576 117.145 126.674 119.448 128.65 122.618V122.618Z" fill="#C95932"/>
<path d="M132.197 92.8301C132.446 92.8301 131.144 92.6356 131.366 92.58C132.277 92.3169 133.202 92.1036 134.136 91.9409C131.096 97.5061 129.415 103.715 129.232 110.058C128.429 110.253 128.678 113.531 127.791 113.948C127.791 113.948 126.268 112.448 126.212 112.476C126.768 105.57 128.81 98.8679 132.197 92.8301V92.8301Z" fill="#BD251E"/>
<path d="M119.285 200.894C117.568 200.382 115.748 200.329 114.003 200.738C112.259 201.147 110.651 202.005 109.339 203.228C107.51 198.532 105.543 193.447 103.797 188.195C97.9513 170.828 95.4854 158.407 95.8178 156.073C95.9872 154.901 96.4637 153.794 97.1987 152.867C97.9337 151.939 98.9009 151.224 100.002 150.794H116.847L129.869 164.826C123.204 164.043 116.596 162.827 110.087 161.186C110.087 161.186 116.847 172.745 118.731 195.642C118.898 197.309 119.147 199.171 119.285 200.894Z" fill="#C95932"/>
<path d="M152.09 143.708C152.09 143.708 162.813 166.632 136.408 165.66C110.004 164.687 99.5028 155.768 99.5028 155.768C99.3024 167.641 95.0483 179.087 87.4504 188.195C84.3591 186.263 80.8557 185.091 77.2266 184.777C77.2266 184.777 87.1179 154.434 88.5032 150.071C89.8886 145.709 89.5284 140.012 97.4248 139.679C106.688 139.871 115.935 140.529 125.132 141.652L152.09 143.708Z" fill="#F19649"/>
<path d="M138.237 101.222C136.02 100.861 135.466 92.4133 135.466 91.9687L133.388 92.58C132.308 92.8381 131.291 93.3105 130.396 93.9694L129.731 98.582C127.404 104.278 123.303 108.307 124.19 113.476C124.911 117.452 125.374 121.471 125.575 125.508L145.468 106.474H147.159L151.148 93.2191C151.148 93.2191 141.839 101.833 138.237 101.222Z" fill="#F19649"/>
<path d="M80.9116 204.228C81.7026 205.117 82.285 206.173 82.6158 207.317C82.9466 208.462 83.0175 209.666 82.8233 210.841C82.2754 213.585 82.1632 216.399 82.4908 219.177H80.6899L79.9141 210.508C78.2413 212.445 76.8 214.571 75.6196 216.843C74.8161 219.066 75.8689 219.622 66.5594 220.456C61.9878 220.845 57.5824 220.039 58.2474 218.316C58.7461 217.205 64.6477 215.537 66.3101 214.593C66.504 214.787 72.3779 216.76 80.9116 204.228Z" fill="#251F12"/>
<path d="M133.444 67.4328C133.249 69.0824 132.868 70.7044 132.308 72.2678C131.88 72.8023 131.588 73.4333 131.458 74.1063C131.327 74.7792 131.362 75.4738 131.56 76.1301C131.837 77.6306 130.562 78.5754 129.98 79.5202C129.501 80.1317 129.174 80.8485 129.024 81.6117C128.875 82.3749 128.908 83.1627 129.121 83.9105C129.489 84.8362 129.638 85.8349 129.557 86.8281C129.475 87.8213 129.165 88.7819 128.65 89.6346C128.017 90.4036 127.635 91.3492 127.556 92.3433C127.476 93.3374 127.704 94.3319 128.207 95.192C129.731 97.6373 126.711 101.111 126.739 103.528C126.739 107.724 128.983 110.836 128.65 113.17C128.373 114.921 127.487 115.004 129.98 119.756L132.086 102.639L132.335 84.2995L133.139 77.8807L134.746 72.2678L133.444 67.4328Z" fill="#572E18"/>
<path d="M116.903 229.042C116.432 226.458 119.673 234.599 122.444 233.46C125.215 232.321 124.744 228.514 125.215 226.458C125.215 226.458 131.144 242.796 124.882 243.686C120.837 244.269 118.288 236.405 116.903 229.042Z" fill="#251F12"/>
<path d="M133.693 70.1004C133.155 67.5537 133.155 64.9223 133.693 62.3756C134.356 59.998 135.826 57.9274 137.85 56.5219C139.874 55.1164 142.323 54.4644 144.776 54.6786C151.675 55.0121 133.693 70.1004 133.693 70.1004Z" fill="#572E18"/>
<path d="M136.408 72.2678C136.408 72.2678 132.945 74.3796 130.867 81.6042C129.661 86.3434 129.065 91.218 129.094 96.109C129.094 100.472 130.645 105.334 129.398 108.78C128.621 110.917 128.379 113.213 128.693 115.465C129.007 117.718 129.867 119.86 131.199 121.701C130.475 120.547 130.056 119.226 129.984 117.865C129.911 116.503 130.186 115.145 130.784 113.92C132.463 111.189 133.355 108.043 133.361 104.834C133.194 100.11 132.197 95.1364 133.361 92.4133C134.885 90.0611 135.72 87.3268 135.771 84.5218C135.745 81.0647 136.522 77.649 138.043 74.5463C138.819 73.9906 137.461 73.7127 137.461 73.7127L136.408 72.2678Z" fill="#572E18"/>
<path d="M134.524 72.0733C134.375 72.2418 134.26 72.4387 134.187 72.6523C134.114 72.8659 134.085 73.0919 134.1 73.3171C134.116 73.5422 134.176 73.762 134.277 73.9636C134.379 74.1651 134.519 74.3443 134.691 74.4907L136.159 75.7411C136.497 76.0356 136.938 76.1835 137.385 76.1522C137.832 76.121 138.248 75.9131 138.542 75.5744V75.5744C138.83 75.2277 138.974 74.7827 138.943 74.3322C138.912 73.8817 138.709 73.4606 138.376 73.1569L136.907 71.9065C136.569 71.612 136.128 71.4642 135.681 71.4954C135.235 71.5267 134.818 71.7345 134.524 72.0733V72.0733Z" fill="#C90E00"/>
<path d="M135.549 63.5982C137.6 58.3743 141.479 53.4004 148.987 55.0398C152.048 55.6716 154.764 57.4257 156.603 59.9592C158.443 62.4928 159.274 65.6234 158.934 68.7388C158.534 71.4806 157.662 74.1319 156.357 76.5747C155.859 77.4084 151.703 78.9644 150.4 81.5208C149.098 84.0772 135.549 63.5982 135.549 63.5982Z" fill="#572E18"/>
<path d="M150.566 88.5231C150.214 86.8338 150.074 85.1068 150.151 83.3826V83.3826C150.364 82.2052 150.661 81.0446 151.038 79.9092V79.7702L145.496 83.0491H142.005L141.312 83.3826H140.869C140.895 84.4874 140.84 85.5926 140.703 86.6892V86.6892C143.113 88.4676 148.156 88.0508 150.566 88.5231Z" fill="#F0A581"/>
<path d="M139.816 84.4107C139.699 84.3697 139.587 84.3137 139.484 84.244C139.484 84.244 139.373 84.6886 139.816 84.4107Z" fill="#F0A581"/>
<path d="M152.395 77.2972C151.595 79.469 150.08 81.3021 148.101 82.4934C145.454 84.1885 142.511 85.367 139.428 85.9667C138.126 85.7722 137.046 85.9667 135.577 82.3544C134.109 78.7421 132.806 76.9638 133.305 73.546C133.804 70.1282 133.471 63.0147 138.071 61.1252C139.969 60.5302 142.005 60.5423 143.897 61.1596C145.788 61.777 147.441 62.9691 148.627 64.5708C150.899 67.7385 150.788 68.7666 151.065 73.2681C151.065 73.2681 153.836 70.6283 154.667 70.6283C155.498 70.6283 156.274 71.3508 155.471 73.1292C154.667 74.9075 154.251 74.5185 154.058 75.4633C153.864 76.408 153.587 77.325 153.06 77.5751C152.534 77.8252 152.395 77.2972 152.395 77.2972Z" fill="#F7B799"/>
<path d="M140.37 60.3749C140.37 60.3749 143.64 71.2119 150.788 74.4352L155.637 66.2658L149.818 59.5691L140.37 60.3749Z" fill="#572E18"/>
<path d="M155.166 76.6581C155.166 76.6581 157.77 80.0203 157.022 87.7729C156.413 92.934 155.147 97.9954 153.254 102.833C151.564 107.085 148.267 111.308 148.211 115.115C148.166 117.506 147.54 119.849 146.386 121.941C145.231 124.033 143.585 125.811 141.589 127.119C142.576 126.1 143.334 124.881 143.812 123.544C144.29 122.207 144.477 120.782 144.36 119.367C143.66 116.158 143.92 112.813 145.108 109.752C147.02 105.168 150.65 100.722 150.4 97.5261C149.859 94.6473 150.128 91.6743 151.176 88.9399C152.503 85.7913 153.082 82.3761 152.866 78.9644C152.284 78.1308 153.559 77.6862 153.559 77.6862L155.166 76.6581Z" fill="#572E18"/>
<path d="M141.756 61.153C139.38 63.596 136.558 65.5582 133.444 66.9327C133.444 66.9327 134.884 59.1245 139.983 56.5403L141.756 61.153Z" fill="#572E18"/>
<path d="M159.072 66.7104C158.435 70.9618 157.161 73.8239 158.324 77.3528C159.488 80.8817 162.73 85.3554 159.072 90.635C155.415 95.9145 154.778 94.7752 156.136 98.1652C157.493 101.555 158.491 105.084 155.471 107.78C152.451 110.475 150.373 111.642 151.176 114.587C151.526 115.944 151.4 117.38 150.82 118.655C150.24 119.929 149.241 120.965 147.99 121.59C145.219 123.396 146.688 126.036 141.589 126.925C141.589 126.925 145.247 125.035 145.496 118.172C146.116 113.064 147.939 108.178 150.816 103.917L153.115 88.412L155.166 76.6581L159.072 66.7104Z" fill="#572E18"/>
<path d="M150.954 79.7703C149.863 82.3488 149.601 85.2048 150.206 87.9396C150.899 90.7183 148.821 92.3578 147.74 94.414C146.66 96.4702 147.214 97.1927 147.74 99.4712C148.267 101.75 145.912 103.084 145.496 104.695C145.081 106.307 145.496 108.641 145.025 109.669C144.554 110.697 142.836 112.865 144.166 115.226C145.496 117.588 150.567 103.361 150.567 103.361L153.116 91.9687C153.116 91.9687 157.078 82.2433 156.496 81.6876C155.441 80.3826 154.46 79.0188 153.559 77.6029L150.954 79.7703Z" fill="#572E18"/>
<path d="M136.713 90.3293C135.914 90.7134 135.265 91.3534 134.868 92.1483C134.472 92.9433 134.351 93.848 134.524 94.7196C135.051 96.6369 135.466 96.7759 134.524 99.0822C133.582 101.389 133.693 101.333 134.524 103.889C135.355 106.446 135.577 106.835 134.524 108.224C133.659 109.179 133.036 110.33 132.708 111.578C132.38 112.825 132.357 114.134 132.64 115.393C132.862 116.81 129.869 117.477 130.451 120.2C129.352 117.129 129.352 113.769 130.451 110.697C131.407 105.928 131.407 101.017 130.451 96.2479L132.585 87.5506L136.713 90.3293Z" fill="#572E18"/>
<path d="M144.083 111.67C143.232 114.077 143.06 116.673 143.584 119.172C143.679 120.136 143.575 121.11 143.28 122.032C142.984 122.955 142.503 123.806 141.867 124.535C141.867 124.535 144.831 124.063 145.33 117.894C145.829 111.725 144.083 111.67 144.083 111.67Z" fill="#572E18"/>
<path d="M33.0897 97.7762C31.0116 102.111 23.8079 111.142 29.9865 124.591C36.1651 138.04 34.4473 168.022 33.7823 169.522C33.1174 171.023 28.9613 195.364 32.0645 209.841C35.1677 224.318 31.7043 233.293 33.4221 235.377C35.14 237.461 54.3131 237.35 55.4213 233.293C56.3079 230.098 50.2679 207.785 50.2679 198.143C50.2679 188.501 53.7035 182.61 54.0637 173.662C54.4239 164.715 58.8016 142.624 60.3809 135.483C62.1541 127.425 64.7308 107.696 65.5343 100.583C56.585 102.167 36.1928 100.194 33.0897 97.7762Z" fill="#48423B"/>
<path opacity="0.5" d="M25.3872 53.5949C25.5773 52.6118 25.716 51.6194 25.8028 50.6217C25.8028 50.6217 25.6088 51.8166 25.1378 53.5671C24.6668 55.3177 23.9741 57.5963 23.1706 59.8748C21.8684 63.7094 20.4 67.4051 19.9012 68.5443C20.474 67.4212 20.9468 66.2496 21.3143 65.0432C21.3143 65.0432 21.5359 65.849 21.9793 67.1828C22.5057 65.4044 23.2815 62.7646 23.9464 60.1249C24.6114 57.4851 25.0824 55.4011 25.3872 53.5949Z" fill="#F0A581"/>
<g opacity="0.5">
<path opacity="0.5" d="M49.2981 48.8156L49.686 49.2046C49.9864 49.6233 50.2462 50.07 50.4618 50.5384C51.2337 52.1666 51.864 53.8586 52.3458 55.5956C53.0725 58.0754 53.637 60.6001 54.036 63.1536C54.1111 63.5199 54.1574 63.8916 54.1745 64.2651C54.1745 64.6541 54.1745 65.0154 54.1745 65.3766C54.1745 65.7378 54.1745 66.7937 54.3407 67.5162C54.4793 68.9889 54.6732 70.4616 54.8672 71.9621C55.0611 73.4626 55.2828 74.9353 55.5044 76.408C55.7261 77.8807 55.8923 79.1867 56.1417 80.6872C56.6127 83.4659 57.2222 86.0223 57.6932 88.2175C58.1643 90.4127 58.5245 92.3022 58.6907 93.6082C58.6907 94.275 58.6907 94.803 58.8292 95.1364V95.6922C58.8292 95.6922 58.8292 94.9419 58.469 93.6637C58.1089 92.3855 57.6378 90.5794 57.0283 88.3842C56.4187 86.189 55.643 83.6882 55.0611 80.8817C54.784 79.4924 54.5347 78.103 54.313 76.5747L53.7035 72.2678C53.5003 70.7673 53.3341 69.2668 53.2048 67.7663C53.2048 67.016 53.2048 66.2936 53.2048 65.5155C53.2048 65.1543 53.2048 64.7931 53.2048 64.4874V63.4315C52.8446 60.6528 52.3735 58.0964 51.8748 55.9012C51.5285 54.1193 51.0562 52.3643 50.4618 50.6495C50.2872 50.1743 50.0836 49.7103 49.8522 49.2602L49.2981 48.8156Z" fill="#F0A581"/>
</g>
<g opacity="0.5">
<path opacity="0.5" d="M25.8027 64.2373C25.9882 64.5903 26.1917 64.9334 26.4123 65.2654C26.9994 66.1013 27.7914 66.7712 28.7119 67.2105C29.3158 67.5105 29.9466 67.7524 30.596 67.933C31.3332 68.1386 32.0828 68.2964 32.8403 68.4054C33.6438 68.4054 34.4472 68.5721 35.3062 68.6555L37.8552 68.7944C39.6007 68.7944 41.3185 68.7944 42.9255 68.7944C44.3866 68.7668 45.8424 68.6087 47.2755 68.322C47.8175 68.2326 48.3358 68.0341 48.7994 67.7385C49.1873 67.405 49.492 67.0716 49.7691 66.7937C50.0409 66.4973 50.2909 66.1816 50.5172 65.849C50.3672 66.2323 50.1719 66.5961 49.9353 66.9327C49.7414 67.2383 49.4643 67.6273 49.1318 68.0719C48.6561 68.5088 48.0877 68.8319 47.4694 69.0167C44.337 69.9051 41.0749 70.2435 37.8275 70.017L35.0568 69.8225C34.2012 69.7357 33.3504 69.6059 32.5078 69.4335C30.9808 69.1824 29.5202 68.6248 28.2132 67.7941C27.2751 67.2103 26.5322 66.3588 26.0798 65.3488C25.9514 65.0816 25.8493 64.8024 25.775 64.5152L25.8027 64.2373Z" fill="#F0A581"/>
</g>
<g opacity="0.5">
<path opacity="0.5" d="M56.308 66.0713C56.4564 66.3134 56.6436 66.5294 56.8621 66.7104C57.3234 67.1375 57.8586 67.4765 58.4414 67.7107C58.9888 67.9387 59.5684 68.0793 60.1592 68.1275H60.9627V69.4891C60.6536 69.4342 60.3482 69.36 60.0484 69.2668C59.3907 69.0691 58.7721 68.7589 58.2198 68.3498C57.6694 67.9755 57.1908 67.5048 56.8067 66.9605C56.5977 66.6903 56.4297 66.3907 56.308 66.0713V66.0713Z" fill="#F0A581"/>
</g>
<g opacity="0.5">
<path opacity="0.5" d="M51.8194 73.4904C51.5969 73.8085 51.3466 74.1061 51.0713 74.3796C50.4953 74.9366 49.8845 75.4563 49.2427 75.9356C48.5882 76.4067 47.9032 76.8337 47.1924 77.2138C46.8526 77.3874 46.5008 77.536 46.1395 77.6584C46.2897 77.3013 46.4853 76.965 46.7214 76.6581C47.2364 76.0423 47.833 75.5 48.4946 75.0465C48.8607 74.7948 49.2399 74.5629 49.6306 74.3518C49.9677 74.165 50.3199 74.007 50.6834 73.8794C51.0421 73.697 51.4245 73.5661 51.8194 73.4904V73.4904Z" fill="#F0A581"/>
</g>
<g opacity="0.5">
<path opacity="0.5" d="M61.9602 94.4973C62.4842 93.6662 62.9561 92.8031 63.3732 91.9132C63.7057 91.2463 63.9828 90.5794 64.2045 90.0792L64.5092 89.2178L65.6452 89.7458L65.1188 90.5516C64.7412 91.1369 64.3343 91.7026 63.8997 92.2466C63.2921 93.0297 62.6448 93.781 61.9602 94.4973V94.4973Z" fill="#F0A581"/>
</g>
<g opacity="0.5">
<path opacity="0.5" d="M45.0312 79.798C44.9985 80.0935 44.9985 80.3917 45.0312 80.6872C45.0638 81.4529 45.1564 82.2147 45.3083 82.9658C45.5023 83.9105 45.7516 85.022 46.0287 86.189C46.1672 86.8004 46.3058 87.3839 46.4443 88.023C46.5828 88.6621 46.7214 89.3012 46.8876 89.8847C47.2222 91.0149 47.8426 92.0392 48.6885 92.8579C49.4665 93.6119 50.3426 94.2568 51.293 94.7752C51.957 95.1892 52.6517 95.5515 53.371 95.8589L54.1745 96.2479L53.2879 96.0534C52.5168 95.8586 51.7581 95.6173 51.0159 95.3309C50.5726 95.1364 50.0739 94.9141 49.5752 94.6363C49.0317 94.3388 48.521 93.9849 48.0513 93.5804C46.9822 92.7011 46.1846 91.535 45.7516 90.2181C45.5577 89.5513 45.4191 88.9399 45.2529 88.3008C45.0867 87.6617 45.0035 87.0504 44.865 86.4391C44.591 85.3267 44.4149 84.1924 44.3386 83.0491C44.3035 82.2354 44.3875 81.4209 44.5879 80.6316C44.7009 80.3365 44.8498 80.0565 45.0312 79.798V79.798Z" fill="#F0A581"/>
</g>
<g opacity="0.5">
<path opacity="0.5" d="M56.2803 73.0458C56.6288 72.9873 56.9846 72.9873 57.3331 73.0458C58.0686 73.1586 58.7802 73.3934 59.4389 73.7405C60.1099 74.0704 60.7266 74.5014 61.2675 75.0187C61.4584 75.1905 61.6261 75.3867 61.7662 75.6022C61.8286 75.6755 61.8757 75.7605 61.9048 75.8523H61.6277L60.9627 75.6578C60.2689 75.4531 59.5925 75.1929 58.9401 74.8797C58.3033 74.5354 57.6922 74.1454 57.1115 73.7127C56.8209 73.5079 56.5433 73.2852 56.2803 73.0458Z" fill="#F0A581"/>
</g>
<g opacity="0.5">
<path opacity="0.5" d="M58.192 84.494C58.507 84.3929 58.8323 84.3276 59.1618 84.2995C59.8452 84.2685 60.5289 84.353 61.1844 84.5496C61.8308 84.7376 62.4467 85.0184 63.013 85.3832C63.287 85.6088 63.5293 85.8705 63.7334 86.1612C63.4111 86.1975 63.0859 86.1975 62.7636 86.1612C62.1088 86.1064 61.4599 85.9949 60.8242 85.8278C60.2011 85.6366 59.598 85.3854 59.0232 85.0775C58.722 84.9201 58.4426 84.7239 58.192 84.494V84.494Z" fill="#F0A581"/>
</g>
<path d="M47.4972 44.7031L52.1519 75.63L54.8949 82.7712L57.056 73.7127L49.7414 43.4249L47.4972 44.7031Z" fill="#F19649"/>
<g opacity="0.5">
<path opacity="0.5" d="M54.5347 84.8553C54.5347 84.8553 54.1468 85.1331 53.6204 85.4388C52.9716 85.8217 52.2956 86.1561 51.5978 86.4391C50.8969 86.7136 50.1739 86.9274 49.4366 87.0782C49.0819 87.16 48.7199 87.2066 48.3561 87.2172C48.5884 86.9327 48.8482 86.6721 49.1319 86.4391C49.7504 85.9602 50.4308 85.5676 51.1545 85.2721C51.8803 84.9802 52.6466 84.8021 53.4264 84.7441C53.7994 84.7229 54.1733 84.7604 54.5347 84.8553Z" fill="#F0A581"/>
</g>
<path d="M49.4089 38.3955L48.1067 42.2578L33.2559 28.7812L30.0696 30.4206L49.2704 46.0924L51.7363 39.896C50.9203 39.4615 50.1418 38.9596 49.4089 38.3955V38.3955Z" fill="#F19649"/>
<path d="M44.3109 42.1189L51.3207 40.7573L50.157 45.2588L47.8297 46.0924L44.3109 42.1189Z" fill="#AB763A"/>
<g style="mix-blend-mode:multiply" opacity="0.5">
<path d="M44.3109 42.1189L51.3207 40.7573L50.157 45.2588L47.8297 46.0924L44.3109 42.1189Z" fill="#AB763A"/>
</g>
<path d="M91.4402 104.612C88.9466 102.222 87.3673 100.666 86.6469 100.916C85.9265 101.166 84.0702 104.806 84.5135 104.89C84.9568 104.973 91.4956 105.779 91.6618 105.751C91.8281 105.723 91.4402 104.612 91.4402 104.612Z" fill="#F7B799"/>
<path d="M81.3135 92.9498L73.3121 97.0315L81.7157 113.601L89.7171 109.519L81.3135 92.9498Z" fill="#565E13"/>
<path d="M80.998 93.9213L74.2808 97.3479L82.0311 112.629L88.7484 109.203L80.998 93.9213Z" fill="#636B1B"/>
<path d="M80.9948 110.558L82.0199 112.642L84.0979 111.586C83.9626 111.313 83.7747 111.07 83.5451 110.871C83.3155 110.671 83.0487 110.519 82.7601 110.423C82.4716 110.328 82.167 110.29 81.864 110.314C81.561 110.337 81.2655 110.42 80.9948 110.558Z" fill="#565E13"/>
<path d="M87.6997 107.14L88.7526 109.197L86.6746 110.253C86.5366 109.981 86.4537 109.685 86.4306 109.381C86.4075 109.077 86.4447 108.771 86.54 108.482C86.6353 108.193 86.7869 107.925 86.986 107.695C87.185 107.465 87.4276 107.276 87.6997 107.14V107.14Z" fill="#565E13"/>
<path d="M75.3148 99.4156L74.2897 97.276L76.34 96.2201C76.4913 96.4954 76.5849 96.7989 76.615 97.1118C76.6451 97.4247 76.6111 97.7405 76.5151 98.0398C76.4191 98.339 76.2631 98.6155 76.0567 98.8521C75.8503 99.0887 75.5978 99.2804 75.3148 99.4156V99.4156Z" fill="#565E13"/>
<path d="M82.0476 95.9978L80.9948 93.9138L78.9445 94.9697C79.0798 95.2426 79.2677 95.4859 79.4973 95.6855C79.7269 95.8852 79.9937 96.0372 80.2823 96.1328C80.5708 96.2284 80.8754 96.2657 81.1784 96.2425C81.4814 96.2194 81.7769 96.1362 82.0476 95.9978V95.9978Z" fill="#565E13"/>
<path d="M84.1533 101.944C84.4945 102.646 84.5493 103.454 84.3062 104.196C84.063 104.938 83.5411 105.556 82.8511 105.918C82.153 106.286 81.3376 106.362 80.5842 106.127C79.8307 105.893 79.2011 105.367 78.8336 104.667C78.4662 103.967 78.3912 103.149 78.625 102.394C78.8588 101.638 79.3824 101.007 80.0804 100.638C80.4317 100.448 80.8177 100.33 81.2153 100.293C81.6129 100.256 82.0139 100.299 82.3943 100.421C82.7747 100.543 83.1266 100.741 83.4288 101.003C83.7311 101.264 83.9775 101.585 84.1533 101.944V101.944Z" fill="#565E13"/>
<path d="M82.103 102.055L81.2441 102.472C81.2441 102.472 81.1055 102.222 81.0501 102.194H80.8839C80.8748 102.259 80.8748 102.324 80.8839 102.389C80.8839 102.528 81.0224 102.611 81.1055 102.639H81.7428H82.3246C82.4578 102.676 82.5809 102.742 82.6848 102.833C82.822 102.949 82.935 103.091 83.0173 103.25C83.1524 103.506 83.201 103.798 83.1558 104.084C83.0796 104.361 82.9014 104.6 82.6571 104.751L82.8234 105.084L82.4355 105.279L82.2415 104.945C82.0085 105.028 81.7542 105.028 81.5211 104.945C81.281 104.945 81.0594 104.723 80.8562 104.278V104.112L81.7151 103.667V103.889C81.7802 104.038 81.864 104.178 81.9644 104.306C81.9644 104.306 81.9644 104.306 82.1307 104.306C82.1428 104.285 82.1492 104.261 82.1492 104.237C82.1492 104.212 82.1428 104.188 82.1307 104.167C82.1307 104.167 82.1307 104.167 82.1307 103.973C82.0605 103.835 81.9769 103.705 81.8813 103.584C81.7544 103.508 81.6126 103.46 81.4657 103.445H80.7453C80.5929 103.415 80.4502 103.348 80.3297 103.25C80.1897 103.138 80.0761 102.995 79.9973 102.833C79.9451 102.72 79.9181 102.597 79.9181 102.472C79.9181 102.347 79.9451 102.224 79.9973 102.111C80.0833 101.853 80.2607 101.635 80.496 101.5L80.3575 101.222L80.7453 101.027L80.8839 101.305C81.1264 101.223 81.3894 101.223 81.632 101.305C81.8493 101.411 82.0249 101.587 82.1307 101.805C82.1118 101.887 82.1025 101.971 82.103 102.055V102.055Z" fill="#636B1B"/>
<path d="M118.648 118.755C117.457 117.616 107.843 112.726 104.241 110.225C100.639 107.724 99.4474 106.612 97.6188 105.612C95.7901 104.612 93.8229 103.25 92.3822 102.472C90.9414 101.694 88.3093 100.11 87.395 99.6935C86.9912 99.5228 86.5472 99.4713 86.1152 99.5452C85.6833 99.619 85.2814 99.8151 84.9568 100.11L85.8157 101.778C86.0695 101.585 86.363 101.452 86.6746 101.389C87.5486 102.069 88.2986 102.896 88.8911 103.834C87.6719 104.108 86.4279 104.257 85.1784 104.278C83.6546 104.278 80.5237 104.278 80.3852 105.084C80.2466 105.89 80.967 106.779 84.1256 106.779C84.9682 106.662 85.8263 106.73 86.6398 106.98C87.4533 107.229 88.2027 107.654 88.8357 108.224C90.6268 109.345 92.6825 109.968 94.7927 110.03C97.4248 110.03 100.112 114.782 105.598 120.173C109.915 124.42 114.882 127.947 120.311 130.62C121.918 131.176 123.663 128.286 125.603 125.563C125.603 125.508 119.84 119.867 118.648 118.755Z" fill="#F7B799"/>
<path d="M33.7824 96.3035C32.8664 97.5039 32.172 98.8591 31.7321 100.305C31.7321 100.305 40.8476 106.557 64.9802 104.39C65.3129 102.788 65.5167 101.161 65.5898 99.5268C65.5898 99.5268 45.6686 101.583 33.7824 96.3035Z" fill="#48423B"/>
<g style="mix-blend-mode:multiply" opacity="0.3">
<path d="M33.7824 96.3035C32.8664 97.5039 32.172 98.8591 31.7321 100.305C31.7321 100.305 40.8476 106.557 64.9802 104.39C65.3129 102.788 65.5167 101.161 65.5898 99.5268C65.5898 99.5268 45.6686 101.583 33.7824 96.3035Z" fill="#48423B"/>
</g>
</svg>
