<svg width="154" height="195" viewBox="0 0 154 195" fill="none" xmlns="http://www.w3.org/2000/svg">
<path d="M75.0897 82.589C83.097 93.6462 86.2109 101.193 91.4935 100.336C96.7761 99.479 104.172 82.6995 104.172 82.6995L75.0897 82.589Z" fill="#F0A581"/>
<path d="M76.4799 67.2746C78.0137 67.0083 79.4959 66.5046 80.8728 65.7819C83.2917 64.4274 84.9042 65.3396 79.8997 69.3479C74.8952 73.3561 75.9795 69.9284 75.9795 69.9284L76.4799 67.2746Z" fill="#F0A581"/>
<path d="M119.269 60.8061C112.235 59.424 111.234 60.4191 104.756 65.5331C98.2775 70.6471 90.3258 77.392 90.3258 77.392L119.797 70.5365L119.269 60.8061Z" fill="#F0A581"/>
<path d="M60.7435 69.2373H55.7667V125.878H60.7435V69.2373Z" fill="#48423B"/>
<path d="M105.061 69.2373H100.085V125.878H105.061V69.2373Z" fill="#48423B"/>
<path d="M55.5164 127.288H50.5397V193.687H55.5164V127.288Z" fill="#48423B"/>
<path d="M63.1066 126.265H58.4913V181.496H63.1066V126.265Z" fill="#48423B"/>
<path d="M105.395 193.715H110.372L110.372 127.316H105.395L105.395 193.715Z" fill="#48423B"/>
<path d="M97.8049 181.496H102.42V126.265H97.8049V181.496Z" fill="#48423B"/>
<g style="mix-blend-mode:multiply" opacity="0.4">
<path d="M63.1066 126.265H58.4913V181.496H63.1066V126.265Z" fill="#48423B"/>
</g>
<g style="mix-blend-mode:multiply" opacity="0.4">
<path d="M97.8049 181.496H102.42V126.265H97.8049V181.496Z" fill="#48423B"/>
</g>
<path d="M108.87 154.821H53.0142V159.188H108.87V154.821Z" fill="#48423B"/>
<path d="M106.285 68.1316H54.5989C53.7237 68.1316 53.0142 68.837 53.0142 69.7072V92.3194C53.0142 93.1896 53.7237 93.895 54.5989 93.895H106.285C107.16 93.895 107.87 93.1896 107.87 92.3194V69.7072C107.87 68.837 107.16 68.1316 106.285 68.1316Z" fill="#595550"/>
<path d="M111.289 127.205H49.6222V134.061H111.289V127.205Z" fill="#595550"/>
<path d="M111.873 121.317H49.0384C48.1631 121.317 47.4536 122.023 47.4536 122.893V127.896C47.4536 128.766 48.1631 129.472 49.0384 129.472H111.873C112.748 129.472 113.458 128.766 113.458 127.896V122.893C113.458 122.023 112.748 121.317 111.873 121.317Z" fill="#817F7D"/>
<path d="M1.38398 0.5163C0.479468 1.95944 0 3.6258 0 5.32622C0 7.02663 0.479468 8.69299 1.38398 10.1361C3.4692 13.7021 6.77776 18.4291 4.99837 22.4926C3.21897 26.5562 2.21807 31.3938 5.49882 32.9141C8.77958 34.4345 11.0594 32.2231 13.3949 34.2963C17.3712 37.419 20.5049 41.475 22.5143 46.0999C25.9618 53.3701 30.2991 60.198 36.4158 64.068C43.0329 68.3527 44.5899 68.5462 47.0365 73.2179C49.8168 78.5807 59.4089 104.234 61.9111 106.721C64.4134 109.209 81.3733 104.151 82.7912 100.723C84.2092 97.2952 84.3204 97.9586 84.3204 97.9586C84.3204 97.9586 67.3883 76.9774 63.9686 71.8634C60.6416 66.7205 56.4795 62.162 51.6518 58.3735C44.5205 52.7766 37.7509 46.7384 31.3834 40.2949C25.8228 34.2687 21.847 30.7027 19.9286 28.0766C18.0102 25.4505 16.1752 20.4194 12.4496 15.1948C8.72397 9.97028 5.80466 7.37181 4.85935 5.51972C3.91405 3.66763 3.60822 -1.66751 1.38398 0.5163Z" fill="#F7B799"/>
<path d="M91.16 91.4901C89.0959 94.6078 86.4765 97.3245 83.4307 99.5066C80.7023 100.967 77.722 101.905 74.645 102.271C71.253 102.851 32.6346 102.907 25.4058 103.708C18.1771 104.51 16.7035 107.026 16.7035 111.034C16.7035 115.042 25.3224 154.489 25.3224 157.889C25.3224 161.289 26.7126 175.636 26.7126 181.192C26.7126 186.749 26.9906 187.965 25.9897 188.794C24.9888 189.623 21.9861 189.181 20.9852 191.973C19.9842 194.765 30.188 194.157 32.1064 193.162C34.0248 192.167 34.5252 184.869 34.5252 181.413C34.3335 179.982 34.5286 178.526 35.0906 177.195C35.6525 175.864 36.561 174.706 37.7226 173.839C40.5029 171.434 41.476 169.61 40.5029 166.154C39.5298 162.699 34.0526 161.676 34.2472 159.465C34.4418 157.253 34.4696 146.307 35.8598 137.544C37.0918 131.502 36.2192 125.224 33.3853 119.741C33.3853 119.741 67.583 124.938 78.3984 125.27C89.2138 125.602 95.8865 126.984 101.308 119.603C106.73 112.222 105.395 107.413 115.21 98.8155C119.046 95.3325 91.16 91.4901 91.16 91.4901Z" fill="#F7B799"/>
<path d="M1.38397 0.5163C0.479468 1.95944 0 3.6258 0 5.32622C0 7.02663 0.479468 8.69299 1.38397 10.1361C3.4692 13.7021 6.77776 18.4291 4.99837 22.4926C3.21897 26.5562 2.21807 31.3938 5.49882 32.9141C8.77958 34.4345 11.0594 32.2231 13.3949 34.2963C17.3712 37.419 20.5049 41.475 22.5143 46.0999C25.9618 53.3701 30.2991 60.198 36.4158 64.068C43.0329 68.3527 44.5899 68.5462 47.0365 73.2179C49.8168 78.5807 59.4089 104.234 61.9111 106.721C64.4134 109.209 81.3733 104.151 82.7912 100.723C84.2092 97.2952 85.8773 99.9213 85.8773 99.9213C85.8773 99.9213 67.3883 76.9774 63.9686 71.8634C60.6416 66.7205 56.4795 62.162 51.6518 58.3735C44.5205 52.7766 37.7509 46.7384 31.3834 40.2949C25.8228 34.2687 21.847 30.7027 19.9286 28.0766C18.0102 25.4505 16.1752 20.4194 12.4496 15.1948C8.72397 9.97028 5.80465 7.37181 4.85935 5.51972C3.91405 3.66763 3.60822 -1.66751 1.38397 0.5163Z" fill="#F7B799"/>
<path d="M88.9913 94.282C85.5715 98.5391 85.7105 98.0415 83.4307 99.4513C80.652 100.79 77.6926 101.722 74.6449 102.216C74.6449 102.216 81.0952 118.332 76.5355 125.242C76.5355 125.242 93.0783 127.012 98.3887 123.943C100.992 122.552 103.143 120.452 104.589 117.889C105.955 114.466 107.061 110.945 107.897 107.357C103.645 105.461 99.5699 103.195 95.7196 100.585C92.1886 97.6545 88.9913 94.282 88.9913 94.282Z" fill="#31261A"/>
<path d="M140.705 67.4681C141.177 60.9167 135.756 59.7833 134.116 57.1572C132.475 54.5311 130.334 49.9976 131.168 46.5699C132.002 43.1421 120.047 44.8284 120.047 44.8284C121.521 48.0902 122.188 55.3051 118.073 58.3182C110.566 63.8469 104.95 63.2111 101.058 67.9104C97.9716 71.6146 98.9169 74.5448 97.8326 77.6685C95.5809 83.5798 92.5318 89.1595 88.7688 94.2544C89.3805 95.056 91.7715 93.4527 92.55 94.2544C96.3013 97.2055 100.423 99.6588 104.811 101.552C106.201 102.271 107.591 103.073 109.009 103.791C113.232 100.018 117.761 96.5968 122.549 93.5633C124.604 92.2844 126.73 91.1215 128.916 90.0803C128.916 90.0803 130.223 98.8985 130.39 101.138C125.172 102.768 120.353 105.461 116.238 109.044C109.371 114.876 106.34 118.497 100.919 120.46C95.4971 122.423 96.359 124.22 92.7446 126.321C89.1302 128.421 93.0505 128.062 96.6927 126.321C100.335 124.579 92.8002 132.983 89.4917 133.812C86.1831 134.641 90.4926 136.244 96.4146 134.945C102.337 133.646 103.949 125.795 107.23 123.197C110.511 120.598 133.837 110.951 136.646 109.79C139.454 108.629 141.817 108.767 141.817 96.7423C141.817 89.8038 140.204 73.9919 140.705 67.4681Z" fill="#F7B799"/>
<path opacity="0.5" d="M109.593 84.6346C109.288 84.3305 101.058 81.7044 96.9152 80.4052C96.6649 80.9857 96.3869 81.5662 96.1089 82.1743C99.9548 88.2361 105.558 92.9971 112.179 95.8301C108.787 98.4789 105.823 101.63 103.393 105.173C105.451 106.224 107.202 107.053 107.703 107.302C109.709 104.059 112.224 101.156 115.154 98.7049V98.7049C117.548 96.8484 120.035 95.1139 122.605 93.508L123.828 92.7617C118.88 89.9421 109.899 84.9386 109.593 84.6346Z" fill="#F0A581"/>
<path d="M106.591 64.1233C104.491 64.9114 102.626 66.2141 101.169 67.9104C98.0828 71.6146 99.0281 74.5448 97.9438 77.6685C97.5824 78.7742 97.1375 79.8799 96.6371 81.0133C103.131 87.6787 111.285 92.5145 120.27 95.0284L122.661 93.4804C124.716 92.2014 126.841 91.0386 129.028 89.9974C129.028 89.9974 130.334 98.8155 130.501 101.055C134.233 100.247 138.125 100.635 141.622 102.16C141.761 100.695 141.817 98.8708 141.817 96.6317C141.817 89.7486 140.177 73.9366 140.677 67.4128C140.829 66.083 140.635 64.7366 140.115 63.5025C139.594 62.2683 138.763 61.1876 137.702 60.3638L137.313 60.1427C137.313 60.1427 128.194 70.039 106.591 64.1233Z" fill="#F19649"/>
<path d="M140.705 67.4681C140.857 66.1383 140.663 64.7919 140.142 63.5577C139.622 62.3236 138.791 61.2429 137.73 60.4191L137.341 60.198C133.79 63.3665 129.303 65.3062 124.551 65.7266C123.689 68.0487 121.048 77.5303 128.027 84.5516C128.027 84.5516 119.519 89.6656 114.57 93.1487C116.369 93.9397 118.228 94.5868 120.131 95.0837L122.522 93.5357C124.577 92.2567 126.702 91.0939 128.889 90.0526C128.889 90.0526 130.195 98.8708 130.362 101.11C134.094 100.303 137.986 100.69 141.483 102.216C141.622 100.751 141.678 98.9261 141.678 96.687C141.817 89.8038 140.204 73.9919 140.705 67.4681Z" fill="#C95832"/>
<path d="M120.27 28.5465C120.27 28.5465 121.854 29.8181 123.05 29.0441L122.244 29.9563C121.451 29.7079 120.759 29.2139 120.27 28.5465V28.5465Z" fill="#362823"/>
<path d="M129.306 22.4097C127.26 22.9132 125.412 24.0101 123.995 25.561C122.327 27.4961 122.411 27.7725 122.272 28.6847C122.049 30.2051 120.158 30.3986 119.074 30.7027C117.35 31.145 115.571 31.2003 116.516 32.8865C117.462 34.5727 116.516 35.0427 115.821 35.1256C115.126 35.2085 115.432 36.3142 115.515 36.646C115.599 36.9777 114.264 36.8118 114.431 37.6135C114.598 38.4151 115.237 38.7468 114.959 39.1891C114.681 39.6314 112.958 41.0136 113.375 42.2022C114.532 43.7754 116.022 45.0775 117.74 46.017C119.185 46.9016 121.632 48.4496 122.939 49.0854C128.082 51.6009 132.586 32.0572 132.586 32.0572L129.306 22.4097Z" fill="#F7B799"/>
<path d="M123.662 54.0335C126.869 54.2231 130.086 54.1491 133.281 53.8124C131.627 46.6749 131.391 39.2847 132.586 32.0572L121.048 47.4821C121.604 49.5347 121.958 51.6363 122.105 53.7571C122.616 53.8893 123.136 53.9817 123.662 54.0335V54.0335Z" fill="#F7B799"/>
<path d="M127.749 22.9626C128.488 24.9138 128.846 26.9871 128.805 29.0717C128.416 31.062 127.471 34.2686 127.081 36.3972C126.851 37.7142 126.851 39.0608 127.081 40.3778C127.081 40.3778 127.081 39.1615 128.889 39.4379C129.205 39.4506 129.511 39.5541 129.769 39.7357C130.028 39.9174 130.228 40.1696 130.346 40.4618C130.463 40.7541 130.493 41.0739 130.432 41.3827C130.371 41.6915 130.221 41.9762 130.001 42.2022C129.222 43.2527 129.473 46.4593 126.72 45.4089C125.758 46.4419 125.058 47.6875 124.676 49.043C124.294 50.3985 124.242 51.8248 124.524 53.2042C124.885 56.1344 128.861 58.0142 127.304 63.3493C126.56 64.9912 126.295 66.8084 126.541 68.5928C126.787 70.3771 127.533 72.0566 128.694 73.4391C130.501 75.9546 135.756 80.7369 133.643 85.9338C132.922 87.6453 132.647 89.5097 132.841 91.355C133.035 93.2004 133.694 94.9675 134.755 96.4935C136.423 99.0367 136.562 101.082 136.423 105.478C137.881 103.566 138.837 101.324 139.204 98.9537C140.164 102.496 139.85 106.261 138.314 109.596C138.314 109.596 141.9 107.191 142.318 104.538C142.889 101.834 143.974 99.2631 145.515 96.9634C145.904 96.8252 143.513 100.806 145.515 103.736C145.515 103.736 144.848 102.409 146.71 99.8936C148.573 97.3781 150.686 93.3698 149.908 90.7161C149.224 88.1771 149.007 85.5362 149.268 82.9207C149.316 85.166 149.959 87.359 151.131 89.2786C150.624 87.5453 150.624 85.7044 151.131 83.9711C152.034 81.2797 152.034 78.3696 151.131 75.6782C150.186 73.1626 148.351 71.9463 149.713 66.5006C151.075 61.0549 153.856 59.341 152.771 52.8172C151.687 46.2934 148.379 44.2202 149.324 38.6916C150.269 33.1629 145.459 24.483 137.007 22.1056C133.901 21.5296 130.695 21.8264 127.749 22.9626V22.9626Z" fill="#703C22"/>
<g style="mix-blend-mode:multiply" opacity="0.3">
<path d="M121.326 50.2741C123.968 51.3798 126.72 56.6596 126.72 56.6596C126.72 56.6596 128.638 47.5374 127.804 46.6528L126.72 45.4365C124.246 48.4773 122.438 48.3667 121.159 48.0626C121.258 48.796 121.313 49.5344 121.326 50.2741V50.2741Z" fill="#F7B799"/>
</g>
<path opacity="0.5" d="M84.7096 98.5667L81.9293 95.0008C81.9293 95.0008 72.0314 100.142 67.583 99.2025C63.1345 98.2627 50.0671 65.5055 44.5065 62.7135C38.9459 59.9215 26.2677 48.8919 22.264 41.0965C18.2604 33.3011 11.5043 28.5465 8.69618 29.2652C5.88807 29.984 3.52482 27.0814 4.99838 22.4926C3.19118 26.4733 2.21808 31.3938 5.49883 32.9141C8.77959 34.4345 11.0594 32.2231 13.3949 34.2963C17.3712 37.419 20.5049 41.475 22.5143 46.0999C25.9619 53.3701 30.2991 60.198 36.4158 64.068C43.0329 68.3527 44.5899 68.5462 47.0365 73.2179C49.4832 77.8896 55.6277 94.6691 59.5479 102.713C67.1659 102.713 73.4494 102.437 74.6171 102.216C77.6714 101.742 80.6403 100.829 83.4307 99.5066L84.7096 98.5667Z" fill="#F0A581"/>
<path d="M66.7488 67.8551C66.2206 68.8779 68.139 73.3838 69.8906 75.0424C71.6422 76.701 73.4215 77.1985 74.4781 76.5351C75.5346 75.8717 77.2584 67.4681 76.4799 66.4453C75.2843 64.8973 67.7497 66.1413 66.7488 67.8551Z" fill="#F0A581"/>
<path opacity="0.5" d="M76.9247 109.596C77.87 117.198 73.6162 119.244 61.7999 118.608C49.9836 117.972 31.6892 117.502 31.6892 117.502C32.2617 118.207 32.7909 118.946 33.274 119.714C33.274 119.714 64.3021 124.385 76.6189 125.077C79.0099 121.234 78.1759 114.71 76.9247 109.596Z" fill="#F0A581"/>
<path opacity="0.5" d="M40.2525 166.154C39.6687 164.358 37.6391 163.141 36.0543 162.036C40.2525 166.154 36.944 169.527 34.6363 173.093C32.3287 176.659 32.996 189.43 28.6587 190.066C24.3214 190.702 27.3241 188.407 25.8784 188.932C24.4326 189.458 21.8747 189.319 20.8738 192.111C19.8729 194.903 30.0766 194.295 31.995 193.3C33.9135 192.305 34.4139 185.007 34.4139 181.552C34.2222 180.121 34.4173 178.665 34.9793 177.333C35.5412 176.002 36.4497 174.844 37.6113 173.977C40.4194 171.379 41.3647 169.61 40.2525 166.154Z" fill="#F0A581"/>
</svg>
