<svg width="32" height="32" viewBox="0 0 32 32" fill="none" xmlns="http://www.w3.org/2000/svg">
<path d="M15.0591 20.1987V16.7207C13.9744 16.4108 13.1776 15.9432 12.6685 15.3179C12.1649 14.687 11.9131 13.9233 11.9131 13.0269C11.9131 12.1193 12.1981 11.3584 12.7681 10.7441C13.3436 10.1243 14.1073 9.76742 15.0591 9.67334V8.85156H16.2627V9.67334C17.1426 9.77848 17.8426 10.0801 18.3628 10.5781C18.883 11.0706 19.215 11.7319 19.3589 12.562L17.2588 12.8359C17.1315 12.1829 16.7995 11.7402 16.2627 11.5078V14.7534C17.5908 15.1131 18.4956 15.5807 18.9771 16.1562C19.4585 16.7262 19.6992 17.4595 19.6992 18.356C19.6992 19.3576 19.3949 20.2015 18.7861 20.8877C18.1829 21.5739 17.3418 21.9945 16.2627 22.1494V23.7017H15.0591V22.1909C14.1017 22.0747 13.3242 21.7178 12.7266 21.1201C12.1289 20.5225 11.7471 19.6785 11.5811 18.5884L13.7476 18.356C13.8361 18.7987 14.0021 19.1805 14.2456 19.5015C14.4891 19.8224 14.7603 20.0549 15.0591 20.1987ZM15.0591 11.4829C14.7326 11.5936 14.4725 11.7817 14.2788 12.0474C14.0851 12.313 13.9883 12.6063 13.9883 12.9272C13.9883 13.2205 14.0768 13.4945 14.2539 13.749C14.431 13.998 14.6994 14.2 15.0591 14.355V11.4829ZM16.2627 20.3149C16.6777 20.2375 17.0153 20.0465 17.2754 19.7422C17.5355 19.4323 17.6655 19.0698 17.6655 18.6548C17.6655 18.284 17.5549 17.9658 17.3335 17.7002C17.1177 17.429 16.7607 17.2215 16.2627 17.0776V20.3149Z" fill="white"/>
<circle cx="16" cy="16" r="11.5" stroke="white" stroke-width="3"/>
</svg>
