<svg width="34" height="40" viewBox="0 0 34 40" fill="none" xmlns="http://www.w3.org/2000/svg">
<path d="M14.335 34.4824H5.44555C3.69219 34.4807 2.27124 33.0597 2.26956 31.3062V16.5223C1.02479 15.6389 0.637223 13.9641 1.36736 12.6236C2.73895 10.1729 4.13797 7.75717 5.51413 5.44205C6.06606 4.53825 7.0521 3.99079 8.111 4.00012C8.75644 4.00668 9.38427 4.21153 9.9093 4.58702L9.94588 4.60988C10.5738 4.97567 16.6392 8.58628 21.5145 11.4867L25.8411 14.0594L26.0392 14.1767C29.4194 16.1748 30.1798 16.629 30.2225 16.658C31.4669 17.5391 31.8496 19.2151 31.111 20.549C29.7653 22.9525 28.3678 25.3683 26.9642 27.7306C26.4194 28.6246 25.4508 29.173 24.4039 29.1801C24.1988 29.1801 23.9943 29.1571 23.7943 29.1115C23.6176 29.2166 22.6422 29.843 21.4063 30.6356C19.2071 32.0454 16.2018 33.9734 15.8544 34.1517C15.3856 34.393 14.8616 34.507 14.335 34.4824ZM4.81004 20.8112V31.3062C4.81004 31.6572 5.09457 31.9417 5.44555 31.9417H11.2717C9.0574 28.2031 6.88419 24.4568 4.81004 20.8112ZM6.87962 19.2871C7.48921 20.3341 14.0667 31.6811 14.1216 31.7573C14.2082 31.8699 14.3423 31.9358 14.4843 31.9356C14.5592 31.9356 14.633 31.9174 14.6992 31.8823C14.9049 31.7665 21.0908 27.7916 21.1518 27.752C20.6732 27.47 17.2107 25.4064 13.544 23.2223L6.84914 19.2413L6.85981 19.2581L6.87505 19.284V19.2932L6.87962 19.2871ZM7.60199 6.89605C6.37061 8.87739 3.61524 13.7972 3.57866 13.8871C3.48831 14.103 3.56847 14.3526 3.76764 14.4754C3.97033 14.5958 24.119 26.6013 24.311 26.6317C24.3353 26.6335 24.3598 26.6335 24.3841 26.6317C24.5497 26.6323 24.7035 26.5462 24.7895 26.4046C26.03 24.3212 28.8875 19.3069 28.8951 19.2916C28.9834 19.0748 28.903 18.826 28.7046 18.7018C28.5111 18.586 8.40056 6.6339 8.27102 6.57751C8.21215 6.55271 8.14897 6.53977 8.08509 6.5394C7.9246 6.54028 7.77524 6.62155 7.68733 6.75583L7.67666 6.77412L7.66447 6.79241L7.64618 6.82289V6.83051L7.62332 6.86709L7.60046 6.89605H7.60199ZM9.66394 15.2634C8.2627 15.2626 7.12707 14.1266 7.12651 12.7253C7.12595 11.3239 8.26068 10.187 9.66192 10.1851C11.0632 10.1831 12.2011 11.3168 12.2044 12.7181C12.2027 14.1206 11.0663 15.2572 9.66394 15.2588V15.2634Z" fill="white"/>
</svg>
